<?xml version="1.0" encoding="UTF-8"?>
<svg width="7px" height="150px" viewBox="0 0 7 150" version="1.1" xmlns="http://www.w3.org/2000/svg" xmlns:xlink="http://www.w3.org/1999/xlink">
    <!-- Generator: Sketch 60.1 (88133) - https://sketch.com -->
    <title>Group 5</title>
    <desc>Created with Sketch.</desc>
    <g id="Page-1" stroke="none" stroke-width="1" fill="none" fill-rule="evenodd" opacity="0.25">
        <g id="BH_HACKINFEST_EVENTPAGE_BUNBUN" transform="translate(-296.000000, -1382.000000)" fill="#41343A">
            <g id="Group-12" transform="translate(101.000000, 1357.000000)">
                <g id="Group-5" transform="translate(195.000000, 25.000000)">
                    <path d="M3.351375,6.19059891 C1.500525,6.19059891 1.13686838e-13,4.87490834 1.13686838e-13,3.25281597 C1.13686838e-13,1.63013094 1.500525,0.314440376 3.351375,0.314440376 C5.202225,0.314440376 6.70275,1.63013094 6.70275,3.25281597 C6.70275,4.87490834 5.202225,6.19059891 3.351375,6.19059891" id="Fill-175"></path>
                    <path d="M3.351375,26.6825821 C1.500525,26.6825821 1.13686838e-13,25.3668915 1.13686838e-13,23.7442065 C1.13686838e-13,22.1221141 1.500525,20.8064235 3.351375,20.8064235 C5.202225,20.8064235 6.70275,22.1221141 6.70275,23.7442065 C6.70275,25.3668915 5.202225,26.6825821 3.351375,26.6825821" id="Fill-181"></path>
                    <path d="M3.351375,47.1745652 C1.500525,47.1745652 1.13686838e-13,45.8588747 1.13686838e-13,44.2361897 C1.13686838e-13,42.6140973 1.500525,41.2984067 3.351375,41.2984067 C5.202225,41.2984067 6.70275,42.6140973 6.70275,44.2361897 C6.70275,45.8588747 5.202225,47.1745652 3.351375,47.1745652" id="Fill-187"></path>
                    <path d="M3.351375,67.6665484 C1.500525,67.6665484 1.13686838e-13,66.3508578 1.13686838e-13,64.7281728 C1.13686838e-13,63.1060804 1.500525,61.7903899 3.351375,61.7903899 C5.202225,61.7903899 6.70275,63.1060804 6.70275,64.7281728 C6.70275,66.3508578 5.202225,67.6665484 3.351375,67.6665484" id="Fill-193"></path>
                    <path d="M3.351375,88.1585316 C1.500525,88.1585316 1.13686838e-13,86.842841 1.13686838e-13,85.220156 C1.13686838e-13,83.597471 1.500525,82.2823731 3.351375,82.2823731 C5.202225,82.2823731 6.70275,83.597471 6.70275,85.220156 C6.70275,86.842841 5.202225,88.1585316 3.351375,88.1585316" id="Fill-199"></path>
                    <path d="M3.351375,108.650515 C1.500525,108.650515 1.13686838e-13,107.334824 1.13686838e-13,105.712139 C1.13686838e-13,104.089454 1.500525,102.774356 3.351375,102.774356 C5.202225,102.774356 6.70275,104.089454 6.70275,105.712139 C6.70275,107.334824 5.202225,108.650515 3.351375,108.650515" id="Fill-205"></path>
                    <path d="M3.351375,129.143091 C1.500525,129.143091 1.13686838e-13,127.8274 1.13686838e-13,126.204715 C1.13686838e-13,124.58203 1.500525,123.266339 3.351375,123.266339 C5.202225,123.266339 6.70275,124.58203 6.70275,126.204715 C6.70275,127.8274 5.202225,129.143091 3.351375,129.143091" id="Fill-211"></path>
                    <path d="M3.351375,149.635666 C1.500525,149.635666 1.13686838e-13,148.319976 1.13686838e-13,146.697291 C1.13686838e-13,145.074606 1.500525,143.758915 3.351375,143.758915 C5.202225,143.758915 6.70275,145.074606 6.70275,146.697291 C6.70275,148.319976 5.202225,149.635666 3.351375,149.635666" id="Fill-217"></path>
                </g>
            </g>
        </g>
    </g>
</svg>