<?xml version="1.0" encoding="UTF-8"?>
<svg width="912px" height="272px" viewBox="0 0 912 272" version="1.1" xmlns="http://www.w3.org/2000/svg" xmlns:xlink="http://www.w3.org/1999/xlink">
    <!-- Generator: Sketch 61 (89581) - https://sketch.com -->
    <title>BH_HACKINFEST_HOMEPAGE@2x</title>
    <desc>Created with Sketch.</desc>
    <g id="Page-1" stroke="none" stroke-width="1" fill="none" fill-rule="evenodd">
        <g id="BH_HACKINFEST_HOMEPAGE" transform="translate(0.000000, -964.000000)">
            <g id="Group-13" transform="translate(567.000000, 963.500000)">
                <path d="M171.68106,332.377006 C263.360329,332.377006 330,272.208706 330,185.5 C330,161 327,151.585415 266.5,175.586503 C269.745443,177.045797 258.753077,175.755944 230.68106,203.582509 C230.68106,290.291215 255.68106,275.877006 171.68106,332.377006 Z" id="Oval" fill="#C95435"></path>
                <path d="M44.485032,211.856364 C51.7906872,220.288338 58.692698,228.251955 67.272452,234.38374 C67.272452,234.38374 68.0612532,234.949159 68.1321221,235 C68.3955694,234.861342 68.6620979,234.724224 68.9270858,234.585565 C72.1731878,232.900095 75.2405769,231.307063 77.6116025,229.361223 C82.8851701,225.019673 88.058597,220.155843 93.0594735,215.450699 C95.2502457,213.38931 97.4440991,211.326381 99.6595213,209.291183 C99.7658246,209.192581 99.8921561,209.097061 100,209 L42,209 C42.8350201,209.956743 43.6700401,210.915027 44.485032,211.856364" id="Fill-58" fill="#C95435"></path>
                <path d="M257,301.5 C261.971848,301.5 266,305.529375 266,310.49924 C266,315.470625 261.971848,319.5 257,319.5 C252.02967,319.5 248,315.470625 248,310.49924 C248,305.529375 252.02967,301.5 257,301.5 Z M226.999241,319.5 C222.02933,319.5 218,315.470625 218,310.49924 C218,305.529375 222.02933,301.5 226.999241,301.5 C231.97067,301.5 236,305.529375 236,310.49924 C236,315.470625 231.97067,319.5 226.999241,319.5 Z M198.000759,319.5 C193.02933,319.5 189,315.470625 189,310.49924 C189,305.529375 193.02933,301.5 198.000759,301.5 C202.97067,301.5 207,305.529375 207,310.49924 C207,315.470625 202.97067,319.5 198.000759,319.5 Z M121.999241,131.5 C117.02933,131.5 113,127.470625 113,122.50076 C113,117.529375 117.02933,113.5 121.999241,113.5 C126.97067,113.5 131,117.529375 131,122.50076 C131,127.470625 126.97067,131.5 121.999241,131.5 Z M92.0007585,131.5 C87.030847,131.5 83,127.470625 83,122.50076 C83,117.529375 87.030847,113.5 92.0007585,113.5 C96.97067,113.5 101,117.529375 101,122.50076 C101,127.470625 96.97067,131.5 92.0007585,131.5 Z M63,131.5 C58.0296696,131.5 54,127.470625 54,122.50076 C54,117.529375 58.0296696,113.5 63,113.5 C67.9703304,113.5 72,117.529375 72,122.50076 C72,127.470625 67.9703304,131.5 63,131.5 Z M157.484745,27.6291967 L195.474303,65.6363765 L222.935978,65.6363765 C223.900827,62.9123496 226.469095,60.947937 229.519012,60.947937 C233.389282,60.947937 236.529313,64.0937989 236.529313,67.9712567 C236.529313,71.8487144 233.389282,74.9945763 229.519012,74.9945763 C226.469095,74.9945763 223.900827,73.0301637 222.935978,70.3061368 L193.546159,70.3061368 L151.226436,27.9685326 C118.875261,30.370346 89.0892484,41.9824835 64.4692932,60.1883227 L165.75976,60.1883227 L208.548701,102.99446 L232.495904,102.99446 C234.024746,99.2695473 237.679052,96.6435854 241.948624,96.6435854 C247.593222,96.6435854 252.171981,101.230847 252.171981,106.885927 C252.171981,112.541006 247.593222,117.128268 241.948624,117.128268 C237.679052,117.128268 234.024746,114.502306 232.495904,110.777393 L205.332539,110.777393 L162.545152,67.9712567 L54.7167084,67.9712567 C49.1047383,72.8044586 43.822153,78.0081283 38.8953653,83.5371246 L157.971054,83.5371246 L200.759995,126.343261 L270.60665,126.343261 C272.135492,122.618349 275.791352,119.992387 280.05937,119.992387 C285.705522,119.992387 290.282727,124.579649 290.282727,130.234728 C290.282727,135.889808 285.705522,140.47707 280.05937,140.47707 C275.791352,140.47707 272.135492,137.851108 270.60665,134.126195 L197.543833,134.126195 L154.756446,91.3200586 L32.3604964,91.3200586 C25.6609352,99.8205791 19.7661915,108.987319 14.7959001,118.703533 L48.1041545,152.026944 L121.466836,152.026944 C122.430131,149.302917 124.998399,147.338504 128.048315,147.338504 C131.918586,147.338504 135.058617,150.484366 135.058617,154.361824 C135.058617,158.239281 131.918586,161.385143 128.048315,161.385143 C124.998399,161.385143 122.430131,159.420731 121.466836,156.696704 L46.1760108,156.696704 L12.6222716,123.12891 C10.2901655,128.041498 8.18956101,133.086395 6.33754873,138.248037 L40.3356466,172.262572 L144.174184,172.262572 L164.76073,151.637797 L241.878708,151.637797 C242.842003,148.91377 245.410271,146.949357 248.460188,146.949357 C252.330458,146.949357 255.470489,150.095219 255.470489,153.972677 C255.470489,157.850135 252.330458,160.995997 248.460188,160.995997 C245.410271,160.995997 242.842003,159.031584 241.878708,156.307557 L166.690427,156.307557 L146.103881,176.932332 L38.407503,176.932332 L4.65955103,143.169965 C2.79200173,148.930892 1.24296126,154.83347 0,160.848121 L5.27947796,166.71334 C15.1206237,177.649919 24.9648769,188.583384 34.8277745,199.502841 L148.190503,199.502841 L174.603429,173.040865 L207.933436,173.040865 C209.462278,169.315953 213.116584,166.689991 217.386156,166.689991 C223.030754,166.689991 227.609512,171.277252 227.609512,176.932332 C227.609512,182.587412 223.030754,187.174673 217.386156,187.174673 C213.116584,187.174673 209.462278,184.548711 207.933436,180.823799 L177.822699,180.823799 L151.409772,207.285775 L113.395356,207.285775 C114.852728,209.236178 116.28058,211.186581 117.694448,213.127645 C120.937023,217.57637 123.999369,221.777598 127.319629,225.732885 C131.889066,231.165373 135.645916,236.664794 138.629023,242.308978 L171.109155,242.308978 C172.639551,238.584065 176.293857,235.958103 180.563429,235.958103 C186.208027,235.958103 190.785231,240.545365 190.785231,246.200445 C190.785231,251.855524 186.208027,256.442786 180.563429,256.442786 C176.293857,256.442786 172.639551,253.816824 171.109155,250.091912 L142.194768,250.091912 C143.45482,253.275132 144.50823,256.508162 145.317708,259.812796 C145.32237,259.815909 145.325477,259.820579 145.330138,259.823692 C148.153214,262.633331 150.982504,265.39783 153.808688,268.162328 C155.071847,269.396701 156.322577,270.64664 157.584182,271.884127 L200.393322,271.884127 C201.358171,269.1601 203.926439,267.195687 206.976355,267.195687 C210.846626,267.195687 213.986657,270.341549 213.986657,274.219007 C213.986657,278.096465 210.846626,281.242327 206.976355,281.242327 C203.926439,281.242327 201.358171,279.277914 200.393322,276.553887 L162.321418,276.553887 C162.899395,277.128268 163.485141,277.691752 164.061564,278.269246 C165.933775,280.124697 167.471939,282.590331 168.363764,285.180491 C170.324535,290.938306 184.057704,328.27304 188.45934,340.227626 L193.350393,339.002593 C193.847577,338.879622 194.35253,338.817359 194.857483,338.817359 C195.816117,338.817359 196.766982,339.039951 197.637055,339.474238 L201.355063,341.337473 L206.533551,339.262543 C207.266898,338.968348 208.049963,338.817359 208.840797,338.817359 L218.163007,338.817359 C219.390431,338.817359 220.589889,339.180044 221.610671,339.863385 L226.271775,342.976559 C226.366551,343.040379 226.461327,343.107312 226.552995,343.175802 L232.306352,347.5 C237.721002,345.063942 242.984943,342.350811 248.07487,339.37306 C249.01952,338.093546 250.439603,337.189169 252.111386,336.930776 C252.571282,336.644364 253.029624,336.357952 253.486412,336.06687 C254.170041,335.339944 255.019916,334.785799 255.964566,334.454246 C272.839319,323.282623 287.577732,309.139475 299.416938,292.754842 L295.851193,286.221848 L292.196887,282.806696 C291.836428,282.482926 291.489953,282.156043 291.166783,281.807368 C291.166783,281.807368 290.105605,280.658606 289.90207,280.439128 C289.897409,280.45625 289.892748,280.474929 289.88964,280.493608 C289.463926,282.495379 288.618712,284.280784 287.380412,285.793786 C285.96499,287.524711 284.431486,288.45555 283.02694,288.931865 C282.904198,289.095307 282.781455,289.257192 282.657159,289.419077 C280.266013,292.597627 277.27203,293.069273 275.69813,293.07083 L275.037807,293.07083 L274.278047,292.949416 C273.516733,292.817106 271.66006,292.356356 270.037995,290.85425 L268.431468,291.936078 L264.244242,284.819363 C263.975452,284.411537 263.484482,283.656593 263.099164,282.593444 C262.415535,280.702191 261.728799,278.681741 261.348142,276.402898 C260.742199,275.774037 260.140916,275.142063 259.555171,274.496079 C257.426599,274.004198 255.548174,273.271046 253.832888,272.268604 C251.354734,270.819421 249.518258,268.811424 248.37318,266.302206 C247.169062,263.659122 246.40464,261.163913 246.034859,258.671818 C245.511262,255.135253 245.999124,251.833732 247.486017,248.857538 C248.130803,247.568684 248.730532,246.197331 249.364442,244.743479 C249.550886,244.316975 249.73733,243.89047 249.925328,243.465522 L249.906684,242.32143 C249.866288,240.11419 249.827445,237.830677 249.889593,235.500467 C249.939311,233.495583 250.223639,231.59966 250.506413,229.829821 C250.654014,228.916105 250.852888,228.013284 251.109249,227.107351 L251.853472,220.375113 L252.173534,213.904382 C252.173534,213.641319 252.179749,212.922176 252.36464,212.033364 C252.555745,211.096299 253.463107,206.759648 253.463107,206.759648 C253.609155,204.404533 254.191793,202.374743 254.751125,200.682734 C255.535745,198.301156 256.99467,196.285376 258.972532,194.853316 L259.458841,194.492188 C260.047694,194.051674 260.779487,193.502199 261.644899,192.977629 L262.193356,192.638293 C263.4503,191.84599 265.445253,190.588268 268.122281,190.118179 C269.685305,189.613845 271.057223,189.526676 272.028287,189.509554 C272.166566,189.50644 272.31106,189.490875 272.452447,189.479978 C272.826889,189.45196 273.198224,189.427054 273.572666,189.416158 L274.420987,189.386583 C275.329903,189.355451 276.238818,189.325876 277.147733,189.325876 C277.147733,189.325876 278.3301,189.336772 278.35496,189.335216 C279.521789,188.99121 280.632686,188.802863 281.738922,188.763948 C281.94401,188.757722 282.144438,188.737487 282.344865,188.721921 C282.972561,188.67211 283.60181,188.630082 284.221737,188.630082 C284.89449,188.630082 285.548598,188.67678 286.182508,188.771731 C287.980141,188.107069 290.270297,187.453302 292.325844,187.453302 C293.2099,187.453302 294.062883,187.570046 294.858378,187.801978 L299.524144,189.156208 C299.679514,189.145312 299.834884,189.135973 299.994915,189.12819 C300.212433,189.027012 300.436166,188.928947 300.667668,188.837108 C301.529972,188.494659 302.41869,188.139757 303.09455,187.780186 C304.266041,187.152881 305.420441,186.491332 306.576395,185.828226 C307.24604,185.445305 307.915686,185.062385 308.586885,184.684134 C309.011045,184.445977 309.46628,184.229611 309.926176,184.022585 L316.074173,181.119551 L317.307812,182.903399 C318.05825,182.480008 318.8351,182.170247 319.632149,181.978787 C320.359282,181.377944 321.30704,180.669697 322.486299,180.067298 L326.623806,177.947227 C327.420855,177.358837 328.140219,177.041293 328.511554,176.877852 L330,176.13536 C320.707311,92.5217436 249.841428,27.5 163.783452,27.5 C161.673525,27.5 159.576028,27.552924 157.484745,27.6291967 Z" id="Fill-59" fill="#C95435"></path>
                <path d="M670.325532,226.291535 C669.478145,228.697203 668.661106,231.116736 667.837064,233.531648 C664.800012,236.37408 662.103782,237.589624 661.050969,237.494876 C659.297836,237.337734 660.0962,232.593414 663.420383,221.91234 C658.240354,230.820938 655.163617,235.39425 653.375468,235.514418 C653.38714,235.290258 653.401147,235.066099 653.396478,234.84194 C653.314774,231.918626 653.209726,228.995311 653.043984,226.07893 C652.887579,223.328935 653.132691,220.648267 654.031434,218.032305 C654.652384,216.227476 655.242987,214.408782 655.814914,212.587777 C656.356494,210.866141 657.161862,209.278539 658.200669,207.804172 C659.909448,205.368462 661.569205,202.895777 663.369026,200.529394 C664.898057,198.521205 665.488659,196.367427 665.070802,193.899364 C664.933073,193.099785 664.912063,192.28172 664.865375,191.472897 C664.851369,191.209453 664.926069,190.941386 664.982095,190.5 C666.788919,191.385082 668.488361,192.154619 669.653225,193.712179 C670.27651,194.546422 670.685029,195.489277 670.699036,196.529191 C670.734052,198.881708 670.685029,201.236536 670.715376,203.591364 C670.792412,209.518875 670.87645,215.448696 670.995504,221.376207 C671.028186,223.058557 670.890456,224.690067 670.325532,226.291535 Z M634.17509,226.58278 C632.866374,224.807339 631.30849,222.598415 629.508424,219.983675 C635.509421,235.685947 630.952203,231.427196 621.360389,221.076609 C626.786203,231.796118 618.852406,225.224683 612.923599,221.14117 C611.354072,223.4723 600.306836,227.362129 602.623868,221.733752 C599.440569,225.646638 596.34343,229.637921 594.298854,230.696268 C592.254277,231.752309 591.262261,229.875415 592.289207,222.054254 C584.576634,235.586799 580.82281,241.395026 581.495797,222.766736 C576.854747,242.361142 575.052352,245.418589 571.440577,224.470697 C571.407975,246.025005 569.563664,245.093476 561.005783,226.16313 C567.540046,244.761445 564.342774,238.383694 557.10758,223.363929 C558.756282,236.354619 557.878372,235.273215 549.101594,226.264584 C556.958545,236.688956 551.125213,232.900581 542.029408,227.461277 C546.833465,234.539981 538.489821,228.415864 534.102597,227.092354 C534.086296,227.011652 534.063009,226.933256 534.051366,226.852554 C533.902331,225.893355 534.051366,225.003329 534.847773,224.228592 C535.234333,224.433805 535.611578,224.636713 536.151831,224.924933 C536.368398,224.300071 536.554692,223.760521 536.778245,223.110295 C537.067,223.324731 537.327812,223.518416 537.721358,223.813554 C537.763274,223.414656 537.833135,223.154105 537.809848,222.902776 C537.623554,220.88523 537.271924,218.872296 537.253295,216.85475 C537.220693,213.539057 537.234665,210.204918 537.558351,206.909977 C537.716701,205.314387 538.543381,203.753383 539.23034,202.252328 C539.51211,201.634383 540.185097,201.157089 540.753294,200.707465 C541.833799,199.845108 542.392681,198.869769 542.052694,197.428664 C541.924617,196.889115 542.190086,196.259641 542.30652,195.477986 C542.900332,195.694728 543.352095,195.819239 543.766599,196.017535 C544.355754,196.294227 544.902993,196.665456 545.501462,196.923701 C546.17445,197.21884 546.486492,197.062047 546.686758,196.3634 C546.798535,195.978337 546.875381,195.560993 546.845108,195.166707 C546.703059,193.386655 547.443578,191.855626 548.202726,190.336126 C548.33546,190.068657 548.631202,189.842692 548.903657,189.683594 C550.841115,188.560685 552.957881,187.970409 555.167794,187.689105 C555.556682,187.638379 555.987487,187.735221 556.376376,187.841286 C557.710707,188.210209 559.031066,188.265547 560.358411,187.811311 C560.62388,187.721386 560.914964,187.71908 561.282895,187.661436 C561.471518,188.699031 562.235323,188.671362 563.048031,188.657527 C566.869387,188.595272 570.62554,188.064945 574.346764,187.225646 C576.419285,186.759881 578.491806,186.153465 580.64583,186.434768 C584.630194,186.95126 588.563326,186.328703 592.517417,186.035871 C595.002114,185.853715 597.498453,185.701534 599.987807,185.731509 C601.182418,185.745344 602.402644,186.128101 603.559995,186.501635 C605.339103,187.078077 607.080952,187.168002 608.84376,186.510859 C615.159127,184.158976 621.467508,181.786342 627.789862,179.455212 C629.664445,178.763482 631.580945,178.177817 633.481144,177.548343 C633.66511,177.486087 633.860718,177.458418 634.144817,177.626739 C632.004764,178.625136 629.864712,179.621227 627.580281,180.688797 C627.726988,181.29752 627.806163,181.887796 628.011086,182.434263 C629.554998,186.57542 631.117539,190.70966 632.689395,194.839288 C634.263579,198.980445 635.053,203.243808 634.959853,207.682409 C634.889993,210.963515 634.922594,214.249233 634.990126,217.530339 C635.055329,220.590092 634.799175,223.606035 634.17509,226.58278 Z M515.967022,230.610718 C515.944995,230.749706 515.947198,230.881625 515.936185,231.015901 C514.819431,231.691991 513.788581,232.184335 512.863459,231.92285 C512.134375,232.231449 511.530844,232.403416 511,232.5 C511.013216,231.80742 511.015419,231.112485 511.048459,230.419906 C511.158592,228.111307 511.370049,225.793286 511.7423,223.517668 C512.000012,221.946408 512.590328,220.43404 513.063902,218.907538 C513.367871,217.927562 513.715893,216.96172 514.074928,216.002945 C514.26656,215.487044 514.526475,214.999411 514.753351,214.5 C514.830444,214.518846 514.907537,214.537691 514.984631,214.554181 C515.048508,214.949941 515.147629,215.340989 515.171858,215.736749 C515.444989,220.323322 515.709309,224.907538 515.971427,229.494111 C515.991251,229.866313 516.026494,230.247939 515.967022,230.610718 Z M435.296719,90.7374118 C433.918452,91.8592353 432.718632,91.9303529 431.218271,90.976 C430.844941,90.7374118 430.478656,90.4919412 429.858788,90.0858824 C430.002015,90.625 430.086542,90.8039412 430.08889,90.9851765 C430.091238,91.444 430.215681,92.1804118 429.999667,92.2997059 C429.605206,92.5153529 428.933682,92.5153529 428.499305,92.3318235 C427.907613,92.0817647 427.426277,91.5793529 426.834585,91.1365882 C426.834585,91.8248235 426.834585,92.4602941 426.834585,93.0865882 C425.538497,93.121 425.273175,91.8271176 424.317546,91.3843529 C424.404421,92.2285882 424.477209,92.9466471 424.55704,93.7358235 C423.17173,93.5706471 423.272693,92.1345294 422.241928,91.7353529 C422.340543,92.7080588 422.432115,93.5867059 422.549514,94.7337647 C421.70424,94.2336471 421.124288,93.8895294 420.464504,93.4972353 C420.549032,94.2198824 420.614775,94.7750588 420.699303,95.5 C419.694365,95.2109412 419.151981,94.7612941 418.811524,93.9858824 C418.520374,93.3205882 418.102432,92.7080588 417.740843,92.0725882 C417.578832,93.2448824 418.367755,94.174 418.226876,95.3875882 C416.874437,94.6878824 416.026815,93.7702353 415.524346,92.4717647 C414.493581,89.806 414.035724,87.0599412 414.000504,84.2198235 C413.977025,82.4808824 414.772991,81.3728235 416.418928,80.7992941 C416.604419,80.7327647 416.789909,80.6639412 416.9754,80.5928235 C419.626274,79.5650588 419.61923,79.5696471 420.581903,82.1184118 C420.790874,82.6667059 421.100808,83.1782941 421.363782,83.7059412 C421.457701,83.6715294 421.551621,83.6348235 421.64554,83.5981176 C421.568057,83.0773529 421.495269,82.5588824 421.410742,82.0404118 C420.948189,79.1521176 420.776786,76.2523529 421.154811,73.3457059 C421.450657,71.0882941 421.774679,68.8308824 422.194968,66.5918235 C422.716221,63.832 423.331393,61.0859412 423.953608,58.3444706 C424.108575,57.6608235 424.268238,56.9083529 425.181604,56.5 C425.280219,56.9221176 425.411706,57.2777059 425.439882,57.6401765 C425.496234,58.3169412 425.46571,58.9982941 425.519714,59.6750588 C425.667637,61.6067059 425.740424,63.5498235 426.026878,65.4631176 C426.698401,69.9366471 428.91255,73.5659412 432.601233,76.3097059 C434.956261,78.0624118 436.696117,80.251 437.607135,83.0177059 C438.5792,85.9702353 437.724534,88.7621765 435.296719,90.7374118 Z M802.872703,245.696855 C797.832021,240.471958 791.451645,237.209877 791.263578,235.256341 C792.631133,232.105625 775.923279,234.504624 775.010802,235.256341 C774.260852,236.488321 771.200686,237.977835 767.149102,238.112401 C762.547244,238.49522 748.156572,242.321089 753.341207,232.850382 C743.93085,236.46976 733.505855,245.070424 737.02342,241.344321 C726.493943,251.202487 724.650414,249.139905 733.217949,230.616112 C721.773673,248.808129 719.920856,250.917113 726.076015,230.736758 C717.993741,250.580696 716.779427,249.805778 713.09469,228.381842 C713.619423,249.390477 712.031294,247.534386 703.475368,228.179992 C710.159903,247.689833 708.690188,246.367368 697.812437,228.982751 C706.542499,246.081994 701.30214,242.014834 692.351504,227.495558 C697.77761,236.590406 693.914092,235.393227 687.313144,231.147418 C687.310822,230.212412 687.289925,229.279726 687.266707,228.34472 C687.173834,224.862228 687.916818,221.549105 689.24258,218.345027 C690.937513,214.256986 693.048052,210.412556 695.801736,206.930065 C696.739754,205.746806 697.673127,204.561228 698.548455,203.331567 C699.697759,201.719088 700.635776,199.965081 700.696144,197.951222 C700.795982,194.610257 700.043711,191.554667 697.255199,189.329677 C696.844236,189.002541 696.44256,188.626682 696.156976,188.192821 C693.150212,183.629156 691.253281,178.696593 691.55744,173.142239 C691.787301,168.954433 693.094488,165.072881 696.052493,162.031212 C701.162831,156.776153 703.814355,150.351756 705.476782,143.393733 C705.74147,142.284718 705.973652,141.166423 706.233697,140.055088 C706.284777,139.832357 706.393903,139.621227 706.55643,139.192006 C707.078841,140.574794 707.106703,141.827656 707.171714,143.038755 C707.54785,150.094223 706.91167,157.036005 704.849889,163.83162 C704.357662,165.45338 704.157985,167.181865 703.972239,168.875549 C703.709873,171.265267 703.577529,173.668905 703.408036,176.065583 C703.382495,176.415921 703.447507,176.768578 703.491621,177.439091 C704.141732,176.773218 704.594488,176.309195 705.209772,175.678124 C705.34676,176.21175 705.495356,176.60385 705.546437,177.00755 C705.876136,179.678001 706.180295,182.350773 706.500707,185.021225 C706.533212,185.285718 706.591258,185.550211 706.649303,185.870387 C707.322633,185.712619 707.297093,185.195233 707.392288,184.805454 C707.670907,183.656997 707.896124,182.49694 708.163133,181.346164 C708.330305,180.631568 708.541591,179.928574 708.71805,179.216299 C708.936301,178.336975 709.40531,177.701264 710.248132,177.283643 C711.571573,176.627051 712.477085,175.552838 713.14577,174.235013 C714.668888,171.230465 715.247022,168.005506 715.539572,164.694703 C715.892489,160.738908 715.483848,156.787753 715.551181,152.836598 C715.634767,147.848352 715.133253,142.899549 714.782657,137.941464 C714.459923,133.380119 713.498688,128.916219 712.53513,124.449999 C711.754997,120.846862 710.494246,117.408452 709.217242,113.977003 C707.538562,109.469021 705.126186,105.362418 701.896527,101.782482 C700.891177,100.668827 699.632748,99.7895037 698.548455,98.7431322 C695.973551,96.2536495 692.952857,94.4045183 689.9043,92.5855487 C688.643549,91.8338316 687.424591,91.0009106 686.122047,90.3327176 C684.023117,89.2538645 681.873107,88.2770963 679.734706,87.2724868 C679.221583,87.0288748 678.657379,86.8873478 678.1489,86.6321352 C674.998183,85.0706983 671.689582,83.9384825 668.327579,82.9269126 C666.45851,82.3631248 664.635877,81.636929 662.801635,80.9571355 C659.462851,79.7158744 655.952251,79.1358458 652.529881,78.2217207 C649.597416,77.4375221 646.586008,77.2031905 643.602463,76.7716492 C642.028266,76.544278 640.444781,76.3122666 638.858974,76.258904 C635.153341,76.1359379 631.440743,76.1846603 627.732788,76.0384931 C625.376136,75.9433684 623.024127,75.651034 620.67444,75.4051019 C612.192812,74.5164981 604.054815,72.1082194 595.898243,69.7927453 C592.842722,68.9227024 589.826671,67.9157727 586.792045,66.966846 C586.487886,66.8717213 586.195336,66.7371547 585.763477,66.5701064 C586.109429,66.3334548 586.360186,66.1664065 586.713103,65.9274347 C586.418231,65.6049389 586.141934,65.2801228 585.837775,64.978508 C585.357157,64.5028845 584.718655,64.1780685 584.665253,63.3521078 C584.651322,63.1084958 584.261256,62.8718441 584.015142,62.665354 C582.231981,61.1712003 580.439532,59.6909674 578.65637,58.1968137 C578.129316,57.755992 577.62548,57.2873289 577.070563,56.7954646 C577.699778,55.827977 577.260953,55.2247472 576.548153,54.5820756 C574.154351,52.4150887 571.669998,50.3849887 568.86059,48.7562684 C567.595195,48.0231123 566.43196,47.1066671 565.27337,46.211103 C564.342318,45.4895474 563.624874,44.5800626 562.930648,43.6009743 C561.623461,41.7541633 560.362709,39.8099075 558.259136,38.6776917 C557.697254,38.3760768 557.235211,37.8842125 556.677973,37.4410707 C556.900868,37.1371357 557.084292,36.8865634 557.281647,36.6174301 C557.207349,36.5153451 557.153947,36.4039796 557.06804,36.3297359 C555.537957,34.9631886 553.854634,33.8309728 552.006461,32.9284483 C550.21169,32.0537652 548.435494,31.1396401 546.65001,30.2394358 C546.092772,29.9587019 545.586614,29.6524468 545.558752,28.90537 C545.537856,28.3879845 545.11064,28.1629334 544.674137,28.0005254 C541.242479,26.715182 537.878155,25.2419094 534.295578,24.3881073 C533.917121,24.2976229 533.55956,24.1050534 533.19039,23.9565661 C533.255401,23.4925432 533.306481,23.1398858 533.380779,22.61554 C530.715324,22.3092849 528.112558,22.3603274 525.437815,22.961237 C525.340299,22.4856136 525.256713,22.0703131 525.145265,21.5181259 C524.657682,21.5181259 524.144559,21.4717236 523.640723,21.5274064 C522.628407,21.641092 521.623057,21.8151005 520.613063,21.9519873 C520.332122,21.9914292 519.990814,22.0958344 519.77024,21.986789 C518.846154,21.5274064 518.117101,21.9566275 517.371795,22.3974492 C514.597214,24.03545 511.815667,25.6641702 509.050374,27.3160917 C508.070563,27.9030806 507.104684,28.2673385 505.920553,27.9123611 C505.511912,27.7917151 504.959318,27.9796444 504.522814,28.1536529 C503.958611,28.378704 503.452453,28.742962 502.909146,29.0190556 C502.491217,29.2325061 502.054714,29.4018745 501.627498,29.5921238 C501.555522,29.5294808 501.478902,29.4668377 501.404603,29.4041946 C501.706441,28.5179109 502.003634,27.6293071 502.305471,26.7407033 C502.242782,26.6850206 502.177771,26.6293378 502.11276,26.5736551 C501.576418,26.8915107 501.009893,27.1722446 500.506057,27.5411428 C499.054916,28.5967948 497.636281,29.696529 496.192106,30.7637816 C495.776499,31.0700367 495.3191,31.3159688 494.740965,31.6779067 C494.685241,31.0120338 494.64577,30.5155294 494.587725,29.8241353 C494.128003,30.0515065 493.747224,30.1675122 493.463961,30.3995236 C492.834747,30.9169091 492.27983,31.5270992 491.64365,32.0328841 C491.107309,32.4574651 490.494347,32.7822811 489.918534,33.1558195 C489.547042,33.3947913 489.15001,33.6059217 488.811024,33.8866555 C487.810317,34.707976 486.830507,35.5571379 485.602261,36.6011893 C485.662629,35.7798688 485.7021,35.2578431 485.760145,34.485245 C483.561377,35.6105005 482.156673,37.5129943 480.141328,38.6382497 C479.293862,37.9352551 478.592671,38.3041532 477.861296,38.8841818 C476.646982,39.8447092 475.386231,40.7495538 474.13941,41.6706392 C473.496265,42.1462626 472.818292,42.3782741 471.968504,42.2738689 C471.499495,42.215866 470.939935,42.4339568 470.498789,42.6706085 C468.165354,43.9281104 465.864426,45.2459354 463.530991,46.5057575 C462.94357,46.821293 462.279528,46.9976217 461.650313,47.2389136 C461.580658,47.1553895 461.511003,47.0695453 461.439027,46.9860212 C461.74783,46.5521598 462.007874,46.0742162 462.372401,45.6960376 C463.556531,44.4594166 464.789421,43.2668779 465.980517,42.0372172 C466.396124,41.6103162 466.746719,41.1254123 467.127498,40.6660297 C467.069453,40.5825055 467.009085,40.4989814 466.95104,40.4131372 C466.428629,40.6590693 465.887644,40.87484 465.383808,41.1578939 C462.574399,42.7332515 459.799818,44.3758925 456.957904,45.8909272 C455.418534,46.7122477 453.781647,47.3665199 452.154048,48.0115117 C451.436604,48.2945657 450.823642,48.605461 450.47769,49.4592631 C447.120331,48.7980305 443.860489,49.7887193 440.472946,50.1924192 C440.38936,49.7330366 440.326671,49.4267815 440.280234,49.1182063 C440.138603,48.2133617 439.876237,47.9952709 438.970725,48.1576789 C438.369372,48.2644042 437.788916,48.4824949 437.187563,48.5915403 C436.723198,48.6773845 436.24258,48.6704242 435.715526,48.707546 C435.808399,47.9859904 435.885019,47.3990015 435.961639,46.8305735 C434.673026,46.4570351 430.089744,47.814302 426.820614,49.4894245 C424.71704,48.0277525 422.318595,48.6333024 419.992126,48.7145064 C419.186453,48.7423477 418.366848,48.9233166 417.593681,49.1646085 C416.279528,49.5752688 414.960731,49.5915096 413.602463,49.5659883 C411.647486,49.5311866 409.690188,49.6286314 407.732889,49.6866343 C406.917929,49.7121555 406.10529,49.8142406 405.290329,49.8304814 C404.261761,49.8490423 403.254088,49.9372066 402.30214,50.3594674 C402.190693,50.4081898 402.072279,50.4685128 401.956188,50.4777933 C399.476479,50.6494817 397.567939,52.1227543 395.55956,53.3315339 C394.445084,54.0043671 393.421159,54.8303278 392.364728,55.5959655 C391.340804,56.336082 390.676762,57.3128502 390.275086,58.52627 C389.58086,60.6236533 388.993438,62.7303172 388.900565,64.9576269 C388.872703,65.6002986 388.700888,66.2429703 388.570866,66.8810017 C388.06703,69.3148017 387.549263,71.7416413 387.050071,74.1754413 C386.987381,74.4793763 387.015243,74.8018722 386.996669,75.1684502 C387.442459,75.1684502 387.795377,75.1684502 388.3085,75.1684502 C388.032203,77.9270662 387.015243,80.5279144 386.694831,83.4118165 C387.166162,83.1682045 387.528367,82.9779551 387.999697,82.7343431 C388.106501,83.1194821 388.204018,83.4721395 388.364224,84.0428876 C389.10953,83.4373378 389.738744,82.9269126 390.583889,82.2401588 C390.532808,83.0498787 390.544418,83.6067061 390.456188,84.1449727 C390.119524,86.2261152 389.28831,88.1239688 388.252776,89.9429384 C386.423178,93.1516566 384.96275,96.5135023 384.373006,100.179283 C384.003836,102.469236 383.65324,104.78471 383.590551,107.095544 C383.488391,111.044378 383.597517,115.000173 383.657884,118.953648 C383.678781,120.19955 383.530184,121.394409 383.021704,122.531265 C381.621643,125.656459 380.312134,128.823415 378.779729,131.883646 C377.528266,134.382409 377.314658,136.941495 377.71169,139.614267 C378.138906,142.498169 379.074601,145.231263 380.284272,147.873874 C381.024934,149.493314 382.216031,150.681212 383.734504,151.567496 C385.62447,152.66955 387.679285,153.340063 389.803755,153.766964 C391.640319,154.138182 393.137896,154.982704 394.377751,156.388693 C395.645467,157.824844 396.989804,159.196032 398.317888,160.57882 C399.518272,161.829362 400.219463,163.302634 400.440036,165.019519 C400.799919,167.787415 401.698466,170.411465 402.643448,173.019273 C402.812942,173.492576 403.151928,173.907877 403.444478,174.404381 C403.985463,174.042444 404.408036,173.729228 404.860791,173.460095 C405.701292,172.95663 406.10529,173.044794 406.516253,173.924118 C406.980618,174.919447 407.359075,175.954218 407.765395,176.977388 C407.992934,177.550456 408.2553,178.03768 408.833434,178.401938 C409.181708,178.617709 409.314052,179.197738 409.518373,179.624639 C409.757521,180.118823 409.697153,180.856619 410.393701,180.974945 C411.050777,181.088631 411.415304,180.513242 411.751969,180.077061 C412.820008,178.689633 413.841611,177.265082 414.881789,175.856773 C415.18827,175.439152 415.499394,175.021532 415.778013,174.643353 C415.975368,174.687435 416.079851,174.678155 416.126287,174.724557 C417.178074,175.80573 417.907127,175.766289 419.040178,174.38582 C419.7553,173.513457 420.177872,172.515808 420.410055,171.418394 C420.802443,169.585504 421.257521,167.766534 421.605794,165.924363 C422.104987,163.288714 423.465576,161.163489 425.371795,159.3538 C427.54038,157.291218 427.763275,157.175212 430.579649,157.93389 C431.011508,158.049895 431.452655,158.14502 431.889158,158.242465 C433.122047,158.518558 434.125076,159.140349 434.981829,160.089276 C437.359378,162.722606 439.77872,165.318814 442.191096,167.921982 C442.544014,168.304801 442.950333,168.636577 443.347365,169.005475 C443.663133,168.810586 443.902281,168.664418 443.981224,168.613376 C444.858873,168.831467 445.611145,169.014756 446.365738,169.200365 C446.428427,169.119161 446.491116,169.035637 446.556128,168.952113 C448.151221,171.873137 449.748637,174.78952 451.366949,177.749986 C452.527862,177.060912 452.174944,175.659563 453.071169,174.750078 C453.405512,175.18394 453.751464,175.557478 454.009186,175.982059 C455.091157,177.759267 456.145265,179.552715 457.215627,181.332243 C457.46174,181.742903 457.745003,182.130362 458.081668,182.629187 C458.703917,181.432008 458.139713,180.097942 459.066122,179.021409 C459.472441,179.316063 459.911266,179.585197 460.292045,179.921613 C461.211488,180.731333 462.096103,181.573535 463.003937,182.397175 C463.951242,183.257938 463.953563,183.253298 465.207349,182.954003 C467.013729,185.042106 468.409146,187.501427 470.285181,189.575609 C470.380376,189.552408 470.47557,189.529207 470.570765,189.503686 C470.621845,188.849413 470.672925,188.190501 470.733293,187.438784 C471.54361,187.902807 471.83616,188.728767 472.298203,189.39696 C472.806683,190.137077 473.250151,190.918955 473.7447,191.666032 C474.213709,192.378307 474.712901,193.069701 475.230668,193.816778 C475.481425,193.679891 475.671815,193.575486 475.978296,193.408438 C477.027761,195.788875 478.07026,198.148432 479.149909,200.593832 C479.871997,200.069486 479.948617,199.408254 480.129719,198.807344 C480.310822,198.194834 480.464062,197.575363 480.686957,196.740122 C481.028266,197.204145 481.246517,197.436157 481.388149,197.70761 C482.061478,199.009194 482.739451,200.310778 483.3617,201.637884 C483.575308,202.094946 483.761054,202.468485 484.276499,202.686575 C485.307389,203.118117 485.695134,204.099525 486.082879,205.048452 C487.756915,209.162015 489.433273,213.275577 491.091056,217.39842 C492.033717,219.741736 492.918332,222.108253 493.863315,224.451568 C494.360186,225.685869 494.262669,226.811124 493.540581,227.9387 C492.881183,228.968831 492.31698,230.056964 491.701696,231.114937 C490.865839,232.558048 490.805471,234.015079 491.474157,235.560276 C492.251969,237.353724 492.231072,238.427937 491.290733,239.639037 C487.406319,239.622796 482.96699,238.717951 479.279931,238.005676 C479.115082,241.652896 464.05108,244.919617 463.089845,244.924257 C455.000606,249.476322 459.549061,242.968401 454.59893,242.216684 C455.634464,241.351281 451.96598,241.467287 448.234807,244.279265 C440.322027,247.346457 439.402584,247.107485 432.325661,249.434559 C432.748233,251.610827 429.848274,251.524983 425.710781,251.775555 C421.568645,252.026127 408.89148,260.387819 411.645165,256.13737 C403.066021,265.840088 390.56067,278.496312 401.928326,261.308905 C387.440137,279.05778 382.947406,284.644615 390.964668,262.84018 C381.575207,284.046025 380.674339,285.690986 384.122249,263.025789 C379.657379,286.530868 379.132647,288.753537 376.717949,267.10223 C377.802241,279.519482 367.244902,285.537859 355.443065,289.301084 L352.438623,286.298856 L350.116798,286.298856 L340.829497,281.658628 L331.542197,274.698285 L324.576721,270.058056 L310.64577,270.058056 L299.036644,274.698285 L289.749344,270.058056 L280.462043,272.37817 C280.462043,272.37817 278.140218,274.698285 275.818393,277.018399 C273.496568,279.338513 259.565617,307.179886 245.634666,283.978742 C247.956491,297.899428 237.772966,282.561152 236.347365,279.338513 C238.66919,297.899428 230.677468,295.164013 227.060065,286.298856 C229.291339,296.71849 232.079851,301.131348 221.397133,299.3495 C224.359782,304.574397 219.525742,306.340004 214.241268,308.068489 C213.177872,308.416507 212.09358,308.759884 211,309.10326 C227.064708,309.356153 243.24783,309.5 259.565617,309.5 C474.880073,309.5 669.474561,287.168899 809,251.207127 C807.147184,249.538965 805.022714,247.629511 802.872703,245.696855 L802.872703,245.696855 Z" id="Fill-60" fill="#17A3AC" transform="translate(510.000000, 165.500000) rotate(4.000000) translate(-510.000000, -165.500000) "></path>
            </g>
            <g id="Group-14" transform="translate(-87.000000, 966.500000)" fill="#17A3AC">
                <path d="M761.235543,295.214223 C761.124935,295.337916 761.014327,295.450491 760.892795,295.563065 C751.627688,286.644658 742.361215,277.715132 732.653676,268.356155 C733.457972,272.820223 734.15166,276.701961 734.846714,280.592037 C734.736106,280.612885 734.614574,280.64346 734.503967,280.674036 C732.672793,275.635977 730.873028,270.588189 729.011813,265.561248 C728.618541,264.516111 728.105102,263.482093 727.461939,262.570378 C721.696679,254.378841 715.89182,246.208151 710.096519,238.037461 C709.654088,237.412046 709.252623,236.776904 709,236 C729.996359,257.66574 751.003641,279.33287 772,301 C765.521935,295.633946 759.031581,290.27901 752.553516,284.914345 C752.452467,285.006072 752.351418,285.108918 752.251734,285.200646 C755.249068,288.538968 758.247767,291.875901 761.235543,295.214223 Z M748.353453,212 C748.465377,212.759895 748.588355,213.254582 748.618755,213.761637 C748.882674,219.309005 749.106523,224.846755 749.42295,230.384505 C749.483748,231.406859 749.758722,232.470437 750.185692,233.392479 C754.644694,243.162554 759.164495,252.901024 763.66495,262.650487 C764.010395,263.399388 764.306096,264.159283 764.306096,265.100563 C763.135728,263.267472 761.965361,261.426136 760.78394,259.593044 C760.681688,259.643887 760.580818,259.69473 760.478567,259.744199 C762.688032,264.412123 764.896115,269.078674 767.105581,273.746599 C767.003329,273.797441 766.902459,273.848284 766.800207,273.897753 C765.618786,272.024812 764.438746,270.162864 763.247653,268.289922 C763.105329,268.360003 762.961624,268.420465 762.819301,268.49192 C764.87677,273.229925 766.932858,277.96793 769,282.716929 C768.857677,282.807622 768.715353,282.907933 768.571648,283 C755.205697,269.18036 741.828691,255.3511 728.288635,241.359693 C730.547844,238.31187 732.666112,235.446806 734.794052,232.581741 C734.712527,232.48143 734.640675,232.379744 734.55915,232.278058 C732.442264,233.564245 730.314323,234.850433 728.196056,236.135246 C728.095186,236.044553 728.003988,235.942867 727.911409,235.841181 C730.934742,232.349513 733.96913,228.856471 736.992463,225.35381 C736.92061,225.252124 736.85014,225.151812 736.778287,225.050127 C732.941086,227.630746 729.102503,230.223732 725.274974,232.804351 C725.183777,232.693046 725.091197,232.581741 725,232.460818 C732.706183,225.708336 740.412367,218.954479 748.353453,212 Z M665.348256,226.600265 C658.764678,230.798108 652.193488,235.024921 645.57137,239.162065 C644.172893,240.036673 643.35115,241.103033 642.803321,242.657739 C634.093123,267.579931 625.320984,292.470394 616.568115,317.370514 C616.294201,318.154075 615.980369,318.936256 615.260484,319.587384 C620.817228,299.798341 626.375347,280.009298 631.932091,260.221635 C631.779304,260.170593 631.627894,260.119551 631.475108,260.079546 C623.972059,280.385904 616.466258,300.693642 608.963209,321 C608.840704,320.928266 608.719577,320.857911 608.597072,320.786176 C612.135934,308.529247 615.665162,296.261282 619.2054,284.004354 C619.073261,283.953312 618.941121,283.911926 618.808982,283.862264 C613.688574,295.804665 608.56679,307.756723 603.445006,319.699124 C603.333513,319.659118 603.222021,319.62739 603.110528,319.587384 C604.378242,313.702402 605.647332,307.817421 606.904034,301.943476 C606.792541,301.892434 606.681049,301.841392 606.568179,301.790351 C604.246102,306.293065 601.924025,310.805436 599.511102,315.491624 C599.084401,314.779798 598.740288,314.261103 598.436091,313.712059 C592.949547,303.793396 587.493285,293.852661 581.936542,283.974004 C581.19601,282.652436 581.347419,281.768171 582.098963,280.579035 C589.339109,269.073938 596.539338,257.538492 603.739567,246.012702 C604.134609,245.382267 604.480099,244.732519 604.470464,243.827561 C598.06032,251.856298 591.641916,259.875378 585.233148,267.904115 C585.089997,267.822724 584.957857,267.731677 584.827094,267.650286 C587.544214,263.198613 590.272345,258.746941 592.522847,255.058136 C589.522178,257.74128 585.881458,260.973467 582.280655,264.184962 C583.55938,261.939122 584.878023,259.5912 586.195289,257.252934 C586.093432,257.171543 586.002586,257.080495 585.902105,256.999104 C584.411405,258.208933 582.920706,259.428418 581.246938,260.780336 C580.302691,258.157891 579.401114,255.677536 578.41695,252.933694 C572.302743,257.588154 566.308287,262.14191 560.315208,266.705323 C560.214727,266.593583 560.103234,266.481842 560,266.370102 C562.13075,263.616604 564.260124,260.85207 566.400509,258.106849 C580.608264,239.873891 594.795372,221.639554 609.033408,203.436946 C609.966644,202.24781 611.111853,201.109716 612.390578,200.327535 C615.687185,198.314832 618.342364,195.711701 620.756664,192.71403 C627.389794,184.481126 634.163322,176.370998 640.876286,168.209829 C641.271329,167.732519 641.707664,167.284179 642.42755,167 C639.872852,172.428364 637.307142,177.865005 634.751068,183.29199 C634.86256,183.373381 634.974053,183.454772 635.085546,183.547199 C638.807477,179.256929 642.530784,174.968038 646.372466,170.527402 C652.315993,177.113173 658.167297,183.596861 664.018601,190.081928 C663.91812,190.172976 663.825898,190.265403 663.735052,190.356451 C659.009687,186.310353 654.284321,182.276672 649.557579,178.230575 C649.455722,178.332659 649.344229,178.434742 649.242372,178.535446 C654.728916,184.969472 660.205825,191.403497 665.692369,197.836143 C665.569865,197.978232 665.458372,198.121701 665.337244,198.263791 C660.905063,194.666034 656.464624,191.068277 652.032443,187.480176 C651.92095,187.591916 651.819093,187.703657 651.7076,187.815397 C656.321473,193.537596 660.936722,199.259795 665.569865,204.991651 C661.57402,211.272551 657.64975,217.432055 653.725481,223.591558 C653.846609,223.693642 653.978749,223.794346 654.110888,223.886773 C657.143215,219.963452 660.165908,216.040131 663.196859,212.11681 C663.328998,212.198201 663.461138,212.268556 663.582266,212.349947 C660.905063,217.045793 658.218226,221.741638 655.541023,226.437483 C655.641505,226.498182 655.743362,226.569916 655.84522,226.640271 C658.137015,223.936435 660.438446,221.232599 662.741252,218.520487 C662.852745,218.590841 662.964238,218.65154 663.075731,218.712238 C661.717171,221.406417 660.3476,224.099217 658.786701,227.178279 C661.747453,226.458176 664.313162,225.827741 666.86786,225.206962 C666.909154,225.299389 666.950448,225.390437 667,225.471828 C666.452171,225.848433 665.915355,226.244352 665.348256,226.600265 Z M551.224222,258.266606 C551.12095,258.7798 550.772059,259.291629 550.410608,259.694268 C541.897663,269.186988 533.365181,278.659236 524.829908,288.132848 C524.665231,288.323931 524.439149,288.474067 523.956284,288.474067 C526.536683,283.194722 529.128247,277.916742 531.708646,272.626479 C531.585836,272.55687 531.472795,272.49545 531.34859,272.425842 C525.025287,281.154231 518.692214,289.871702 512.368911,298.601456 C512.244706,298.530482 512.121896,298.470428 511.999086,298.399454 C514.619957,293.582803 517.251991,288.766151 519.884026,283.9495 C519.71935,283.859418 519.565838,283.769336 519.412326,283.668335 C514.671592,289.66151 509.932255,295.66424 504.913804,302 C503.670356,297.736124 502.611123,293.813467 501.35651,289.952229 C500.770373,288.102821 500.904347,286.544131 501.777971,284.784804 C506.250755,275.773885 510.60073,266.704277 514.619957,257.432666 C510.570028,263.375341 506.528473,269.318016 502.477148,275.251137 C502.333405,275.181529 502.189662,275.110555 502.045919,275.030027 C508.501801,262.399454 514.94931,249.768881 521.406587,237.139672 C521.282382,237.079618 521.169341,237.019563 521.056301,236.958144 C514.87674,246.621474 508.69718,256.276615 502.519015,265.939945 C502.385041,265.859418 502.251067,265.788444 502.107324,265.71747 C510.456987,250.905823 518.805255,236.092812 527.318199,221 C528.212756,222.095996 528.96357,223.00091 529.704615,223.905823 C532.685541,227.55687 535.821375,231.105551 538.608317,234.887625 C540.90123,238.014559 543.665844,240.216106 547.429682,241.373521 C549.640256,242.057325 551.747559,243.091902 554,244.007734 C553.064972,248.844859 552.170415,253.56051 551.224222,258.266606 Z M781.655567,339.415654 C781.696727,338.384972 782.026013,337.366642 782.639306,336.488299 C783.333549,335.496044 784.314544,334.781018 785.419021,334.414583 C785.317491,333.982274 785.215962,333.529378 785.114432,333.055895 C784.518975,330.275388 786.146192,327.498998 788.864166,326.661826 C789.400626,326.495764 789.945319,326.416164 790.480407,326.416164 C790.538032,326.416164 790.595657,326.417537 790.653281,326.418909 C791.132117,324.566152 792.563135,323.037285 794.503173,322.500672 C794.991612,322.364803 795.484168,322.298927 795.969863,322.298927 C797.922249,322.298927 799.766246,323.348823 800.747241,325.090414 C800.983229,325.060221 801.220588,325.045124 801.455204,325.045124 C803.338989,325.045124 805.147313,326.018165 806.162608,327.710349 C807.616951,330.135402 808.541693,330.479877 808.549925,330.482622 C808.923115,330.405767 810.415874,329.708582 813.785558,324.681435 C814.422176,323.731726 814.843386,323.105906 815.411403,322.536355 L816,321.94759 C812.921185,313.60195 799.502818,277.20283 797.642357,271.757097 C797.207426,270.493106 796.42949,269.219507 795.480052,268.279404 C790.02078,262.818576 784.450374,257.489499 778.971894,252.050628 C778.214538,251.302664 777.466786,250.291196 777.233543,249.279728 C774.74744,238.764304 769.561201,229.74481 762.63661,221.52406 C758.178913,216.225176 754.246701,210.481631 749.960507,204.76965 C749.334865,205.295284 748.808009,205.700146 748.314081,206.154414 C741.702311,212.231456 735.314181,218.581608 728.38959,224.283982 C724.670041,227.337599 720.03947,229.298776 715.784832,231.685401 C715.430851,231.877539 714.703679,231.664815 714.298933,231.412291 C713.105275,230.684913 711.973357,229.844996 710.84144,229.036646 C700.035401,221.311336 692.120211,210.745134 683.346136,201.047668 C669.689038,185.962111 656.082704,170.835382 642.457162,155.72924 C641.992047,155.213213 641.496747,154.717772 640.809365,154 C640.253696,154.708165 639.748793,155.314771 639.283677,155.95157 C631.357511,166.932242 623.494458,177.954085 615.487343,188.863391 C613.728412,191.260995 611.696448,193.596841 609.351664,195.396074 C604.206585,199.349994 600.406086,204.466347 596.353136,209.379583 C588.952454,218.359277 581.562748,227.358185 574.225179,236.398265 C573.204395,237.651278 572.142451,238.27847 570.515234,238.268863 C566.309989,238.257884 562.09514,238.440415 557.889895,238.380029 C556.948689,238.36905 555.867536,237.873609 555.119785,237.277982 C546.102862,230.119479 537.146308,222.908824 528.18015,215.709149 C527.584692,215.234295 526.978259,214.769047 526.209927,214.16244 C509.755278,242.468445 489.185937,278.041374 472,307.652543 C545.120495,328.1605 647.143986,341.971086 761.894346,345 C767.743273,343.530146 775.004008,341.593673 781.198684,339.566619 C781.313934,339.529564 781.47446,339.477413 781.655567,339.415654 L781.655567,339.415654 Z" id="Fill-57-Copy" transform="translate(644.000000, 249.500000) scale(-1, 1) translate(-644.000000, -249.500000) "></path>
                <path d="M482.059238,234.475721 C481.874892,234.679339 481.690545,234.864654 481.487992,235.049969 C466.046146,220.368898 450.602024,205.669525 434.422793,190.263209 C435.763287,197.611751 436.919434,204.001689 438.077857,210.405354 C437.89351,210.439672 437.690957,210.490004 437.506611,210.540337 C434.454656,202.246916 431.455046,193.93748 428.353022,185.662362 C427.697568,183.941906 426.841837,182.239753 425.769898,180.73893 C416.161132,167.254399 406.486366,153.804187 396.827532,140.353974 C396.090147,139.324446 395.421038,138.278903 395,137 C429.993931,172.665141 465.006069,208.332571 500,244 C489.203225,235.166649 478.385968,226.3516 467.589193,217.520537 C467.420778,217.671535 467.252363,217.840835 467.086223,217.991832 C472.08178,223.487224 477.079612,228.980329 482.059238,234.475721 Z M460.745501,97 C460.931194,98.2629236 461.135226,99.08508 461.185661,99.9277904 C461.623528,109.147361 461.994913,118.350945 462.519894,127.55453 C462.620764,129.253653 463.076971,131.021289 463.785353,132.553698 C471.183243,148.791287 478.682002,164.976349 486.148667,181.179682 C486.721791,182.424336 487.212386,183.687259 487.212386,185.25164 C485.27064,182.205094 483.328895,179.144845 481.368809,176.098299 C481.199165,176.182798 481.031812,176.267298 480.862168,176.349513 C484.527871,184.107473 488.191282,191.863148 491.856986,199.621107 C491.687341,199.705607 491.519989,199.790106 491.350344,199.872322 C489.390258,196.759546 487.432466,193.665041 485.456333,190.552265 C485.220205,190.668738 484.981786,190.769223 484.745658,190.887979 C488.159187,198.762411 491.570424,206.636842 495,214.529544 C494.763873,214.680273 494.527746,214.846988 494.289326,215 C472.113997,192.032147 449.920328,169.048307 427.456144,145.794983 C431.204378,140.729586 434.718776,135.96793 438.249223,131.206275 C438.113965,131.03956 437.994756,130.870561 437.859498,130.701562 C434.347392,132.839169 430.816946,134.976775 427.302547,137.112098 C427.135195,136.961369 426.98389,136.792371 426.830292,136.623372 C431.846277,130.820318 436.880602,125.01498 441.896586,119.193656 C441.777377,119.024657 441.660459,118.857942 441.541249,118.688943 C435.174984,122.977859 428.806425,127.287329 422.456207,131.576245 C422.304902,131.39126 422.151305,131.206275 422,131.005303 C434.785259,119.782868 447.570518,108.558149 460.745501,97 Z M323.252238,121.075765 C312.300118,128.053998 301.368607,135.080388 290.352372,141.957719 C288.025934,143.411613 286.658923,145.184263 285.747582,147.768708 C271.257718,189.197807 256.664814,230.574162 242.103967,271.966569 C241.648297,273.269112 241.126222,274.569361 239.928656,275.651755 C249.172584,242.755684 258.418802,209.859613 267.66273,176.965835 C267.408562,176.880986 267.156684,176.796137 266.902516,176.729634 C254.420809,210.485658 241.934522,244.243976 229.452815,278 C229.249022,277.880753 229.04752,277.7638 228.843727,277.644553 C234.730807,257.269398 240.601858,236.875898 246.491227,216.500744 C246.271406,216.415895 246.051585,216.347099 245.831764,216.264543 C237.313703,236.116846 228.793352,255.985202 220.273001,275.837505 C220.087527,275.771002 219.902053,275.718258 219.716579,275.651755 C221.825486,265.868929 223.936683,256.086103 226.027272,246.321622 C225.841798,246.236774 225.656324,246.151925 225.46856,246.067076 C221.605665,253.552108 217.74277,261.053192 213.728749,268.84322 C213.01891,267.659924 212.44646,266.797678 211.940414,265.884981 C202.813265,249.396815 193.736493,232.871957 184.492565,216.450293 C183.260651,214.2534 183.51253,212.783453 184.762761,210.806708 C196.807116,191.681352 208.785067,172.505545 220.763018,153.345791 C221.420191,152.297795 221.994932,151.217694 221.978903,149.713349 C211.315298,163.05982 200.637954,176.39024 189.976639,189.736711 C189.7385,189.601412 189.518679,189.45006 189.301147,189.314761 C193.821215,181.914578 198.359602,174.514395 202.103427,168.382357 C197.11166,172.842647 191.055135,178.215633 185.065015,183.554222 C187.19224,179.820879 189.38587,175.917839 191.57721,172.030851 C191.407765,171.895552 191.256638,171.7442 191.089482,171.608901 C188.609627,173.620044 186.129773,175.64724 183.345374,177.894584 C181.77457,173.535195 180.27475,169.412007 178.637542,164.850816 C168.466245,172.5881 158.49416,180.157981 148.524365,187.743913 C148.357209,187.558163 148.171735,187.372413 148,187.186664 C151.544613,182.60942 155.086935,178.013831 158.647576,173.450347 C182.282906,143.141014 205.883889,112.829389 229.569595,82.5705072 C231.12208,80.5937618 233.027195,78.701865 235.15442,77.401616 C240.638494,74.0558253 245.055521,69.7285415 249.071833,64.7454001 C260.106386,51.0595338 271.374498,37.577763 282.54186,24.0111436 C283.199033,23.2176935 283.9249,22.4724009 285.122466,22 C280.872594,31.0237741 276.604405,40.0613075 272.352243,49.0827884 C272.537717,49.2180877 272.723191,49.353387 272.908665,49.5070319 C279.100288,42.3751545 285.294201,35.2455703 291.685037,27.8637333 C301.572399,38.811509 311.306345,49.5895874 321.04029,60.369959 C320.873135,60.5213107 320.719718,60.6749557 320.568591,60.8263074 C312.707703,54.1003279 304.846815,47.3949872 296.983637,40.6690076 C296.814192,40.8387051 296.628718,41.0084025 296.459272,41.1758067 C305.586421,51.8713295 314.69754,62.5668524 323.824689,73.2600821 C323.620896,73.4962825 323.435422,73.7347761 323.23392,73.9709766 C315.860759,67.9902897 308.47386,62.0096028 301.1007,56.0449684 C300.915226,56.2307182 300.745781,56.4164681 300.560307,56.602218 C308.235721,66.1144454 315.913425,75.6266729 323.620896,85.1549528 C316.973603,95.5959296 310.445379,105.835104 303.917156,116.074278 C304.118658,116.243976 304.338479,116.41138 304.5583,116.565025 C309.602732,110.043141 314.631136,103.521257 319.673279,96.999373 C319.8931,97.1346722 320.112921,97.2516258 320.314423,97.3869251 C315.860759,105.193006 311.391067,112.999086 306.937404,120.805167 C307.104559,120.906068 307.274004,121.025315 307.44345,121.142268 C311.255969,116.64758 315.084517,112.152892 318.915355,107.644445 C319.100828,107.761399 319.286302,107.8623 319.471776,107.963201 C317.211742,112.441837 314.93339,116.918179 312.336755,122.03662 C317.262118,120.839565 321.530308,119.791569 325.780179,118.759625 C325.848873,118.91327 325.917567,119.064622 326,119.199921 C325.088659,119.825967 324.195637,120.484118 323.252238,121.075765 Z M132.443534,172.571092 C132.274012,173.43275 131.701304,174.292117 131.107979,174.968153 C117.1339,190.906548 103.12775,206.810569 89.1170181,222.716881 C88.8466999,223.037711 88.475585,223.289792 87.6829569,223.289792 C91.9187063,214.425707 96.1727823,205.563913 100.408532,196.681495 C100.206938,196.564621 100.021381,196.461497 99.8174969,196.344623 C89.4377347,210.999697 79.0419365,225.636437 68.6621743,240.293802 C68.4582902,240.174637 68.2566969,240.073804 68.0551037,239.954639 C72.3572872,231.867422 76.6777974,223.780204 80.9983075,215.692987 C80.7279893,215.541738 80.4759977,215.39049 80.2240061,215.220908 C72.442048,225.283524 64.6623806,235.362181 56.4245468,246 C54.383415,238.840899 52.6446731,232.25471 50.5852146,225.771644 C49.623065,222.666464 49.8429849,220.049405 51.2770461,217.095474 C58.6191644,201.96603 65.7596894,186.738045 72.3572872,171.170896 C65.7092911,181.148721 59.0750401,191.126546 52.4247532,201.088329 C52.1887974,200.971456 51.9528417,200.85229 51.7168859,200.717083 C62.3142773,179.510194 72.8979237,158.303306 83.4976059,137.098709 C83.2937218,136.997877 83.1081643,136.897044 82.9226069,136.79392 C72.7788004,153.018771 62.6349938,169.229872 52.4934782,185.454723 C52.2735582,185.319516 52.0536383,185.20035 51.8176826,185.081185 C65.5237337,160.212247 79.227494,135.341017 93.2015725,110 C94.6699962,111.840191 95.9024641,113.359552 97.1188962,114.878913 C102.012115,121.009065 107.159615,126.967344 111.734408,133.317494 C115.498246,138.567654 120.036385,142.264078 126.21476,144.207394 C129.843439,145.355508 133.302596,147.092576 137,148.63027 C135.465142,156.751862 133.996719,164.669498 132.443534,172.571092 Z M516.692719,309.673265 C516.7614,307.951865 517.310847,306.251094 518.334191,304.784122 C519.492607,303.126901 521.1295,301.932694 522.972436,301.320692 C522.803023,300.598666 522.633611,299.842259 522.464198,299.051469 C521.470615,294.407585 524.185797,289.770577 528.721021,288.372369 C529.616161,288.09502 530.525037,287.962075 531.417888,287.962075 C531.514041,287.962075 531.610194,287.964368 531.706348,287.96666 C532.505335,284.872265 534.893138,282.318816 538.130294,281.422588 C538.945307,281.195666 539.767187,281.085643 540.577621,281.085643 C543.835381,281.085643 546.912282,282.839133 548.549175,285.747864 C548.942945,285.697437 549.339005,285.672223 549.730486,285.672223 C552.873778,285.672223 555.891156,287.297354 557.585283,290.123567 C560.012005,294.173786 561.555034,294.749114 561.568771,294.753699 C562.191477,294.625339 564.682301,293.460929 570.304972,285.064805 C571.367235,283.478641 572.070069,282.433424 573.017864,281.482184 L574,280.498854 C568.862674,266.560325 546.472725,205.768077 543.368352,196.672849 C542.642624,194.561784 541.344557,192.434674 539.760319,190.864555 C530.650952,181.744113 521.356147,172.843717 512.214729,163.75995 C510.951002,162.510731 509.7033,160.821421 509.314109,159.132111 C505.165787,141.569702 496.512003,126.50573 484.957599,112.775787 C477.519466,103.925818 470.958157,94.3331944 463.806194,84.7932903 C462.762245,85.6711815 461.883131,86.347364 461.058961,87.1060638 C450.026531,97.2556783 439.367267,107.861429 427.812863,117.385289 C421.606405,122.485309 413.879813,125.760783 406.780505,129.746822 C406.189849,130.067722 404.976488,129.71244 404.301127,129.290686 C402.309383,128.075849 400.42066,126.673057 398.531937,125.322984 C380.500931,112.420504 367.293609,94.7732861 352.653146,78.5769952 C329.864848,53.3817462 307.161256,28.1177329 284.425614,2.88810169 C283.64952,2.02625547 282.823061,1.19879141 281.676091,0 C280.7489,1.18274641 279.906415,2.19587414 279.130322,3.25942905 C265.904684,21.5988748 252.784357,40.0070848 239.423647,58.227339 C236.488687,62.2317149 233.098143,66.1329444 229.185626,69.1379454 C220.600522,75.7416128 214.258993,84.2867264 207.496221,92.4926026 C195.147409,107.490102 182.816911,122.519692 170.573409,137.618045 C168.870125,139.710773 167.098159,140.758283 164.382977,140.742238 C157.366086,140.723901 150.33317,141.028756 143.316279,140.927902 C141.745777,140.909564 139.941761,140.0821 138.694059,139.08731 C123.64838,127.131486 108.703432,115.08856 93.7424589,103.063972 C92.7488763,102.27089 91.7369788,101.493853 90.4549367,100.480725 C62.998632,147.756199 28.6765341,207.168577 0,256.62388 C122.009197,290.875391 292.24607,313.941238 483.719055,319 C493.4786,316.545114 505.593898,313.310898 515.930362,309.925401 C516.122668,309.863513 516.390523,309.776412 516.692719,309.673265 L516.692719,309.673265 Z" id="Fill-57"></path>
            </g>
            <rect id="Rectangle" fill="#17A3AC" x="0" y="1235.5" width="1440" height="258.5"></rect>
        </g>
    </g>
</svg>