<?xml version="1.0" encoding="UTF-8"?>
<svg width="698px" height="233px" viewBox="0 0 698 233" version="1.1" xmlns="http://www.w3.org/2000/svg" xmlns:xlink="http://www.w3.org/1999/xlink">
    <!-- Generator: Sketch 61 (89581) - https://sketch.com -->
    <title>BH_HACKINFEST_SINGLEPAGE_BUNBUN</title>
    <desc>Created with Sketch.</desc>
    <g id="Page-1" stroke="none" stroke-width="1" fill="none" fill-rule="evenodd">
        <g id="BH_HACKINFEST_SINGLEPAGE_BUNBUN" transform="translate(0.000000, -266.000000)">
            <path d="M543,547 C621.175746,547 678,495.89839 678,422.255718 C678,401.447594 675.441873,393.451681 623.852972,413.836074 C626.620391,415.075468 617.247101,413.979982 593.309837,437.613395 C593.309837,511.256067 614.627564,499.013919 543,547 Z" id="Oval" fill="#C95435"></path>
            <path d="M593.099424,444.416923 C599.271443,451.551671 605.102452,458.290116 612.350865,463.478549 C612.350865,463.478549 613.017266,463.95698 613.077138,464 C613.299705,463.882674 613.524876,463.766651 613.748745,463.649324 C616.491141,462.223157 619.082556,460.875207 621.085664,459.228727 C625.54092,455.555108 629.911573,451.439559 634.136452,447.458284 C635.987277,445.714032 637.840704,443.968476 639.712354,442.246385 C639.802162,442.162953 639.90889,442.082128 640,442 L591,442 C591.705448,442.809552 592.410896,443.620408 593.099424,444.416923" id="Fill-58" fill="#C95435"></path>
            <path d="M615.5,521 C619.643206,521 623,524.357812 623,528.499367 C623,532.642188 619.643206,536 615.5,536 C611.358058,536 608,532.642188 608,528.499367 C608,524.357812 611.358058,521 615.5,521 Z M590.499368,536 C586.357775,536 583,532.642188 583,528.499367 C583,524.357812 586.357775,521 590.499368,521 C594.642225,521 598,524.357812 598,528.499367 C598,532.642188 594.642225,536 590.499368,536 Z M565.500632,536 C561.357775,536 558,532.642188 558,528.499367 C558,524.357812 561.357775,521 565.500632,521 C569.642225,521 573,524.357812 573,528.499367 C573,532.642188 569.642225,536 565.500632,536 Z M500.499368,376 C496.357775,376 493,372.642188 493,368.500633 C493,364.357812 496.357775,361 500.499368,361 C504.642225,361 508,364.357812 508,368.500633 C508,372.642188 504.642225,376 500.499368,376 Z M475.500632,376 C471.359039,376 468,372.642188 468,368.500633 C468,364.357812 471.359039,361 475.500632,361 C479.642225,361 483,364.357812 483,368.500633 C483,372.642188 479.642225,376 475.500632,376 Z M450.5,376 C446.358058,376 443,372.642188 443,368.500633 C443,364.357812 446.358058,361 450.5,361 C454.641942,361 458,364.357812 458,368.500633 C458,372.642188 454.641942,376 450.5,376 Z M531.100647,288.109817 L563.44933,320.41592 L586.833363,320.41592 C587.654946,318.100497 589.841866,316.430746 592.438916,316.430746 C595.73451,316.430746 598.408294,319.104729 598.408294,322.400568 C598.408294,325.696407 595.73451,328.37039 592.438916,328.37039 C589.841866,328.37039 587.654946,326.700639 586.833363,324.385216 L561.807487,324.385216 L525.771601,288.398253 C498.224086,290.439794 472.860845,300.310111 451.89658,315.785074 L538.146947,315.785074 L574.582379,352.170291 L594.973785,352.170291 C596.275617,349.004115 599.387314,346.772048 603.022919,346.772048 C607.82938,346.772048 611.728262,350.67122 611.728262,355.478038 C611.728262,360.284855 607.82938,364.184027 603.022919,364.184027 C599.387314,364.184027 596.275617,361.95196 594.973785,358.785784 L571.843768,358.785784 L535.409659,322.400568 L443.592106,322.400568 C438.813429,326.50879 434.315227,330.931909 430.119993,335.631556 L531.514746,335.631556 L567.950178,372.016772 L627.425662,372.016772 C628.727495,368.850597 631.840515,366.618529 635.474797,366.618529 C640.282581,366.618529 644.18014,370.517701 644.18014,375.324519 C644.18014,380.131337 640.282581,384.030509 635.474797,384.030509 C631.840515,384.030509 628.727495,381.798441 627.425662,378.632266 L565.211567,378.632266 L528.777458,342.24705 L424.555453,342.24705 C418.850675,349.472492 413.831212,357.264221 409.598933,365.523003 L437.961416,393.847902 L500.430851,393.847902 C501.251111,391.532479 503.438031,389.862729 506.035081,389.862729 C509.330675,389.862729 512.004459,392.536711 512.004459,395.83255 C512.004459,399.128389 509.330675,401.802372 506.035081,401.802372 C503.438031,401.802372 501.251111,400.132621 500.430851,397.817198 L436.319573,397.817198 L407.748056,369.284573 C405.762232,373.460273 403.973535,377.748436 402.396519,382.135832 L431.346414,411.048186 L519.766502,411.048186 L537.296258,393.517127 L602.963384,393.517127 C603.783645,391.201704 605.970564,389.531954 608.567614,389.531954 C611.863208,389.531954 614.536992,392.205936 614.536992,395.501775 C614.536992,398.797615 611.863208,401.471597 608.567614,401.471597 C605.970564,401.471597 603.783645,399.801847 602.963384,397.486424 L538.939424,397.486424 L521.409669,415.017482 L429.704571,415.017482 L400.967678,386.31947 C399.377432,391.216259 398.0584,396.233449 397,401.345903 L401.495555,406.331339 C409.87544,415.627431 418.257971,424.920877 426.656378,434.202415 L523.186458,434.202415 L545.677466,411.709735 L574.058471,411.709735 C575.360303,408.54356 578.472,406.311492 582.107606,406.311492 C586.914066,406.311492 590.812948,410.210665 590.812948,415.017482 C590.812948,419.8243 586.914066,423.723472 582.107606,423.723472 C578.472,423.723472 575.360303,421.491405 574.058471,418.325229 L548.418723,418.325229 L525.927715,440.817909 L493.557864,440.817909 C494.798838,442.475751 496.014675,444.133594 497.218606,445.783498 C499.979708,449.564915 502.587342,453.135958 505.414593,456.497952 C509.305538,461.115567 512.504553,465.790075 515.044714,470.587631 L542.702038,470.587631 C544.005193,467.421456 547.11689,465.189388 550.752495,465.189388 C555.558956,465.189388 559.456515,469.08856 559.456515,473.895378 C559.456515,478.702196 555.558956,482.601368 550.752495,482.601368 C547.11689,482.601368 544.005193,480.3693 542.702038,477.203125 L518.081,477.203125 C519.153953,479.908862 520.050947,482.656938 520.740231,485.465877 C520.7442,485.468523 520.746846,485.472492 520.750815,485.475138 C523.154706,487.863332 525.56389,490.213155 527.970428,492.562979 C529.046027,493.612196 530.111043,494.674644 531.185319,495.726508 L567.63795,495.726508 C568.459533,493.411085 570.646453,491.741334 573.243503,491.741334 C576.539097,491.741334 579.212881,494.415317 579.212881,497.711156 C579.212881,501.006995 576.539097,503.680978 573.243503,503.680978 C570.646453,503.680978 568.459533,502.011227 567.63795,499.695804 L535.219147,499.695804 C535.711303,500.184027 536.210075,500.662989 536.700908,501.153859 C538.295123,502.730993 539.604894,504.826781 540.364296,507.028417 C542.033922,511.92256 553.727923,543.657084 557.475984,553.818483 L561.640789,552.777204 C562.064149,552.672679 562.494124,552.619755 562.924099,552.619755 C563.740391,552.619755 564.550067,552.808958 565.290947,553.178103 L568.456887,554.761852 L572.866448,552.998161 C573.490904,552.748096 574.157696,552.619755 574.831103,552.619755 L582.769106,552.619755 C583.814276,552.619755 584.835632,552.928037 585.704844,553.508877 L589.673845,556.155075 C589.754548,556.209322 589.835251,556.266215 589.913308,556.324432 L594.812379,560 C599.423035,557.92935 603.905361,555.623189 608.23951,553.092101 C609.043894,552.004514 610.253117,551.235794 611.676665,551.016159 C612.068273,550.772709 612.458559,550.529259 612.847521,550.281839 C613.429641,549.663952 614.153322,549.192929 614.957706,548.911109 C629.326814,539.415229 641.876796,527.393554 651.958059,513.466616 L648.921773,507.913571 L645.810076,505.010692 C645.50314,504.735487 645.208111,504.457637 644.932927,504.161262 C644.932927,504.161262 644.029318,503.184815 643.856005,502.998259 C643.852036,503.012813 643.848067,503.02869 643.845421,503.044567 C643.482919,504.746072 642.763206,506.263666 641.708775,507.549718 C640.503522,509.021004 639.19772,509.812217 638.001728,510.217085 C637.897211,510.356011 637.792694,510.493613 637.686854,510.631215 C635.650756,513.332983 633.101334,513.733882 631.761135,513.735205 L631.19886,513.735205 L630.551912,513.632003 C629.903642,513.51954 628.322657,513.127903 626.941444,511.851112 L625.573462,512.770666 L622.007976,506.721459 C621.779097,506.374807 621.361028,505.733104 621.032924,504.829427 C620.450804,503.221862 619.866038,501.50448 619.541903,499.567463 C619.025933,499.032932 618.513932,498.495753 618.01516,497.946667 C616.20265,497.528568 614.603142,496.905389 613.14255,496.053313 C611.032364,494.821508 609.468578,493.114711 608.493526,490.981875 C607.468201,488.735254 606.817285,486.614326 606.502411,484.496045 C606.056559,481.489965 606.471982,478.683672 607.738093,476.153908 C608.287138,475.058382 608.797816,473.892732 609.337601,472.656957 C609.496361,472.294428 609.655121,471.931899 609.815204,471.570693 L609.799328,470.598216 C609.76493,468.722062 609.731855,466.781076 609.784775,464.800397 C609.827111,463.096246 610.06922,461.484711 610.310006,459.980348 C610.435691,459.203689 610.605035,458.436292 610.82333,457.666248 L611.457047,451.943846 L611.729585,446.443725 C611.729585,446.220121 611.734877,445.608849 611.892314,444.85336 C612.055043,444.056854 612.827676,440.370701 612.827676,440.370701 C612.952038,438.368853 613.448163,436.643532 613.924443,435.205324 C614.592558,433.180982 615.834856,431.467569 617.519035,430.250319 L617.933134,429.94336 C618.434551,429.568923 619.057685,429.101869 619.794596,428.655985 L620.261615,428.367549 C621.331922,427.694092 623.030655,426.625028 625.310185,426.225452 C626.641123,425.796768 627.809333,425.722675 628.636208,425.708121 C628.753955,425.705474 628.876994,425.692243 628.997387,425.682982 C629.31623,425.659166 629.632427,425.637996 629.95127,425.628735 L630.673629,425.603596 C631.447584,425.577134 632.221539,425.551995 632.995494,425.551995 C632.995494,425.551995 634.002298,425.561257 634.023466,425.559933 C635.017039,425.267529 635.962984,425.107434 636.904961,425.074356 C637.079597,425.069064 637.250264,425.051864 637.420931,425.038633 C637.955423,424.996293 638.491238,424.96057 639.019115,424.96057 C639.591974,424.96057 640.148958,425.000263 640.688742,425.080972 C642.219453,424.516009 644.169556,423.960307 645.919885,423.960307 C646.672673,423.960307 647.399,424.059539 648.076376,424.256681 L652.049347,425.407777 C652.181647,425.398515 652.313947,425.390577 652.450216,425.383961 C652.635436,425.29796 652.825948,425.214605 653.023075,425.136542 C653.75734,424.84546 654.514096,424.543794 655.089601,424.238158 C656.087144,423.704949 657.070133,423.142632 658.054445,422.578992 C658.624659,422.25351 659.194872,421.928027 659.766408,421.606514 C660.127587,421.40408 660.515226,421.220169 660.906834,421.044197 L666.141947,418.576618 L667.192409,420.092889 C667.831419,419.733006 668.492919,419.46971 669.171618,419.306969 C669.790782,418.796253 670.597813,418.194243 671.60197,417.682203 L675.12512,415.880143 C675.803819,415.380011 676.416368,415.110099 676.732566,414.971174 L678,414.340056 C670.087134,343.268482 609.743762,288 536.464091,288 C534.667456,288 532.881405,288.044985 531.100647,288.109817 Z" id="Fill-59" fill="#C95435"></path>
            <path d="M1017.77622,494.517476 C1016.9142,496.508561 1016.07712,498.513212 1015.23437,500.513526 C1012.48791,502.745305 1010.12729,503.616786 1009.23932,503.473915 C1007.76064,503.236543 1008.71985,499.25805 1012.17525,490.391709 C1007.24986,497.643867 1004.36699,501.342055 1002.84214,501.337921 C1002.86535,501.1484 1002.89054,500.959017 1002.89988,500.768527 C1003.00404,498.283055 1003.08838,495.796199 1003.12079,493.311623 C1003.15126,490.968792 1003.51841,488.708615 1004.43649,486.542129 C1005.07065,485.047459 1005.67988,483.539223 1006.2734,482.027918 C1006.83525,480.599133 1007.61305,479.299737 1008.58227,478.110281 C1010.17719,476.144816 1011.7327,474.145067 1013.40078,472.243834 C1014.81776,470.630482 1015.44688,468.837906 1015.23869,466.718798 C1015.16925,466.032131 1015.19997,465.336702 1015.20835,464.647593 C1015.2121,464.423212 1015.29141,464.200172 1015.36516,463.828952 C1016.84621,464.687215 1018.24297,465.441057 1019.13922,466.831869 C1019.61873,467.576762 1019.90951,468.401078 1019.85968,469.284344 C1019.74977,471.282686 1019.5684,473.278003 1019.4544,475.278029 C1019.16797,480.31248 1018.88736,485.349308 1018.6366,490.386253 C1018.56449,491.815777 1018.35076,493.192047 1017.77622,494.517476 Z M987.07556,492.619541 C986.070139,491.035307 984.878959,489.068449 983.506308,486.742861 C987.667811,500.423349 984.05255,496.539106 976.525643,487.186802 C980.494683,496.604962 974.150749,490.557897 969.360926,486.740969 C967.890404,488.625954 958.282986,491.271213 960.583665,486.632654 C957.649543,489.764105 954.783899,492.967192 952.985711,493.743949 C951.18766,494.518749 950.457065,492.867218 951.792904,486.291388 C944.443533,497.316993 940.912676,502.02291 942.589507,486.255521 C937.487367,502.607268 935.776086,505.094762 933.953816,487.104793 C932.646861,505.393099 931.136755,504.493198 924.99664,487.921759 C929.438877,504.091372 927.103663,498.489715 921.854104,485.315144 C922.482452,496.436424 921.801492,495.466689 914.886714,487.301484 C920.936745,496.613457 916.210441,493.052638 908.813037,487.897311 C912.470438,494.189115 905.75209,488.497311 902.106903,487.113899 C902.097857,487.044451 902.082745,486.976545 902.077652,486.907373 C902.008086,486.084587 902.187407,485.338185 902.909354,484.728026 C903.225275,484.925101 903.533426,485.119666 903.974869,485.396297 C904.195771,484.878911 904.385915,484.432122 904.614251,483.893627 C904.846611,484.092725 905.056484,484.272554 905.372997,484.546351 C905.43225,484.210347 905.507009,483.993397 905.502161,483.778747 C905.463785,482.055673 905.284803,480.326701 905.388736,478.613576 C905.557857,475.79806 905.767603,472.969654 906.237898,470.192888 C906.467001,468.848321 907.261309,467.57276 907.933469,466.33978 C908.209303,465.832132 908.808841,465.467051 909.317795,465.11923 C910.286077,464.451579 910.818326,463.657102 910.615288,462.414057 C910.538604,461.948614 910.801286,461.430216 910.946504,460.77384 C911.437649,460.992995 911.813701,461.125457 912.15375,461.31832 C912.637384,461.58807 913.079831,461.935554 913.572466,462.190204 C914.126159,462.480581 914.400317,462.366049 914.611762,461.785084 C914.729489,461.464965 914.819484,461.115382 914.817191,460.779008 C914.802273,459.260089 915.521671,458.004851 916.256198,456.760501 C916.384733,456.541412 916.649161,456.367215 916.889855,456.248377 C918.600955,455.410479 920.432634,455.035195 922.325035,454.927621 C922.658123,454.907652 923.018029,455.015391 923.34181,455.12847 C924.452453,455.520701 925.569848,455.646006 926.723416,455.339319 C926.954075,455.278764 927.201276,455.294079 927.516985,455.266996 C927.615499,456.158656 928.265436,456.180499 928.956058,456.216984 C932.203201,456.390905 935.422782,456.163769 938.631054,455.672377 C940.41779,455.400123 942.212873,455.008517 944.024446,455.375036 C947.375595,456.049735 950.750865,455.754837 954.124354,455.740975 C956.244098,455.73384 958.371946,455.752831 960.483053,455.925979 C961.49618,456.008604 962.509152,456.405803 963.469306,456.791446 C964.945145,457.386162 966.418235,457.565826 967.953453,457.112798 C973.453329,455.49181 978.948506,453.852798 984.453079,452.249834 C986.085223,451.774089 987.746648,451.390834 989.396838,450.969437 C989.556678,450.927525 989.724346,450.915653 989.95549,451.075342 C988.079824,451.795562 986.204294,452.513825 984.201978,453.284176 C984.29037,453.809422 984.322537,454.315008 984.464036,454.79088 C985.528675,458.396535 986.609537,461.997425 987.698579,465.594955 C988.788913,469.202405 989.205911,472.86699 988.863412,476.627906 C988.609378,479.407994 988.442036,482.198075 988.304616,484.986315 C988.178356,487.586584 987.781939,490.130609 987.07556,492.619541 Z M886.505171,489.023342 C886.478226,489.139975 886.472266,489.252048 886.454949,489.365336 C885.466956,489.872777 884.562781,490.229395 883.793086,489.952614 C883.155947,490.171218 882.633481,490.281331 882.177186,490.33179 C882.229509,489.744876 882.272624,489.155308 882.341773,488.56957 C882.57227,486.617108 882.889326,484.662663 883.340343,482.75374 C883.652339,481.435715 884.243142,480.1874 884.735697,478.920164 C885.051859,478.106627 885.404574,477.307697 885.766217,476.515418 C885.959488,476.089014 886.209038,475.690648 886.431243,475.280327 C886.495559,475.300894 886.559875,475.32146 886.624331,475.340028 C886.655059,475.679646 886.71598,476.017357 886.713056,476.354623 C886.67266,480.262837 886.624926,484.168529 886.575183,488.076089 C886.569918,488.393103 886.577181,488.719029 886.505171,489.023342 Z M826.33645,365.544922 C825.100038,366.415079 824.077447,366.404233 822.860629,365.505375 C822.55792,365.280764 822.261597,365.050732 821.759573,364.669383 C821.849142,365.135359 821.910266,365.292218 821.901502,365.446147 C821.876263,365.835628 821.938179,366.467906 821.747752,366.556317 C821.400147,366.715901 820.830179,366.676055 820.472386,366.494543 C819.985018,366.247242 819.606293,365.792352 819.130362,365.381527 C819.089514,365.96554 819.051798,366.504778 819.014626,367.03623 C817.912506,366.988524 817.764103,365.874837 816.979273,365.442417 C817.002903,366.163961 817.022065,366.7776 817.042984,367.452005 C815.87698,367.229641 816.04791,366.016992 815.196721,365.617102 C815.222691,366.448358 815.248264,367.199381 815.279829,368.179702 C814.59207,367.705163 814.120248,367.378743 813.583528,367.006706 C813.612382,367.624935 813.635232,368.09994 813.66395,368.720116 C812.828147,368.4152 812.394475,368.001461 812.151528,367.323272 C811.943895,366.74145 811.625514,366.196879 811.356324,365.636185 C811.149237,366.62134 811.763705,367.45657 811.572103,368.478019 C810.465724,367.804023 809.800752,366.975043 809.451339,365.843391 C808.734676,363.520152 808.509044,361.162774 808.647717,358.750658 C808.730997,357.27366 809.472354,356.38063 810.903413,355.991619 C811.064801,355.946171 811.226324,355.898776 811.387984,355.849434 C813.698963,355.134605 813.692712,355.13808 814.358525,357.357997 C814.503351,357.83566 814.736049,358.288167 814.927937,358.751514 C815.009695,358.727886 815.09159,358.702312 815.173484,358.676737 C815.138627,358.230237 815.107619,357.785962 815.066647,357.34099 C814.845472,354.862636 814.872096,352.391826 815.365467,349.947777 C815.750553,348.04977 816.159554,346.153435 816.649174,344.278386 C817.255397,341.967425 817.940519,339.673718 818.631347,337.384321 C818.803454,336.813397 818.983631,336.184351 819.783104,335.892033 C819.841752,336.256079 819.93225,336.565621 819.934651,336.874873 C819.942314,337.452496 819.875966,338.028857 819.881636,338.606341 C819.892542,340.254247 819.838994,341.907429 819.96857,343.547981 C820.273027,347.38391 821.936923,350.594986 824.904914,353.142126 C826.799763,354.769153 828.146602,356.729552 828.755637,359.131341 C829.405458,361.694435 828.514337,364.012866 826.33645,365.544922 Z M1129.12639,518.849174 C1125.15812,514.116405 1119.93626,510.969721 1119.89258,509.300858 C1121.24032,506.708417 1106.91683,507.752722 1106.09773,508.336459 C1105.38808,509.337376 1102.7023,510.419743 1099.25546,510.29352 C1095.32682,510.345305 1082.8854,512.737898 1087.84806,505.009027 C1079.64602,507.52192 1070.28715,514.201553 1073.4939,511.248433 C1063.97171,518.988939 1062.52939,517.129314 1070.90067,501.91904 C1060.1074,516.677081 1058.40961,518.35675 1064.83166,501.597631 C1056.7939,517.956929 1055.80922,517.227306 1053.95328,498.829052 C1053.15176,516.687389 1051.91397,515.018139 1045.80068,498.086983 C1050.31636,515.039003 1049.1474,513.829595 1040.94652,498.432153 C1047.34145,513.459998 1043.13499,509.697797 1036.39971,496.846134 C1040.46543,504.885679 1037.25725,503.640543 1031.90657,499.646013 C1031.96009,498.852461 1031.99771,498.059776 1032.0335,497.264984 C1032.16136,494.304352 1032.98862,491.537037 1034.30406,488.896834 C1035.98529,485.528437 1038.00483,482.391421 1040.54876,479.599696 C1041.41515,478.651283 1042.27773,477.700627 1043.09367,476.709119 C1044.16486,475.409021 1045.06513,473.976292 1045.23589,472.270983 C1045.51892,469.44188 1045.06177,466.804373 1042.82703,464.750861 C1042.49763,464.448879 1042.17901,464.106104 1041.96236,463.720998 C1039.68118,459.670016 1038.36388,455.371855 1038.9517,450.676671 C1039.39535,447.136682 1040.73523,443.920497 1043.42642,441.514962 C1048.07581,437.358935 1050.70764,432.064749 1052.53163,426.259056 C1052.82211,425.333691 1053.08555,424.398521 1053.37223,423.470911 C1053.4288,423.28494 1053.53395,423.112258 1053.69738,422.757679 C1054.05871,423.962064 1054.008,425.026853 1053.9913,426.058407 C1053.8918,432.067752 1052.93982,437.920559 1050.78652,443.564742 C1050.27247,444.911704 1050.00041,446.366588 1049.74223,447.792768 C1049.37771,449.805031 1049.12272,451.836823 1048.83661,453.860504 C1048.79414,454.156272 1048.82839,454.459383 1048.82603,455.030974 C1049.41735,454.504514 1049.82917,454.137625 1050.38886,453.63863 C1050.47346,454.099575 1050.57631,454.441114 1050.59571,454.786711 C1050.71705,457.072327 1050.81658,459.358397 1050.93004,461.643462 C1050.94193,461.869831 1050.9755,462.097715 1051.00576,462.372849 C1051.58663,462.278926 1051.59566,461.838376 1051.69959,461.513271 C1052.00424,460.555263 1052.26425,459.584242 1052.55918,458.623577 C1052.74348,458.027116 1052.96454,457.443116 1053.15658,456.849174 C1053.39402,456.115962 1053.82983,455.604349 1054.56998,455.299981 C1055.73224,454.821349 1056.56457,453.96354 1057.21034,452.884958 C1058.68144,450.42578 1059.36355,447.723496 1059.80836,444.931423 C1060.34269,441.595613 1060.23035,438.218552 1060.52201,434.869734 C1060.88902,430.641841 1060.75707,426.412699 1060.75376,422.184637 C1060.75056,418.294887 1060.19964,414.449939 1059.64688,410.602884 C1059.19857,407.499095 1058.33256,404.50657 1057.45235,401.518986 C1056.29509,397.59406 1054.49127,393.966195 1051.96252,390.736745 C1051.1753,389.732081 1050.15938,388.911246 1049.30117,387.958992 C1047.26342,385.693715 1044.8093,383.945366 1042.32974,382.220957 C1041.30427,381.508266 1040.31909,380.729149 1039.25319,380.084853 C1037.53572,379.044831 1035.76883,378.088403 1034.01345,377.109039 C1033.59238,376.871871 1033.1219,376.718297 1032.70547,376.471561 C1030.12391,374.959624 1027.38287,373.802541 1024.58935,372.744665 C1023.0364,372.155348 1021.53251,371.430973 1020.01601,370.745285 C1017.25582,369.493878 1014.31056,368.793376 1011.46002,367.814606 C1009.01757,366.975157 1006.47549,366.597622 1003.96877,366.054395 C1002.64613,365.768047 1001.31589,365.47721 999.973073,365.337831 C996.835146,365.013603 993.681116,364.834651 990.542595,364.490598 C988.547988,364.270041 986.569026,363.882414 984.589282,363.5343 C977.443081,362.276983 970.678738,359.750513 963.893121,357.301691 C961.351328,356.382096 958.851161,355.348685 956.331786,354.363392 C956.079271,354.264624 955.83895,354.133077 955.482316,353.9657 C955.789995,353.785413 956.012744,353.658541 956.326473,353.476699 C956.095336,353.185544 955.880102,352.893521 955.639842,352.619533 C955.260138,352.187417 954.737476,351.873902 954.741172,351.169852 C954.743807,350.962304 954.426776,350.738344 954.230138,350.54852 C952.805326,349.174825 951.371806,347.812391 949.946994,346.438696 C949.525811,346.033355 949.125986,345.605768 948.684184,345.155462 C949.275663,344.371821 948.939005,343.833902 948.372146,343.246258 C946.468976,341.265385 944.480825,339.395298 942.192954,337.846519 C941.16244,337.149302 940.229516,336.302615 939.299293,335.473923 C938.551871,334.806389 937.996906,333.992061 937.46578,333.120047 C936.465891,331.475342 935.5112,329.750704 933.792951,328.665124 C933.333944,328.375843 932.97097,327.931048 932.524305,327.521948 C932.73153,327.277265 932.902087,327.075522 933.085569,326.858855 C933.028566,326.767821 932.98985,326.670151 932.921341,326.602053 C931.703761,325.351657 930.342207,324.291014 928.827102,323.415497 C927.355671,322.566774 925.902346,321.685684 924.440311,320.815856 C923.984007,320.544569 923.572573,320.254658 923.593265,319.619061 C923.606236,319.178786 923.256986,318.962465 922.896135,318.79875 C920.059738,317.504427 917.291646,316.054628 914.301541,315.11754 C913.985689,315.018301 913.693631,314.833677 913.389104,314.68577 C913.471824,314.295874 913.53611,313.999652 913.630293,313.559119 C911.386114,313.14108 909.173938,313.029951 906.868035,313.38115 C906.813495,312.971766 906.767199,312.614397 906.705379,312.139217 C906.291533,312.110285 905.858764,312.040462 905.427819,312.057816 C904.56185,312.094217 903.698212,312.18222 902.832836,312.238447 C902.592041,312.255246 902.296153,312.323588 902.115409,312.217967 C901.358338,311.773318 900.714066,312.09428 900.05531,312.424122 C897.603114,313.649436 895.145556,314.866462 892.700417,316.104139 C891.833946,316.544098 890.992518,316.795882 890.008533,316.424397 C889.668852,316.297774 889.188673,316.424454 888.807855,316.546211 C888.31562,316.703703 887.864389,316.982766 887.386861,317.184811 C887.019467,317.341139 886.638925,317.458958 886.265026,317.595047 C886.207652,317.537619 886.146337,317.479916 886.086993,317.422351 C886.395785,316.688191 886.700774,315.951788 887.009704,315.215659 C886.959801,315.164689 886.907926,315.113581 886.856052,315.062473 C886.381956,315.300369 885.884445,315.504974 885.43491,315.788112 C884.140572,316.597795 882.871208,317.446813 881.582094,318.266753 C881.211163,318.501969 880.80834,318.683518 880.296156,318.956341 C880.28838,318.387997 880.284346,317.964339 880.276115,317.374201 C879.872422,317.539862 879.542344,317.615706 879.288149,317.795775 C878.723383,318.197474 878.216172,318.682333 877.646183,319.073775 C877.165753,319.402235 876.626212,319.641491 876.11531,319.924295 C875.785816,320.105035 875.436296,320.260634 875.131913,320.478741 C874.233798,321.116305 873.351766,321.778735 872.247304,322.5918 C872.347288,321.898438 872.411773,321.457807 872.506896,320.805652 C870.573864,321.630035 869.268678,323.161074 867.491331,323.996341 C866.813752,323.349518 866.196708,323.620945 865.541514,324.069739 C864.453833,324.812755 863.330043,325.505765 862.217113,326.213383 C861.643002,326.578818 861.053789,326.735466 860.338712,326.596447 C859.944075,326.519398 859.456194,326.67126 859.067716,326.845897 C857.012535,327.77451 854.981363,328.756239 852.926044,329.686821 C852.408732,329.919717 851.834648,330.029941 851.286269,330.197357 C851.232106,330.122348 851.17808,330.045371 851.121946,329.970224 C851.409798,329.620388 851.658883,329.230252 851.990727,328.930973 C853.069176,327.951882 854.186393,327.013092 855.270341,326.040321 C855.648432,325.702728 855.974787,325.312059 856.325245,324.944837 C856.280935,324.870517 856.234655,324.79606 856.190482,324.719771 C855.73248,324.897462 855.260502,325.048457 854.816062,325.25875 C852.338024,326.428841 849.885552,327.658093 847.383504,328.775067 C846.028188,329.380668 844.600017,329.838733 843.18028,330.289473 C842.554537,330.487091 842.015822,330.714535 841.671514,331.418513 C838.861137,330.658197 836.035485,331.305431 833.136284,331.446988 C833.092604,331.052212 833.057572,330.788615 833.036473,330.524013 C832.969965,329.747789 832.760221,329.547157 831.982011,329.63124 C831.465267,329.686121 830.95965,329.836742 830.442769,329.893591 C830.043535,329.938882 829.636015,329.904457 829.186464,329.904683 C829.308118,329.297907 829.407989,328.804355 829.506759,328.326553 C828.435195,327.933118 824.464491,328.812887 821.590334,330.040356 C819.891639,328.675211 817.819973,329.046742 815.840519,328.977602 C815.155036,328.953421 814.448641,329.058352 813.778079,329.217226 C812.638294,329.487719 811.517976,329.423247 810.366636,329.320994 C808.709378,329.175459 807.0423,329.142006 805.377564,329.075084 C804.684336,329.048383 803.988534,329.086789 803.295857,329.052213 C802.421739,329.00693 801.561225,329.021951 800.728179,329.32378 C800.630694,329.358511 800.526609,329.402673 800.427523,329.40366 C798.312633,329.402209 796.605282,330.539129 794.82889,331.445685 C793.843024,331.950498 792.924926,332.590623 791.982819,333.177631 C791.069816,333.744911 790.448225,334.53436 790.035277,335.540191 C789.321556,337.278765 788.697937,339.031551 788.486915,340.916058 C788.425123,341.459754 788.241148,341.994907 788.092921,342.528604 C787.52083,344.563946 786.937329,346.592555 786.369179,348.628172 C786.297932,348.882361 786.302439,349.157673 786.264917,349.467637 C786.64329,349.494089 786.942835,349.51503 787.378358,349.545477 C786.980117,351.869949 785.962589,354.016595 785.519469,356.444762 C785.933978,356.266009 786.252698,356.126062 786.667207,355.947309 C786.735001,356.280462 786.796839,356.585501 786.898942,357.079325 C787.567475,356.6097 788.131827,356.213907 788.889919,355.6813 C788.798506,356.36537 788.775311,356.838563 788.668477,357.290082 C788.259207,359.036091 787.441059,360.597222 786.454171,362.07929 C784.710822,364.693534 783.271725,367.459622 782.553598,370.535282 C782.104346,372.456552 781.669344,374.400579 781.478983,376.357753 C781.157903,379.702536 781.015742,383.065762 780.832335,386.424126 C780.776124,387.482595 780.579083,388.487693 780.080027,389.422218 C778.706214,391.991073 777.406779,394.60074 775.924492,397.106617 C774.713982,399.152722 774.380792,401.311599 774.559147,403.603179 C774.75059,406.075709 775.382566,408.45044 776.252453,410.764647 C776.784988,412.182796 777.725449,413.261483 778.96168,414.103655 C780.500415,415.150966 782.204682,415.841867 783.982529,416.330182 C785.519315,416.754162 786.740288,417.559656 787.70919,418.8263 C788.69995,420.120191 789.759599,421.363502 790.804764,422.615694 C791.749391,423.748088 792.257099,425.039863 792.342415,426.50984 C792.483593,428.879936 793.090509,431.159931 793.737803,433.4289 C793.853572,433.840586 794.116645,434.21311 794.335484,434.651786 C794.816137,434.376758 795.193393,434.136049 795.593651,433.934537 C796.336924,433.557188 796.674591,433.655973 796.971215,434.426522 C797.306279,435.298678 797.566086,436.199206 797.850231,437.091543 C798.009346,437.59133 798.203117,438.02034 798.6722,438.363741 C798.954998,438.567502 799.032901,439.067548 799.180985,439.441925 C799.354636,439.875463 799.259608,440.49795 799.843793,440.639688 C800.394752,440.775147 800.738301,440.308522 801.04994,439.958371 C802.038804,438.844422 802.990459,437.696217 803.956915,436.562896 C804.241833,436.226703 804.530692,435.890786 804.789621,435.58641 C804.954513,435.635527 805.043745,435.633851 805.080405,435.675982 C805.908959,436.655839 806.530098,436.66563 807.573729,435.561445 C808.232479,434.863621 808.650357,434.042125 808.91256,433.124675 C809.354392,431.592631 809.848607,430.076119 810.253547,428.533582 C810.833676,426.326682 812.114638,424.604024 813.839985,423.181494 C815.803029,421.559937 815.999101,421.474725 818.344523,422.285629 C818.704186,422.409693 819.072972,422.516589 819.437679,422.625178 C820.46773,422.932618 821.282165,423.519765 821.95303,424.375829 C823.814727,426.751459 825.7141,429.098069 827.607147,431.450172 C827.883972,431.79596 828.209151,432.101604 828.524245,432.438197 C828.803826,432.291558 829.015483,432.181716 829.085516,432.143087 C829.817494,432.380229 830.44512,432.580399 831.074579,432.782676 C831.132607,432.717489 831.190773,432.650334 831.25091,432.583315 C832.431408,435.156644 833.614152,437.726173 834.812017,440.334349 C835.838261,439.81851 835.621888,438.608432 836.436555,437.889855 C836.694584,438.277853 836.966047,438.615353 837.159595,438.99093 C837.972457,440.563209 838.760708,442.147615 839.563579,443.721173 C839.748099,444.084249 839.965527,444.429842 840.221672,444.873104 C840.820872,443.894142 840.421173,442.728621 841.271373,441.870083 C841.598756,442.144227 841.955243,442.398643 842.25847,442.706709 C842.990806,443.448366 843.691654,444.21552 844.413311,444.968302 C845.166266,445.754926 845.168512,445.751126 846.250449,445.571551 C847.659716,447.450629 848.698138,449.620325 850.167351,451.491723 C850.249527,451.477684 850.331702,451.463645 850.414015,451.447637 C850.496203,450.895475 850.578665,450.339376 850.674519,449.705077 C851.33475,450.146913 851.534035,450.865154 851.886545,451.459575 C852.2742,452.117785 852.604196,452.807574 852.979613,453.470863 C853.335419,454.103105 853.718082,454.719419 854.113206,455.384085 C854.334166,455.282807 854.501959,455.20551 854.772005,455.081944 C855.521475,457.164173 856.266273,459.228271 857.037506,461.367416 C857.681512,460.965322 857.785791,460.408769 857.97517,459.909604 C858.165237,459.400595 858.33207,458.884027 858.570829,458.188496 C858.83298,458.602502 859.004455,458.81233 859.108556,459.05108 C859.602806,460.195512 860.100997,461.340221 860.550377,462.503279 C860.704553,462.903802 860.840038,463.231795 861.264588,463.447445 C862.113963,463.874806 862.38482,464.730603 862.657606,465.558837 C863.834328,469.148797 865.013022,472.738895 866.175399,476.335766 C866.83642,478.380158 867.446797,480.440793 868.10979,482.485322 C868.45826,483.56219 868.308705,484.511256 867.628896,485.425231 C867.008079,486.260237 866.464618,487.150112 865.879592,488.011361 C865.084492,489.186337 864.946776,490.419142 865.422626,491.77002 C865.976364,493.338032 865.894871,494.248332 865.02486,495.220232 C861.728855,494.975959 858.014594,493.944721 854.927408,493.121528 C854.571021,496.206651 841.59128,498.084817 840.775138,498.031718 C833.639071,501.414447 837.885915,496.161944 833.729013,495.230335 C834.659305,494.55743 831.538725,494.43819 828.204926,496.602939 C821.306762,498.736127 820.540551,498.478787 814.395763,500.033535 C814.625264,501.905315 812.168964,501.660394 808.642317,501.627513 C805.11173,501.594356 793.855466,507.937567 796.444979,504.49418 C788.587396,512.218506 777.222076,522.216104 787.89069,508.305993 C774.540141,522.507381 770.395262,526.981589 778.494195,508.954824 C769.26611,526.392224 768.40385,527.734626 772.675547,508.706314 C767.490838,528.386976 766.913542,530.24192 766.149064,511.726088 C766.332392,522.327278 757.014451,526.807818 746.774065,529.30087 L744.402176,526.575007 L742.431483,526.437236 L734.824117,521.948613 L727.354454,515.491222 L721.717781,511.140371 L709.893624,510.313743 L699.764754,513.562425 L692.157388,509.073802 L684.136914,510.491486 C684.136914,510.491486 682.028519,512.322484 679.920123,514.153481 C677.811728,515.984479 664.335138,538.783076 653.888008,518.268761 C655.032484,530.219145 647.299378,516.59935 646.280642,513.780139 C647.149713,529.66806 640.52894,526.872673 637.984763,519.13536 C639.260175,528.109499 641.365067,532.01956 632.403665,529.87366 C634.608162,534.483124 630.400388,535.694517 625.812503,536.847682 C624.88927,537.079899 623.948576,537.306937 623,537.533425 C636.620214,538.70126 650.347422,539.783358 664.197435,540.751845 C846.949636,553.528061 1013.44076,546.125407 1134,523.888578 C1132.5264,522.363092 1130.83654,520.616734 1129.12639,518.849174 L1129.12639,518.849174 Z" id="Fill-60" fill="#17A3AC"></path>
            <g id="Group-14" transform="translate(-160.000000, 266.000000)" fill="#17A3AC">
                <path d="M648.354692,251.512662 C648.260482,251.618222 648.166273,251.714293 648.062759,251.810365 C640.171257,244.199368 632.278593,236.578882 624.010253,228.591902 C624.695308,232.401551 625.286153,235.714239 625.878161,239.034042 C625.783951,239.051833 625.680437,239.077927 625.586227,239.10402 C624.026536,234.804525 622.493596,230.496727 620.908317,226.206719 C620.57335,225.314796 620.136032,224.432362 619.588221,223.654301 C614.677695,216.663618 609.73344,209.690725 604.797326,202.717833 C604.420488,202.184102 604.078542,201.642069 603.863372,200.979058 C621.746898,219.468668 639.639729,237.959465 657.523256,256.450262 C652.005602,251.870854 646.47748,247.300935 640.959826,242.722713 C640.873758,242.800994 640.78769,242.888763 640.702785,242.967043 C643.255747,245.815978 645.809872,248.663727 648.354692,251.512662 Z M637.382447,180.497382 C637.477778,181.145879 637.582524,181.568046 637.608416,182.000768 C637.833208,186.73491 638.02387,191.460844 638.293385,196.186777 C638.345169,197.059257 638.579377,197.966917 638.943046,198.753791 C642.740975,207.091604 646.590689,215.402444 650.423925,223.722667 C650.718156,224.361782 650.970017,225.010278 650.970017,225.81357 C649.973164,224.249204 648.976311,222.677802 647.970042,221.113436 C647.88295,221.156825 647.797034,221.200215 647.709942,221.242431 C649.591841,225.226053 651.472563,229.208502 653.354462,233.192123 C653.26737,233.235513 653.181455,233.278902 653.094363,233.321119 C652.088094,231.722745 651.083002,230.133753 650.068495,228.535379 C649.947272,228.595186 649.824872,228.646784 649.703649,228.707764 C651.456086,232.751193 653.207347,236.794621 654.968023,240.847431 C654.8468,240.924829 654.725577,241.010435 654.603177,241.089005 C643.218806,229.295281 631.825019,217.493347 620.292355,205.553037 C622.216623,202.952015 624.020845,200.50696 625.833306,198.061905 C625.763868,197.976299 625.702668,197.88952 625.633229,197.802741 C623.830184,198.900377 622.017723,199.998013 620.213501,201.094477 C620.127586,201.017079 620.049909,200.9303 619.971055,200.843521 C622.546161,197.863721 625.130683,194.882748 627.70579,191.893565 C627.64459,191.806787 627.584567,191.72118 627.523367,191.634401 C624.255053,193.83671 620.985562,196.049572 617.725487,198.251881 C617.64781,198.156893 617.568956,198.061905 617.491279,197.958708 C624.054976,192.196119 630.618673,186.432357 637.382447,180.497382 Z M566.683253,192.957294 C561.075729,196.539747 555.478756,200.146922 549.838405,203.677574 C548.64726,204.423967 547.947346,205.334002 547.480736,206.660793 C540.061875,227.92947 532.590257,249.17107 525.135052,270.42091 C524.901747,271.089603 524.634443,271.757119 524.021285,272.312793 C528.754208,255.424762 533.488305,238.536731 538.221228,221.649877 C538.091093,221.606318 537.962131,221.562759 537.831996,221.528617 C531.441318,238.858127 525.048295,256.188815 518.657617,273.518325 C518.553274,273.457106 518.450104,273.397065 518.345762,273.335847 C521.359967,262.875745 524.365966,252.406225 527.381344,241.946124 C527.268795,241.902564 527.156246,241.867246 527.043697,241.824864 C522.682419,252.016547 518.31997,262.21647 513.95752,272.408153 C513.862556,272.374012 513.767593,272.346934 513.67263,272.312793 C514.752398,267.290532 515.833338,262.26827 516.903727,257.255427 C516.808763,257.211868 516.7138,257.168309 516.617664,257.124749 C514.639849,260.96738 512.662033,264.818251 510.60684,268.81746 C510.2434,268.209985 509.950303,267.767329 509.691206,267.298773 C505.018074,258.834155 500.370734,250.350701 495.63781,241.920224 C495.007066,240.792393 495.136029,240.037758 495.776152,239.022946 C501.942904,229.20446 508.075657,219.360074 514.20841,209.523929 C514.544885,208.985914 514.839154,208.431417 514.830948,207.659123 C509.371144,214.510872 503.904307,221.354381 498.445676,228.20613 C498.323747,228.13667 498.211198,228.05897 498.099822,227.989511 C500.414112,224.19044 502.737782,220.391368 504.654634,217.243331 C502.098832,219.533134 498.99787,222.291493 495.930907,225.032192 C497.020054,223.115586 498.1432,221.111862 499.265174,219.116378 C499.178417,219.046919 499.10104,218.969218 499.015455,218.899759 C497.745761,219.932231 496.476066,220.972943 495.050445,222.126674 C494.246188,219.888671 493.478274,217.771928 492.640018,215.430325 C487.432278,219.402456 482.326535,223.288646 477.221965,227.183076 C477.136381,227.087717 477.041417,226.992358 476.953488,226.896998 C478.768342,224.547154 480.582024,222.187892 482.405085,219.845112 C494.506457,204.285049 506.590244,188.723808 518.717409,173.189645 C519.512286,172.174832 520.487712,171.203579 521.576859,170.536064 C524.384724,168.818417 526.646258,166.596896 528.702623,164.038675 C534.352353,157.012689 540.121667,150.09148 545.839395,143.126712 C546.17587,142.719375 546.547516,142.33676 547.160675,142.094241 C544.984725,146.726824 542.799397,151.36647 540.622276,155.997876 C540.717239,156.067336 540.812202,156.136795 540.907166,156.215672 C544.077298,152.554342 547.248604,148.89419 550.520734,145.104537 C555.583098,150.724855 560.566913,156.258054 565.550727,161.792431 C565.465143,161.870131 565.386593,161.949009 565.309216,162.026709 C561.284413,158.573757 557.259611,155.131401 553.233636,151.678449 C553.146879,151.765567 553.051916,151.852686 552.96516,151.938627 C557.638292,157.429444 562.303217,162.920262 566.976349,168.409902 C566.872007,168.531162 566.777044,168.653598 566.673874,168.774858 C562.898789,165.704521 559.116671,162.634184 555.341587,159.572088 C555.246623,159.667447 555.159867,159.762806 555.064904,159.858166 C558.994743,164.741509 562.925754,169.624852 566.872007,174.516435 C563.468569,179.876575 560.126096,185.133115 556.783622,190.389654 C556.886792,190.476773 556.999341,190.562714 557.11189,190.641591 C559.694657,187.293417 562.269218,183.945243 564.850813,180.597068 C564.963362,180.666528 565.075911,180.726569 565.179081,180.796028 C562.898789,184.803477 560.610291,188.810927 558.33,192.818376 C558.415584,192.870176 558.50234,192.931394 558.589097,192.991435 C560.54112,190.683973 562.50135,188.376512 564.462753,186.061986 C564.557716,186.122027 564.652679,186.173827 564.747643,186.225627 C563.590497,188.524848 562.423973,190.822892 561.094487,193.450573 C563.61629,192.836035 565.801618,192.29802 567.977567,191.768245 C568.012739,191.847123 568.04791,191.924823 568.090116,191.994282 C567.623506,192.315679 567.166276,192.653557 566.683253,192.957294 Z M469.47877,219.981449 C469.390809,220.41941 469.093643,220.856207 468.785779,221.19982 C461.534928,229.300938 454.267436,237.384583 446.997567,245.469394 C446.857304,245.632465 446.664741,245.760591 446.253463,245.760591 C448.451303,241.255182 450.658652,236.750937 452.856492,232.23621 C452.751889,232.176805 452.655608,232.12439 452.549817,232.064985 C447.16398,239.51382 441.769822,246.953337 436.383985,254.403337 C436.278194,254.342768 436.173592,254.291517 436.068989,254.230948 C438.3013,250.120402 440.543121,246.009857 442.784941,241.899311 C442.644679,241.822435 442.513926,241.745559 442.383173,241.659364 C438.345281,246.773959 434.308578,251.896708 430.034142,257.303665 C428.975042,253.66486 428.072846,250.317252 427.004237,247.02206 C426.504998,245.443768 426.61911,244.113578 427.363213,242.612163 C431.172882,234.922216 434.877948,227.182184 438.3013,219.269762 C434.851797,224.34126 431.409426,229.412757 427.958734,234.476102 C427.836302,234.416697 427.713869,234.356128 427.591437,234.287405 C433.090197,223.508435 438.581825,212.729464 444.081774,201.951658 C443.975983,201.900407 443.879701,201.849156 443.783419,201.79674 C438.520014,210.043457 433.25661,218.283185 427.994394,226.529901 C427.880282,226.461178 427.76617,226.400609 427.643738,226.34004 C434.755515,213.699734 441.866104,201.058263 449.116955,188.17801 C449.878888,189.113337 450.51839,189.885593 451.14957,190.657849 C453.688557,193.773664 456.359485,196.802119 458.733247,200.029753 C460.686222,202.698288 463.040966,204.577095 466.246793,205.564838 C468.129637,206.148398 469.924519,207.031309 471.843023,207.812883 C471.046618,211.940901 470.284685,215.965252 469.47877,219.981449 Z M665.747329,289.234302 C665.782387,288.354715 666.062854,287.485669 666.585223,286.736087 C667.17654,285.889294 668.012097,285.279088 668.952829,284.966372 C668.866352,284.597438 668.779874,284.210935 668.693397,283.806863 C668.18622,281.43397 669.572193,279.06459 671.887211,278.350145 C672.344138,278.208427 672.808077,278.140496 673.263835,278.140496 C673.312917,278.140496 673.361998,278.141667 673.41108,278.142839 C673.818925,276.56169 675.037786,275.25695 676.690202,274.799003 C677.106228,274.683052 677.525759,274.626833 677.939448,274.626833 C679.602381,274.626833 681.172994,275.522817 682.008551,277.009097 C682.209552,276.98333 682.411722,276.970446 682.611554,276.970446 C684.216057,276.970446 685.756287,277.800842 686.621059,279.244958 C687.859787,281.314505 688.64743,281.608482 688.654442,281.610824 C688.972304,281.545236 690.243753,280.950255 693.113862,276.660073 C693.656097,275.849588 694.014861,275.315511 694.498666,274.829454 L695,274.327001 C692.377637,267.204806 680.948621,236.141682 679.363984,231.494277 C678.993535,230.415582 678.330932,229.328689 677.522253,228.526403 C672.87235,223.866114 668.127789,219.318263 663.461526,214.676714 C662.816452,214.038399 662.179559,213.175209 661.980895,212.312019 C659.863372,203.338124 655.446023,195.640859 649.548043,188.625245 C645.751225,184.103161 642.401986,179.201601 638.751245,174.326979 C638.218359,174.775557 637.769612,175.121067 637.348912,175.508741 C631.717376,180.694908 626.276323,186.114147 620.378343,190.980571 C617.210238,193.586537 613.266176,195.260212 609.642313,197.296966 C609.340812,197.460937 608.721448,197.279397 608.376708,197.063893 C607.360016,196.443145 606.395912,195.726358 605.431808,195.036509 C596.227827,188.443706 589.48611,179.426475 582.012843,171.150628 C570.380489,158.276566 558.791373,145.367368 547.185897,132.475738 C546.789738,132.035359 546.367869,131.612549 545.782395,131 C545.309108,131.60435 544.879059,132.12203 544.4829,132.665476 C537.731834,142.036416 531.034524,151.442492 524.21451,160.752527 C522.716351,162.798651 520.985638,164.792069 518.988481,166.32754 C514.60619,169.701827 511.369138,174.068139 507.917061,178.26111 C501.613573,185.92441 495.319434,193.604106 489.069702,201.318939 C488.200255,202.388263 487.29575,202.923511 485.909778,202.915313 C482.327985,202.905943 478.738012,203.061715 475.156219,203.010182 C474.354552,203.000812 473.433686,202.578001 472.796793,202.069691 C465.116682,195.960602 457.487989,189.807007 449.851116,183.662782 C449.343939,183.257539 448.827413,182.860495 448.17299,182.342816 C434.157838,206.499249 416.638022,236.857298 402,262.127562 C464.279956,279.629118 551.177872,291.415115 648.915824,294 C653.897613,292.745622 660.081902,291.093029 665.358181,289.363136 C665.456345,289.331513 665.593072,289.287007 665.747329,289.234302 L665.747329,289.234302 Z" id="Fill-57-Copy" transform="translate(548.500000, 212.500000) scale(-1, 1) translate(-548.500000, -212.500000) "></path>
                <path d="M410.674159,199.929141 C410.517112,200.102759 410.360064,200.260771 410.187505,200.418782 C397.032344,187.900753 383.875244,175.367118 370.091892,162.230698 C371.23388,168.49654 372.218821,173.945014 373.2057,179.405192 C373.048653,179.434454 372.876094,179.47737 372.719047,179.520287 C370.119036,172.448781 367.563619,165.363619 364.920954,158.307719 C364.362562,156.840747 363.633551,155.389382 362.720348,154.109683 C354.534484,142.611902 346.292392,131.143382 338.063873,119.674862 C337.435682,118.79702 336.865658,117.905522 336.506969,116.815047 C366.318872,147.22545 396.146285,177.637803 425.958188,208.050157 C416.760239,200.518271 407.54484,193.001992 398.346891,185.472057 C398.203415,185.600807 398.05994,185.745163 397.918403,185.873913 C402.174199,190.55964 406.431935,195.243415 410.674159,199.929141 Z M392.516638,82.7084639 C392.674832,83.7853142 392.848651,84.4863378 392.891617,85.2048871 C393.264643,93.0660885 393.581032,100.913659 394.028272,108.761229 C394.114205,110.210011 394.502855,111.717212 395.106337,113.023842 C401.408721,126.86906 407.797037,140.669489 414.158011,154.485497 C414.646265,155.546769 415.06421,156.623619 415.06421,157.957511 C413.410005,155.359829 411.755801,152.750464 410.085972,150.152781 C409.941449,150.224831 409.798878,150.296881 409.654355,150.366983 C412.777228,156.98192 415.898148,163.59491 419.021021,170.209847 C418.876498,170.281897 418.733928,170.353946 418.589404,170.424049 C416.919576,167.769895 415.2517,165.13132 413.5682,162.477167 C413.367039,162.576478 413.163925,162.662159 412.962765,162.763418 C415.870806,169.477667 418.776894,176.191916 421.698606,182.921743 C421.497446,183.050264 421.296285,183.192416 421.093171,183.322884 C402.201645,163.739009 383.294495,144.141504 364.156889,124.314218 C367.350071,119.995133 370.344045,115.935038 373.35169,111.874943 C373.236462,111.732791 373.134905,111.588691 373.019677,111.444592 C370.027656,113.267253 367.020011,115.089915 364.026037,116.910629 C363.883467,116.782108 363.754568,116.638009 363.623716,116.49391 C367.896915,111.545851 372.185739,106.595845 376.458939,101.632208 C376.357382,101.488109 376.257778,101.345957 376.156221,101.201857 C370.732695,104.858864 365.307216,108.533396 359.897361,112.190403 C359.768462,112.032673 359.63761,111.874943 359.508711,111.703581 C370.400682,102.134608 381.292654,92.5636882 392.516638,82.7084639 Z M275.383876,103.237016 C266.053585,109.187108 256.740851,115.178262 247.355941,121.042318 C245.37401,122.282002 244.20943,123.793478 243.433044,125.997143 C231.088893,161.322268 218.656958,196.60242 206.252334,231.89626 C205.864141,233.006891 205.419377,234.115568 204.399151,235.038487 C212.274205,206.989172 220.151209,178.939858 228.026263,150.892499 C227.809733,150.820151 227.595154,150.747804 227.378624,150.691099 C216.745254,179.473665 206.107981,208.258186 195.47461,237.040752 C195.300996,236.939075 195.129333,236.839353 194.955719,236.737675 C199.971018,219.364503 204.972663,201.975687 209.989913,184.602515 C209.802644,184.530167 209.615375,184.471507 209.428105,184.401115 C202.17143,201.328471 194.912803,218.269514 187.654177,235.196869 C187.496168,235.140164 187.33816,235.095192 187.180152,235.038487 C188.976764,226.697018 190.775328,218.355548 192.556334,210.029722 C192.398326,209.957374 192.240318,209.885027 192.080359,209.81268 C188.789495,216.194901 185.498632,222.590809 182.079021,229.23309 C181.474298,228.224136 180.986618,227.488929 180.555509,226.710705 C172.779942,212.651829 165.047291,198.561668 157.172237,184.559497 C156.12275,182.686284 156.337329,181.432913 157.402422,179.747412 C167.663205,163.439899 177.867418,147.089367 188.071631,130.752524 C188.631487,129.858935 189.121118,128.937971 189.107463,127.655269 C180.022963,139.035333 170.926759,150.401709 161.84421,161.781772 C161.641335,161.666408 161.454066,161.537355 161.268748,161.42199 C165.119467,155.112117 168.985793,148.802243 172.175219,143.573671 C167.922651,147.376802 162.762999,151.958157 157.659917,156.510183 C159.472135,153.326894 161.340924,149.998909 163.207763,146.684613 C163.063409,146.569248 162.934662,146.440195 162.792259,146.324831 C160.67963,148.039661 158.567001,149.76818 156.194927,151.68441 C154.856733,147.967314 153.579012,144.451617 152.184248,140.562451 C143.519153,147.15976 135.02377,153.614328 126.530338,160.082584 C126.387936,159.924202 126.229928,159.76582 126.083624,159.607437 C129.103337,155.704584 132.1211,151.786088 135.154468,147.894966 C155.289793,122.051272 175.395857,96.2056231 195.574097,70.4049466 C196.896685,68.7194458 198.519683,67.1062924 200.331901,65.9976161 C205.003874,63.1447789 208.766812,59.4550573 212.188373,55.2061092 C221.58889,43.5366558 231.188379,32.0412274 240.702037,20.4734516 C241.261894,19.7969048 241.880272,19.1614202 242.900498,18.7586207 C239.279963,26.4528732 235.643822,34.1588578 232.021336,41.851155 C232.179345,41.9665199 232.337353,42.0818848 232.495361,42.2128924 C237.770106,36.1317932 243.046802,30.0526493 248.491259,23.7584183 C256.914465,33.0931989 265.206973,42.2832846 273.499481,51.4753255 C273.357078,51.6043778 273.22638,51.7353854 273.097633,51.8644377 C266.400813,46.1294332 259.703994,40.4120267 253.005224,34.6770222 C252.860871,34.8217172 252.702862,34.9664121 252.558509,35.1091518 C260.334076,44.2288452 268.095988,53.3485387 275.871555,62.4662769 C275.697941,62.6676766 275.539933,62.8710317 275.36827,63.0724314 C269.086954,57.9729116 262.793933,52.8733917 256.512617,47.7875592 C256.354609,47.9459416 256.210256,48.1043239 256.052247,48.2627062 C262.591058,56.3734456 269.13182,64.484185 275.697941,72.6086118 C270.035003,81.5112628 264.473503,90.2418442 258.912002,98.9724255 C259.083665,99.1171205 259.270934,99.2598601 259.458203,99.3908677 C263.755638,93.8298882 268.039417,88.2689088 272.334901,82.7079293 C272.52217,82.8232942 272.709439,82.9230164 272.881103,83.0383813 C269.086954,89.6943497 265.27915,96.3503181 261.485001,103.006286 C261.627403,103.092321 261.771756,103.193999 261.91611,103.293721 C265.164057,99.4612599 268.42566,95.6287986 271.689213,91.7846053 C271.847221,91.8843276 272.00523,91.9703624 272.163238,92.0563972 C270.237878,95.8751711 268.296912,99.6919897 266.084797,104.056303 C270.280794,103.035617 273.916935,102.142027 277.53747,101.262126 C277.595991,101.393133 277.654513,101.522185 277.724739,101.63755 C276.948352,102.171357 276.187572,102.732539 275.383876,103.237016 Z M112.830816,147.145257 C112.686397,147.879963 112.198498,148.612715 111.693034,149.189146 C99.7882878,162.779251 87.856219,176.340046 75.9202471,189.902795 C75.6899586,190.176356 75.3737997,190.391296 74.6985469,190.391296 C78.3070512,182.833205 81.9311682,175.277067 85.5396725,167.703344 C85.3679319,167.603689 85.2098525,167.515759 85.0361603,167.416105 C76.1934708,179.911967 67.3371202,192.392197 58.4944307,204.890013 C58.3207385,204.788405 58.1489979,204.702429 57.9772573,204.600821 C61.6423579,197.705137 65.3230713,190.809453 69.0037847,183.913769 C68.7734961,183.784805 68.5588204,183.655841 68.3441446,183.511244 C61.714567,192.09128 55.086941,200.684995 48.0689955,209.755486 C46.3301218,203.651174 44.8488591,198.035364 43.0943728,192.507484 C42.2747017,189.859807 42.4620551,187.628333 43.6837553,185.10962 C49.9386261,172.209279 56.0217563,159.224916 61.6423579,145.95136 C55.9788212,154.459098 50.3269941,162.966835 44.6615058,171.460895 C44.4604912,171.361241 44.2594766,171.259633 44.0584621,171.144347 C53.0865533,153.061984 62.102935,134.979621 71.1329778,116.899213 C70.9592856,116.813237 70.8012062,116.72726 70.6431268,116.63933 C62.0014519,130.473686 53.359777,144.296317 44.7200537,158.130673 C44.5327003,158.015387 44.3453469,157.913778 44.1443324,157.81217 C55.8207418,136.607308 67.4951996,115.400491 79.3999459,93.7931034 C80.6509201,95.3621695 81.7008797,96.6576748 82.7371781,97.9531802 C86.9057909,103.180144 91.2910311,108.260557 95.1883718,113.675105 C98.394847,118.15173 102.260962,121.30354 107.524421,122.960537 C110.615752,123.939493 113.562665,125.420629 116.712544,126.731766 C115.404973,133.65676 114.153999,140.407847 112.830816,147.145257 Z M440.178989,264.047424 C440.237499,262.579647 440.705582,261.129459 441.577386,259.878624 C442.56426,258.465571 443.958756,257.447313 445.528783,256.92548 C445.384457,256.309835 445.240132,255.664873 445.095806,254.990594 C444.249357,251.030919 446.562465,247.077107 450.426096,245.884904 C451.188681,245.648418 451.962967,245.535061 452.723602,245.535061 C452.805516,245.535061 452.88743,245.537016 452.969345,245.53897 C453.650015,242.900489 455.684224,240.723254 458.44201,239.959072 C459.136333,239.765583 459.836506,239.671771 460.526928,239.671771 C463.302267,239.671771 465.92353,241.16691 467.318026,243.647082 C467.653485,243.604084 467.990894,243.582585 468.324403,243.582585 C471.002226,243.582585 473.572779,244.968276 475.016034,247.378089 C477.083398,250.831567 478.39793,251.322129 478.409632,251.326038 C478.940126,251.21659 481.0621,250.223739 485.852145,243.064661 C486.757104,241.712196 487.35586,240.820976 488.163302,240.009887 L489,239.171437 C484.623428,227.286547 465.549064,175.45115 462.904397,167.695971 C462.286138,165.895941 461.180293,164.08223 459.830655,162.743445 C452.070236,154.966768 444.15184,147.377715 436.364116,139.632308 C435.287526,138.567144 434.224589,137.126729 433.89303,135.686314 C430.359007,120.71147 422.986707,107.866955 413.14332,96.1599184 C406.806653,88.6138635 401.216967,80.4345733 395.124092,72.300235 C394.234735,73.0487817 393.485803,73.6253386 392.783679,74.272255 C383.384972,82.9264718 374.30417,91.9696201 364.460784,100.090277 C359.173401,104.438885 352.59099,107.231765 346.542973,110.630519 C346.039785,110.90414 345.006102,110.601203 344.430751,110.241588 C342.733952,109.20574 341.124918,108.009628 339.515884,106.858469 C324.154975,95.8569817 312.90344,80.8098239 300.43099,66.9998204 C281.017266,45.516724 261.675704,23.9749948 242.306838,2.462582 C241.645672,1.72771626 240.941597,1.02216697 239.964475,0 C239.174586,1.00848596 238.456859,1.87234409 237.795692,2.77919969 C226.528555,18.4165954 215.351134,34.112624 203.968926,49.6483894 C201.468585,53.0627789 198.580126,56.389219 195.246988,58.951477 C187.933198,64.5821903 182.530745,71.8683059 176.769429,78.8651659 C166.249273,91.6530024 155.74472,104.468201 145.314281,117.342032 C143.863225,119.126427 142.353658,120.019602 140.04055,120.005921 C134.062746,119.990285 128.071289,120.250225 122.093485,120.16423 C120.755549,120.148594 119.218678,119.443045 118.15574,118.594822 C105.33808,108.400514 92.6062339,98.1319384 79.8607359,87.8789978 C79.0142866,87.2027649 78.1522345,86.5402131 77.0600419,85.676355 C53.6695663,125.986477 24.430009,176.645307 0,218.814092 C103.941633,248.019142 248.969213,267.686573 412.088184,272 C420.402501,269.906805 430.723721,267.149104 439.529524,264.262411 C439.693353,264.209641 439.921544,264.135373 440.178989,264.047424 L440.178989,264.047424 Z" id="Fill-57"></path>
            </g>
        </g>
    </g>
</svg>