<?xml version="1.0" encoding="UTF-8"?>
<svg width="527px" height="233px" viewBox="0 0 527 233" version="1.1" xmlns="http://www.w3.org/2000/svg" xmlns:xlink="http://www.w3.org/1999/xlink">
    <!-- Generator: Sketch 61 (89581) - https://sketch.com -->
    <title>BH_HACKINFEST_SINGLEPAGE_BUNBUN</title>
    <desc>Created with Sketch.</desc>
    <g id="Page-1" stroke="none" stroke-width="1" fill="none" fill-rule="evenodd">
        <g id="BH_HACKINFEST_SINGLEPAGE_BUNBUN" transform="translate(0.000000, -266.000000)" fill="#2A898C">
            <g id="Group-14" transform="translate(-160.000000, 266.000000)">
                <path d="M648.354692,251.512662 C648.260482,251.618222 648.166273,251.714293 648.062759,251.810365 C640.171257,244.199368 632.278593,236.578882 624.010253,228.591902 C624.695308,232.401551 625.286153,235.714239 625.878161,239.034042 C625.783951,239.051833 625.680437,239.077927 625.586227,239.10402 C624.026536,234.804525 622.493596,230.496727 620.908317,226.206719 C620.57335,225.314796 620.136032,224.432362 619.588221,223.654301 C614.677695,216.663618 609.73344,209.690725 604.797326,202.717833 C604.420488,202.184102 604.078542,201.642069 603.863372,200.979058 C621.746898,219.468668 639.639729,237.959465 657.523256,256.450262 C652.005602,251.870854 646.47748,247.300935 640.959826,242.722713 C640.873758,242.800994 640.78769,242.888763 640.702785,242.967043 C643.255747,245.815978 645.809872,248.663727 648.354692,251.512662 Z M637.382447,180.497382 C637.477778,181.145879 637.582524,181.568046 637.608416,182.000768 C637.833208,186.73491 638.02387,191.460844 638.293385,196.186777 C638.345169,197.059257 638.579377,197.966917 638.943046,198.753791 C642.740975,207.091604 646.590689,215.402444 650.423925,223.722667 C650.718156,224.361782 650.970017,225.010278 650.970017,225.81357 C649.973164,224.249204 648.976311,222.677802 647.970042,221.113436 C647.88295,221.156825 647.797034,221.200215 647.709942,221.242431 C649.591841,225.226053 651.472563,229.208502 653.354462,233.192123 C653.26737,233.235513 653.181455,233.278902 653.094363,233.321119 C652.088094,231.722745 651.083002,230.133753 650.068495,228.535379 C649.947272,228.595186 649.824872,228.646784 649.703649,228.707764 C651.456086,232.751193 653.207347,236.794621 654.968023,240.847431 C654.8468,240.924829 654.725577,241.010435 654.603177,241.089005 C643.218806,229.295281 631.825019,217.493347 620.292355,205.553037 C622.216623,202.952015 624.020845,200.50696 625.833306,198.061905 C625.763868,197.976299 625.702668,197.88952 625.633229,197.802741 C623.830184,198.900377 622.017723,199.998013 620.213501,201.094477 C620.127586,201.017079 620.049909,200.9303 619.971055,200.843521 C622.546161,197.863721 625.130683,194.882748 627.70579,191.893565 C627.64459,191.806787 627.584567,191.72118 627.523367,191.634401 C624.255053,193.83671 620.985562,196.049572 617.725487,198.251881 C617.64781,198.156893 617.568956,198.061905 617.491279,197.958708 C624.054976,192.196119 630.618673,186.432357 637.382447,180.497382 Z M566.683253,192.957294 C561.075729,196.539747 555.478756,200.146922 549.838405,203.677574 C548.64726,204.423967 547.947346,205.334002 547.480736,206.660793 C540.061875,227.92947 532.590257,249.17107 525.135052,270.42091 C524.901747,271.089603 524.634443,271.757119 524.021285,272.312793 C528.754208,255.424762 533.488305,238.536731 538.221228,221.649877 C538.091093,221.606318 537.962131,221.562759 537.831996,221.528617 C531.441318,238.858127 525.048295,256.188815 518.657617,273.518325 C518.553274,273.457106 518.450104,273.397065 518.345762,273.335847 C521.359967,262.875745 524.365966,252.406225 527.381344,241.946124 C527.268795,241.902564 527.156246,241.867246 527.043697,241.824864 C522.682419,252.016547 518.31997,262.21647 513.95752,272.408153 C513.862556,272.374012 513.767593,272.346934 513.67263,272.312793 C514.752398,267.290532 515.833338,262.26827 516.903727,257.255427 C516.808763,257.211868 516.7138,257.168309 516.617664,257.124749 C514.639849,260.96738 512.662033,264.818251 510.60684,268.81746 C510.2434,268.209985 509.950303,267.767329 509.691206,267.298773 C505.018074,258.834155 500.370734,250.350701 495.63781,241.920224 C495.007066,240.792393 495.136029,240.037758 495.776152,239.022946 C501.942904,229.20446 508.075657,219.360074 514.20841,209.523929 C514.544885,208.985914 514.839154,208.431417 514.830948,207.659123 C509.371144,214.510872 503.904307,221.354381 498.445676,228.20613 C498.323747,228.13667 498.211198,228.05897 498.099822,227.989511 C500.414112,224.19044 502.737782,220.391368 504.654634,217.243331 C502.098832,219.533134 498.99787,222.291493 495.930907,225.032192 C497.020054,223.115586 498.1432,221.111862 499.265174,219.116378 C499.178417,219.046919 499.10104,218.969218 499.015455,218.899759 C497.745761,219.932231 496.476066,220.972943 495.050445,222.126674 C494.246188,219.888671 493.478274,217.771928 492.640018,215.430325 C487.432278,219.402456 482.326535,223.288646 477.221965,227.183076 C477.136381,227.087717 477.041417,226.992358 476.953488,226.896998 C478.768342,224.547154 480.582024,222.187892 482.405085,219.845112 C494.506457,204.285049 506.590244,188.723808 518.717409,173.189645 C519.512286,172.174832 520.487712,171.203579 521.576859,170.536064 C524.384724,168.818417 526.646258,166.596896 528.702623,164.038675 C534.352353,157.012689 540.121667,150.09148 545.839395,143.126712 C546.17587,142.719375 546.547516,142.33676 547.160675,142.094241 C544.984725,146.726824 542.799397,151.36647 540.622276,155.997876 C540.717239,156.067336 540.812202,156.136795 540.907166,156.215672 C544.077298,152.554342 547.248604,148.89419 550.520734,145.104537 C555.583098,150.724855 560.566913,156.258054 565.550727,161.792431 C565.465143,161.870131 565.386593,161.949009 565.309216,162.026709 C561.284413,158.573757 557.259611,155.131401 553.233636,151.678449 C553.146879,151.765567 553.051916,151.852686 552.96516,151.938627 C557.638292,157.429444 562.303217,162.920262 566.976349,168.409902 C566.872007,168.531162 566.777044,168.653598 566.673874,168.774858 C562.898789,165.704521 559.116671,162.634184 555.341587,159.572088 C555.246623,159.667447 555.159867,159.762806 555.064904,159.858166 C558.994743,164.741509 562.925754,169.624852 566.872007,174.516435 C563.468569,179.876575 560.126096,185.133115 556.783622,190.389654 C556.886792,190.476773 556.999341,190.562714 557.11189,190.641591 C559.694657,187.293417 562.269218,183.945243 564.850813,180.597068 C564.963362,180.666528 565.075911,180.726569 565.179081,180.796028 C562.898789,184.803477 560.610291,188.810927 558.33,192.818376 C558.415584,192.870176 558.50234,192.931394 558.589097,192.991435 C560.54112,190.683973 562.50135,188.376512 564.462753,186.061986 C564.557716,186.122027 564.652679,186.173827 564.747643,186.225627 C563.590497,188.524848 562.423973,190.822892 561.094487,193.450573 C563.61629,192.836035 565.801618,192.29802 567.977567,191.768245 C568.012739,191.847123 568.04791,191.924823 568.090116,191.994282 C567.623506,192.315679 567.166276,192.653557 566.683253,192.957294 Z M469.47877,219.981449 C469.390809,220.41941 469.093643,220.856207 468.785779,221.19982 C461.534928,229.300938 454.267436,237.384583 446.997567,245.469394 C446.857304,245.632465 446.664741,245.760591 446.253463,245.760591 C448.451303,241.255182 450.658652,236.750937 452.856492,232.23621 C452.751889,232.176805 452.655608,232.12439 452.549817,232.064985 C447.16398,239.51382 441.769822,246.953337 436.383985,254.403337 C436.278194,254.342768 436.173592,254.291517 436.068989,254.230948 C438.3013,250.120402 440.543121,246.009857 442.784941,241.899311 C442.644679,241.822435 442.513926,241.745559 442.383173,241.659364 C438.345281,246.773959 434.308578,251.896708 430.034142,257.303665 C428.975042,253.66486 428.072846,250.317252 427.004237,247.02206 C426.504998,245.443768 426.61911,244.113578 427.363213,242.612163 C431.172882,234.922216 434.877948,227.182184 438.3013,219.269762 C434.851797,224.34126 431.409426,229.412757 427.958734,234.476102 C427.836302,234.416697 427.713869,234.356128 427.591437,234.287405 C433.090197,223.508435 438.581825,212.729464 444.081774,201.951658 C443.975983,201.900407 443.879701,201.849156 443.783419,201.79674 C438.520014,210.043457 433.25661,218.283185 427.994394,226.529901 C427.880282,226.461178 427.76617,226.400609 427.643738,226.34004 C434.755515,213.699734 441.866104,201.058263 449.116955,188.17801 C449.878888,189.113337 450.51839,189.885593 451.14957,190.657849 C453.688557,193.773664 456.359485,196.802119 458.733247,200.029753 C460.686222,202.698288 463.040966,204.577095 466.246793,205.564838 C468.129637,206.148398 469.924519,207.031309 471.843023,207.812883 C471.046618,211.940901 470.284685,215.965252 469.47877,219.981449 Z M665.747329,289.234302 C665.782387,288.354715 666.062854,287.485669 666.585223,286.736087 C667.17654,285.889294 668.012097,285.279088 668.952829,284.966372 C668.866352,284.597438 668.779874,284.210935 668.693397,283.806863 C668.18622,281.43397 669.572193,279.06459 671.887211,278.350145 C672.344138,278.208427 672.808077,278.140496 673.263835,278.140496 C673.312917,278.140496 673.361998,278.141667 673.41108,278.142839 C673.818925,276.56169 675.037786,275.25695 676.690202,274.799003 C677.106228,274.683052 677.525759,274.626833 677.939448,274.626833 C679.602381,274.626833 681.172994,275.522817 682.008551,277.009097 C682.209552,276.98333 682.411722,276.970446 682.611554,276.970446 C684.216057,276.970446 685.756287,277.800842 686.621059,279.244958 C687.859787,281.314505 688.64743,281.608482 688.654442,281.610824 C688.972304,281.545236 690.243753,280.950255 693.113862,276.660073 C693.656097,275.849588 694.014861,275.315511 694.498666,274.829454 L695,274.327001 C692.377637,267.204806 680.948621,236.141682 679.363984,231.494277 C678.993535,230.415582 678.330932,229.328689 677.522253,228.526403 C672.87235,223.866114 668.127789,219.318263 663.461526,214.676714 C662.816452,214.038399 662.179559,213.175209 661.980895,212.312019 C659.863372,203.338124 655.446023,195.640859 649.548043,188.625245 C645.751225,184.103161 642.401986,179.201601 638.751245,174.326979 C638.218359,174.775557 637.769612,175.121067 637.348912,175.508741 C631.717376,180.694908 626.276323,186.114147 620.378343,190.980571 C617.210238,193.586537 613.266176,195.260212 609.642313,197.296966 C609.340812,197.460937 608.721448,197.279397 608.376708,197.063893 C607.360016,196.443145 606.395912,195.726358 605.431808,195.036509 C596.227827,188.443706 589.48611,179.426475 582.012843,171.150628 C570.380489,158.276566 558.791373,145.367368 547.185897,132.475738 C546.789738,132.035359 546.367869,131.612549 545.782395,131 C545.309108,131.60435 544.879059,132.12203 544.4829,132.665476 C537.731834,142.036416 531.034524,151.442492 524.21451,160.752527 C522.716351,162.798651 520.985638,164.792069 518.988481,166.32754 C514.60619,169.701827 511.369138,174.068139 507.917061,178.26111 C501.613573,185.92441 495.319434,193.604106 489.069702,201.318939 C488.200255,202.388263 487.29575,202.923511 485.909778,202.915313 C482.327985,202.905943 478.738012,203.061715 475.156219,203.010182 C474.354552,203.000812 473.433686,202.578001 472.796793,202.069691 C465.116682,195.960602 457.487989,189.807007 449.851116,183.662782 C449.343939,183.257539 448.827413,182.860495 448.17299,182.342816 C434.157838,206.499249 416.638022,236.857298 402,262.127562 C464.279956,279.629118 551.177872,291.415115 648.915824,294 C653.897613,292.745622 660.081902,291.093029 665.358181,289.363136 C665.456345,289.331513 665.593072,289.287007 665.747329,289.234302 L665.747329,289.234302 Z" id="Fill-57-Copy" transform="translate(548.500000, 212.500000) scale(-1, 1) translate(-548.500000, -212.500000) "></path>
                <path d="M410.674159,199.929141 C410.517112,200.102759 410.360064,200.260771 410.187505,200.418782 C397.032344,187.900753 383.875244,175.367118 370.091892,162.230698 C371.23388,168.49654 372.218821,173.945014 373.2057,179.405192 C373.048653,179.434454 372.876094,179.47737 372.719047,179.520287 C370.119036,172.448781 367.563619,165.363619 364.920954,158.307719 C364.362562,156.840747 363.633551,155.389382 362.720348,154.109683 C354.534484,142.611902 346.292392,131.143382 338.063873,119.674862 C337.435682,118.79702 336.865658,117.905522 336.506969,116.815047 C366.318872,147.22545 396.146285,177.637803 425.958188,208.050157 C416.760239,200.518271 407.54484,193.001992 398.346891,185.472057 C398.203415,185.600807 398.05994,185.745163 397.918403,185.873913 C402.174199,190.55964 406.431935,195.243415 410.674159,199.929141 Z M392.516638,82.7084639 C392.674832,83.7853142 392.848651,84.4863378 392.891617,85.2048871 C393.264643,93.0660885 393.581032,100.913659 394.028272,108.761229 C394.114205,110.210011 394.502855,111.717212 395.106337,113.023842 C401.408721,126.86906 407.797037,140.669489 414.158011,154.485497 C414.646265,155.546769 415.06421,156.623619 415.06421,157.957511 C413.410005,155.359829 411.755801,152.750464 410.085972,150.152781 C409.941449,150.224831 409.798878,150.296881 409.654355,150.366983 C412.777228,156.98192 415.898148,163.59491 419.021021,170.209847 C418.876498,170.281897 418.733928,170.353946 418.589404,170.424049 C416.919576,167.769895 415.2517,165.13132 413.5682,162.477167 C413.367039,162.576478 413.163925,162.662159 412.962765,162.763418 C415.870806,169.477667 418.776894,176.191916 421.698606,182.921743 C421.497446,183.050264 421.296285,183.192416 421.093171,183.322884 C402.201645,163.739009 383.294495,144.141504 364.156889,124.314218 C367.350071,119.995133 370.344045,115.935038 373.35169,111.874943 C373.236462,111.732791 373.134905,111.588691 373.019677,111.444592 C370.027656,113.267253 367.020011,115.089915 364.026037,116.910629 C363.883467,116.782108 363.754568,116.638009 363.623716,116.49391 C367.896915,111.545851 372.185739,106.595845 376.458939,101.632208 C376.357382,101.488109 376.257778,101.345957 376.156221,101.201857 C370.732695,104.858864 365.307216,108.533396 359.897361,112.190403 C359.768462,112.032673 359.63761,111.874943 359.508711,111.703581 C370.400682,102.134608 381.292654,92.5636882 392.516638,82.7084639 Z M275.383876,103.237016 C266.053585,109.187108 256.740851,115.178262 247.355941,121.042318 C245.37401,122.282002 244.20943,123.793478 243.433044,125.997143 C231.088893,161.322268 218.656958,196.60242 206.252334,231.89626 C205.864141,233.006891 205.419377,234.115568 204.399151,235.038487 C212.274205,206.989172 220.151209,178.939858 228.026263,150.892499 C227.809733,150.820151 227.595154,150.747804 227.378624,150.691099 C216.745254,179.473665 206.107981,208.258186 195.47461,237.040752 C195.300996,236.939075 195.129333,236.839353 194.955719,236.737675 C199.971018,219.364503 204.972663,201.975687 209.989913,184.602515 C209.802644,184.530167 209.615375,184.471507 209.428105,184.401115 C202.17143,201.328471 194.912803,218.269514 187.654177,235.196869 C187.496168,235.140164 187.33816,235.095192 187.180152,235.038487 C188.976764,226.697018 190.775328,218.355548 192.556334,210.029722 C192.398326,209.957374 192.240318,209.885027 192.080359,209.81268 C188.789495,216.194901 185.498632,222.590809 182.079021,229.23309 C181.474298,228.224136 180.986618,227.488929 180.555509,226.710705 C172.779942,212.651829 165.047291,198.561668 157.172237,184.559497 C156.12275,182.686284 156.337329,181.432913 157.402422,179.747412 C167.663205,163.439899 177.867418,147.089367 188.071631,130.752524 C188.631487,129.858935 189.121118,128.937971 189.107463,127.655269 C180.022963,139.035333 170.926759,150.401709 161.84421,161.781772 C161.641335,161.666408 161.454066,161.537355 161.268748,161.42199 C165.119467,155.112117 168.985793,148.802243 172.175219,143.573671 C167.922651,147.376802 162.762999,151.958157 157.659917,156.510183 C159.472135,153.326894 161.340924,149.998909 163.207763,146.684613 C163.063409,146.569248 162.934662,146.440195 162.792259,146.324831 C160.67963,148.039661 158.567001,149.76818 156.194927,151.68441 C154.856733,147.967314 153.579012,144.451617 152.184248,140.562451 C143.519153,147.15976 135.02377,153.614328 126.530338,160.082584 C126.387936,159.924202 126.229928,159.76582 126.083624,159.607437 C129.103337,155.704584 132.1211,151.786088 135.154468,147.894966 C155.289793,122.051272 175.395857,96.2056231 195.574097,70.4049466 C196.896685,68.7194458 198.519683,67.1062924 200.331901,65.9976161 C205.003874,63.1447789 208.766812,59.4550573 212.188373,55.2061092 C221.58889,43.5366558 231.188379,32.0412274 240.702037,20.4734516 C241.261894,19.7969048 241.880272,19.1614202 242.900498,18.7586207 C239.279963,26.4528732 235.643822,34.1588578 232.021336,41.851155 C232.179345,41.9665199 232.337353,42.0818848 232.495361,42.2128924 C237.770106,36.1317932 243.046802,30.0526493 248.491259,23.7584183 C256.914465,33.0931989 265.206973,42.2832846 273.499481,51.4753255 C273.357078,51.6043778 273.22638,51.7353854 273.097633,51.8644377 C266.400813,46.1294332 259.703994,40.4120267 253.005224,34.6770222 C252.860871,34.8217172 252.702862,34.9664121 252.558509,35.1091518 C260.334076,44.2288452 268.095988,53.3485387 275.871555,62.4662769 C275.697941,62.6676766 275.539933,62.8710317 275.36827,63.0724314 C269.086954,57.9729116 262.793933,52.8733917 256.512617,47.7875592 C256.354609,47.9459416 256.210256,48.1043239 256.052247,48.2627062 C262.591058,56.3734456 269.13182,64.484185 275.697941,72.6086118 C270.035003,81.5112628 264.473503,90.2418442 258.912002,98.9724255 C259.083665,99.1171205 259.270934,99.2598601 259.458203,99.3908677 C263.755638,93.8298882 268.039417,88.2689088 272.334901,82.7079293 C272.52217,82.8232942 272.709439,82.9230164 272.881103,83.0383813 C269.086954,89.6943497 265.27915,96.3503181 261.485001,103.006286 C261.627403,103.092321 261.771756,103.193999 261.91611,103.293721 C265.164057,99.4612599 268.42566,95.6287986 271.689213,91.7846053 C271.847221,91.8843276 272.00523,91.9703624 272.163238,92.0563972 C270.237878,95.8751711 268.296912,99.6919897 266.084797,104.056303 C270.280794,103.035617 273.916935,102.142027 277.53747,101.262126 C277.595991,101.393133 277.654513,101.522185 277.724739,101.63755 C276.948352,102.171357 276.187572,102.732539 275.383876,103.237016 Z M112.830816,147.145257 C112.686397,147.879963 112.198498,148.612715 111.693034,149.189146 C99.7882878,162.779251 87.856219,176.340046 75.9202471,189.902795 C75.6899586,190.176356 75.3737997,190.391296 74.6985469,190.391296 C78.3070512,182.833205 81.9311682,175.277067 85.5396725,167.703344 C85.3679319,167.603689 85.2098525,167.515759 85.0361603,167.416105 C76.1934708,179.911967 67.3371202,192.392197 58.4944307,204.890013 C58.3207385,204.788405 58.1489979,204.702429 57.9772573,204.600821 C61.6423579,197.705137 65.3230713,190.809453 69.0037847,183.913769 C68.7734961,183.784805 68.5588204,183.655841 68.3441446,183.511244 C61.714567,192.09128 55.086941,200.684995 48.0689955,209.755486 C46.3301218,203.651174 44.8488591,198.035364 43.0943728,192.507484 C42.2747017,189.859807 42.4620551,187.628333 43.6837553,185.10962 C49.9386261,172.209279 56.0217563,159.224916 61.6423579,145.95136 C55.9788212,154.459098 50.3269941,162.966835 44.6615058,171.460895 C44.4604912,171.361241 44.2594766,171.259633 44.0584621,171.144347 C53.0865533,153.061984 62.102935,134.979621 71.1329778,116.899213 C70.9592856,116.813237 70.8012062,116.72726 70.6431268,116.63933 C62.0014519,130.473686 53.359777,144.296317 44.7200537,158.130673 C44.5327003,158.015387 44.3453469,157.913778 44.1443324,157.81217 C55.8207418,136.607308 67.4951996,115.400491 79.3999459,93.7931034 C80.6509201,95.3621695 81.7008797,96.6576748 82.7371781,97.9531802 C86.9057909,103.180144 91.2910311,108.260557 95.1883718,113.675105 C98.394847,118.15173 102.260962,121.30354 107.524421,122.960537 C110.615752,123.939493 113.562665,125.420629 116.712544,126.731766 C115.404973,133.65676 114.153999,140.407847 112.830816,147.145257 Z M440.178989,264.047424 C440.237499,262.579647 440.705582,261.129459 441.577386,259.878624 C442.56426,258.465571 443.958756,257.447313 445.528783,256.92548 C445.384457,256.309835 445.240132,255.664873 445.095806,254.990594 C444.249357,251.030919 446.562465,247.077107 450.426096,245.884904 C451.188681,245.648418 451.962967,245.535061 452.723602,245.535061 C452.805516,245.535061 452.88743,245.537016 452.969345,245.53897 C453.650015,242.900489 455.684224,240.723254 458.44201,239.959072 C459.136333,239.765583 459.836506,239.671771 460.526928,239.671771 C463.302267,239.671771 465.92353,241.16691 467.318026,243.647082 C467.653485,243.604084 467.990894,243.582585 468.324403,243.582585 C471.002226,243.582585 473.572779,244.968276 475.016034,247.378089 C477.083398,250.831567 478.39793,251.322129 478.409632,251.326038 C478.940126,251.21659 481.0621,250.223739 485.852145,243.064661 C486.757104,241.712196 487.35586,240.820976 488.163302,240.009887 L489,239.171437 C484.623428,227.286547 465.549064,175.45115 462.904397,167.695971 C462.286138,165.895941 461.180293,164.08223 459.830655,162.743445 C452.070236,154.966768 444.15184,147.377715 436.364116,139.632308 C435.287526,138.567144 434.224589,137.126729 433.89303,135.686314 C430.359007,120.71147 422.986707,107.866955 413.14332,96.1599184 C406.806653,88.6138635 401.216967,80.4345733 395.124092,72.300235 C394.234735,73.0487817 393.485803,73.6253386 392.783679,74.272255 C383.384972,82.9264718 374.30417,91.9696201 364.460784,100.090277 C359.173401,104.438885 352.59099,107.231765 346.542973,110.630519 C346.039785,110.90414 345.006102,110.601203 344.430751,110.241588 C342.733952,109.20574 341.124918,108.009628 339.515884,106.858469 C324.154975,95.8569817 312.90344,80.8098239 300.43099,66.9998204 C281.017266,45.516724 261.675704,23.9749948 242.306838,2.462582 C241.645672,1.72771626 240.941597,1.02216697 239.964475,0 C239.174586,1.00848596 238.456859,1.87234409 237.795692,2.77919969 C226.528555,18.4165954 215.351134,34.112624 203.968926,49.6483894 C201.468585,53.0627789 198.580126,56.389219 195.246988,58.951477 C187.933198,64.5821903 182.530745,71.8683059 176.769429,78.8651659 C166.249273,91.6530024 155.74472,104.468201 145.314281,117.342032 C143.863225,119.126427 142.353658,120.019602 140.04055,120.005921 C134.062746,119.990285 128.071289,120.250225 122.093485,120.16423 C120.755549,120.148594 119.218678,119.443045 118.15574,118.594822 C105.33808,108.400514 92.6062339,98.1319384 79.8607359,87.8789978 C79.0142866,87.2027649 78.1522345,86.5402131 77.0600419,85.676355 C53.6695663,125.986477 24.430009,176.645307 0,218.814092 C103.941633,248.019142 248.969213,267.686573 412.088184,272 C420.402501,269.906805 430.723721,267.149104 439.529524,264.262411 C439.693353,264.209641 439.921544,264.135373 440.178989,264.047424 L440.178989,264.047424 Z" id="Fill-57"></path>
            </g>
        </g>
    </g>
</svg>