<?xml version="1.0" encoding="UTF-8"?>
<svg width="348px" height="120px" viewBox="0 0 348 120" version="1.1" xmlns="http://www.w3.org/2000/svg" xmlns:xlink="http://www.w3.org/1999/xlink">
    <!-- Generator: Sketch 60.1 (88133) - https://sketch.com -->
    <title>Group 11</title>
    <desc>Created with Sketch.</desc>
    <g id="Page-1" stroke="none" stroke-width="1" fill="none" fill-rule="evenodd">
        <g id="BH_HACKINFEST_SINGLEPAGE_2" transform="translate(-1092.000000, -294.000000)" fill="#17A3AC">
            <g id="Group-11" transform="translate(1092.000000, 294.000000)">
                <path d="M155.832717,72.046372 C155.492447,72.8323266 155.162021,73.6236364 154.829356,74.413234 C153.745228,75.2941992 152.813404,75.638205 152.462889,75.5818085 C151.8792,75.488109 152.257835,73.9176514 153.62181,70.4177799 C151.677578,73.2804739 150.539602,74.740285 149.937685,74.7386532 C149.946847,74.6638422 149.956792,74.5890858 149.960479,74.5138921 C150.001593,73.5327849 150.034886,72.551131 150.047682,71.5703777 C150.059708,70.6455758 150.204634,69.7534005 150.567036,68.8982088 C150.817364,68.3082076 151.057848,67.7128512 151.29213,67.1162833 C151.513916,66.5522895 151.820942,66.03937 152.203526,65.5698476 C152.8331,64.7940063 153.447117,64.0046317 154.10557,63.2541448 C154.664905,62.6172955 154.91324,61.9096996 154.831064,61.0732098 C154.803652,60.802157 154.815778,60.5276456 154.819085,60.2556289 C154.820565,60.1670573 154.851873,60.0790154 154.880985,59.932481 C155.465608,60.271269 156.01696,60.5688384 156.370746,61.1178431 C156.560026,61.4118799 156.674807,61.7372675 156.655137,62.0859252 C156.611753,62.8747445 156.540159,63.6623695 156.495157,64.4518535 C156.382095,66.439137 156.271326,68.4273586 156.172342,70.4156263 C156.143877,70.9799118 156.059509,71.5231764 155.832717,72.046372 Z M143.714037,71.297187 C143.31716,70.6718318 142.846958,69.8954406 142.305122,68.977445 C143.94782,74.3776378 142.520744,72.8443841 139.549596,69.1526851 C141.116322,72.8703795 138.612138,70.4833805 136.721418,68.9766983 C136.140949,69.7207712 132.348547,70.7649524 133.25671,68.9339423 C132.098504,70.1700413 130.967329,71.4344181 130.257518,71.7410325 C129.547761,72.0468746 129.259368,71.3949544 129.786673,68.799232 C126.885605,73.1514445 125.491846,75.0090436 126.153753,68.7850743 C124.13975,75.2397112 123.464244,76.2216167 122.744928,69.120313 C122.229024,76.339381 121.63293,75.984157 119.2092,69.4427995 C120.962715,75.8255415 120.04092,73.6143612 117.968725,68.4138727 C118.216757,72.8038516 117.947957,72.4210613 115.21844,69.1979543 C117.60661,72.873733 115.740964,71.4681466 112.820935,69.433149 C114.264646,71.9167559 111.612667,69.669991 110.173777,69.1239075 C110.170207,69.0964938 110.164241,69.0696888 110.162231,69.0423842 C110.134771,68.7176001 110.205555,68.4229677 110.490535,68.1821156 C110.61524,68.2599081 110.736879,68.3367101 110.911133,68.4459067 C110.998331,68.2416752 111.073387,68.0653113 111.16352,67.8527477 C111.255241,67.9313387 111.338086,68.0023241 111.463025,68.1104015 C111.486414,67.9777685 111.515925,67.8921305 111.514011,67.8074 C111.498862,67.1272393 111.428212,66.4447506 111.469238,65.768517 C111.535996,64.6571289 111.618791,63.5406529 111.804433,62.4445611 C111.894869,61.913811 112.208412,61.4103001 112.473738,60.9235973 C112.582619,60.7232101 112.819279,60.5790989 113.020182,60.4418014 C113.402399,60.1782547 113.612497,59.8646455 113.532351,59.3739698 C113.50208,59.1902424 113.605771,58.9856116 113.663094,58.7265157 C113.856967,58.8130243 114.005408,58.8653121 114.139638,58.9414422 C114.330547,59.0479225 114.505196,59.185087 114.699657,59.2856068 C114.918221,59.4002295 115.026441,59.3550192 115.109906,59.1256911 C115.156377,58.9993284 115.191901,58.8613349 115.190996,58.7285557 C115.185108,58.1289823 115.469081,57.6334937 115.759025,57.1423031 C115.809763,57.0558207 115.914143,56.9870585 116.009153,56.9401487 C116.684588,56.6093997 117.407619,56.4612611 118.154619,56.4187977 C118.286101,56.4109151 118.428169,56.453444 118.555978,56.4980804 C118.994389,56.6529084 119.435466,56.7023709 119.890822,56.5813099 C119.981872,56.5574067 120.079451,56.5634523 120.204073,56.5527618 C120.24296,56.9047327 120.499514,56.913355 120.772128,56.9277567 C122.053895,56.99641 123.324782,56.9067511 124.591206,56.7127805 C125.296496,56.6053118 126.005081,56.4507305 126.720176,56.595409 C128.042998,56.8617376 129.375341,56.7453304 130.706982,56.7398587 C131.543723,56.7370421 132.383663,56.7445387 133.216995,56.8128865 C133.616913,56.8455015 134.016771,57.0022908 134.395779,57.1545182 C134.978347,57.3892746 135.55983,57.4601946 136.165837,57.2813675 C138.33684,56.6415039 140.505989,55.9945255 142.678847,55.3617766 C143.323114,55.1739825 143.97894,55.0226978 144.630331,54.8563568 C144.693425,54.8398126 144.75961,54.8351262 144.850851,54.8981613 C144.110457,55.1824586 143.370116,55.4659836 142.579728,55.7700694 C142.61462,55.9774033 142.627317,56.1769768 142.683172,56.3648212 C143.103424,57.7881058 143.530081,59.2095098 143.959965,60.6295873 C144.39036,62.0535811 144.554965,63.5001276 144.419768,64.9846997 C144.319491,66.0821028 144.253435,67.1834505 144.19919,68.2840717 C144.149351,69.3104937 143.992871,70.3147142 143.714037,71.297187 Z M104.015199,69.877635 C104.004563,69.9236742 104.00221,69.9679136 103.995375,70.0126326 C103.605377,70.2129382 103.248466,70.3537085 102.944639,70.2444529 C102.693137,70.3307439 102.486901,70.3742097 102.306784,70.3941278 C102.327438,70.1624509 102.344457,69.9297269 102.371752,69.6985144 C102.462738,68.9278058 102.587892,68.1563143 102.765925,67.4027922 C102.889081,66.8825191 103.122293,66.3897633 103.316723,65.8895386 C103.441523,65.5684054 103.580753,65.2530385 103.723507,64.9402967 C103.799798,64.7719791 103.898304,64.6147296 103.986017,64.4527608 C104.011405,64.4608791 104.036793,64.4689974 104.062236,64.4763267 C104.074365,64.6103865 104.098413,64.7436937 104.097259,64.8768249 C104.081313,66.4195408 104.062471,67.9612613 104.042835,69.5037192 C104.040757,69.6288565 104.043624,69.7575113 104.015199,69.877635 Z M80.264388,21.1361533 C79.7763307,21.4796366 79.3726766,21.4753552 78.8923537,21.1205426 C78.772863,21.0318807 78.6558936,20.9410785 78.4577261,20.790546 C78.4930824,20.9744837 78.5172102,21.0364017 78.5137508,21.0971632 C78.503788,21.2509058 78.5282286,21.5004891 78.4530602,21.5353882 C78.3158475,21.598382 78.0908601,21.5826531 77.949626,21.5110038 C77.7572438,21.4133851 77.6077473,21.233823 77.4198798,21.0716556 C77.4037556,21.3021869 77.3888676,21.5150441 77.3741946,21.7248276 C76.939147,21.7059963 76.8805668,21.2663829 76.5707656,21.095691 C76.5800934,21.3805109 76.5876572,21.6227368 76.5959149,21.8889493 C76.1356498,21.8011741 76.2031224,21.3224969 75.8671266,21.1646454 C75.8773779,21.4927729 75.8874728,21.7892294 75.8999326,22.176198 C75.6284486,21.98888 75.4422033,21.8600303 75.23034,21.7131736 C75.2417297,21.9572113 75.2507496,22.1447131 75.2620856,22.3895193 C74.9321633,22.2691578 74.7609771,22.1058399 74.6650767,21.8381335 C74.5831164,21.6084671 74.4574398,21.3935049 74.3511807,21.1721783 C74.2694357,21.5610552 74.5119889,21.8907512 74.4363564,22.2939549 C73.9996278,22.0279037 73.7371391,21.700675 73.5992128,21.2539701 C73.3163194,20.3369022 73.2272543,19.4063581 73.2819934,18.4542072 C73.3148672,17.8711815 73.607508,17.5186698 74.1724,17.3651126 C74.2361056,17.3471726 74.2998649,17.3284641 74.3636779,17.3089873 C75.2759063,17.0268178 75.2734388,17.0281896 75.53626,17.9044723 C75.593428,18.0930236 75.6852827,18.2716447 75.7610278,18.4545449 C75.7933008,18.4452182 75.8256275,18.435123 75.8579542,18.4250279 C75.8441948,18.2487777 75.8319549,18.0734059 75.8157817,17.8977591 C75.7284757,16.9194618 75.7389854,15.9441418 75.9337369,14.9793856 C76.0857446,14.2301724 76.2471923,13.4816192 76.4404634,12.7414683 C76.679762,11.8292468 76.9502049,10.9238359 77.2229002,10.0201268 C77.2908371,9.79476208 77.3619597,9.54645425 77.6775411,9.43106582 C77.7006917,9.57476819 77.7364144,9.69695581 77.7373623,9.81902893 C77.7403869,10.047038 77.7141973,10.274549 77.7164352,10.502503 C77.7207402,11.1529923 77.699603,11.805564 77.7507514,12.4531505 C77.8709316,13.9673329 78.5277326,15.2348627 79.6993083,16.2403131 C80.4472747,16.8825605 80.9789218,17.6564022 81.2193302,18.6044766 C81.4758386,19.6162243 81.1240805,20.5313944 80.264388,21.1361533 Z M199.786731,81.6509896 C198.22031,79.7827915 196.159052,78.5406793 196.141809,77.8819177 C196.673811,76.8585858 191.019802,77.2708115 190.696474,77.501234 C190.416347,77.8963325 189.356172,78.3235826 187.995575,78.2737581 C186.444798,78.2941992 181.533709,79.238644 183.492653,76.1877739 C180.255008,77.1797052 176.560715,79.8164024 177.826538,78.6506974 C174.067778,81.7061603 173.498445,80.9720975 176.802895,74.968042 C172.542393,80.7935846 171.872215,81.456612 174.407233,74.8411703 C171.234435,81.2987877 170.845746,81.0107786 170.113137,73.74831 C169.796747,80.7976537 169.308145,80.1387391 166.895005,73.455388 C168.677512,80.1469748 168.216081,79.6695771 164.978888,73.5916393 C167.503205,79.5236836 165.842759,78.0386041 163.184097,72.9655793 C164.788985,76.1390838 163.522599,75.6475828 161.410487,74.0707944 C161.431614,73.7575504 161.446464,73.4446484 161.460591,73.1309149 C161.511064,71.9622441 161.837614,70.8698829 162.356864,69.8276978 C163.02051,68.4980672 163.817695,67.2597715 164.821879,66.1577747 C165.163874,65.7834013 165.504368,65.4081421 165.826447,65.0167575 C166.249288,64.5035611 166.604655,63.9380099 166.672062,63.2648615 C166.783785,62.1481104 166.603331,61.1069895 165.721195,60.2963924 C165.59117,60.1771891 165.465398,60.0418831 165.37988,59.8898678 C164.479412,58.290796 163.959425,56.5941533 164.19146,54.740791 C164.366586,53.3434272 164.895484,52.0738805 165.957797,51.1243271 C167.793083,49.4837903 168.831963,47.39398 169.551958,45.102259 C169.666621,44.7369831 169.770612,44.3678373 169.883774,44.0016755 C169.906106,43.928266 169.947614,43.8601017 170.012123,43.7201366 C170.154755,44.1955517 170.134738,44.6158629 170.128145,45.0230556 C170.088868,47.3951653 169.713088,49.7054838 168.863098,51.9334507 C168.660187,52.4651462 168.552792,53.0394427 168.45088,53.6024083 C168.306989,54.3967229 168.206336,55.1987458 168.093398,55.9975672 C168.076634,56.114318 168.090153,56.2339668 168.089224,56.4595952 C168.322638,56.2517818 168.4852,56.1069574 168.70613,55.9099854 C168.739525,56.0919375 168.780124,56.2267556 168.78778,56.3631754 C168.835679,57.2653924 168.874966,58.1677883 168.919752,59.0697878 C168.924446,59.1591437 168.937697,59.2490979 168.949644,59.3577036 C169.178933,59.3206289 169.182497,59.1467272 169.223523,59.0183964 C169.343778,58.6402354 169.446413,58.2569378 169.562833,57.8777277 C169.635584,57.6422825 169.722843,57.4117562 169.798651,57.1773057 C169.892375,56.8878796 170.064406,56.6859271 170.35657,56.5657821 C170.815358,56.3768484 171.143908,56.0382395 171.398819,55.6124833 C171.979517,54.6417553 172.24877,53.5750644 172.424353,52.47293 C172.635272,51.1561631 172.590929,49.8231127 172.706058,48.5012109 C172.850928,46.8323058 172.798843,45.1629075 172.797539,43.4939355 C172.796274,41.958508 172.578803,40.4407652 172.360609,38.9221909 C172.183648,37.6970111 171.841802,36.5157512 171.494347,35.336442 C171.037536,33.787129 170.325503,32.355077 169.327309,31.0802941 C169.016567,30.6837162 168.615544,30.3597023 168.276777,29.9838126 C167.472404,29.0896242 166.503672,28.3994864 165.524898,27.7187989 C165.120107,27.4374736 164.731221,27.129927 164.310471,26.8756 C163.63252,26.4650648 162.935064,26.0875275 162.24215,25.7009364 C162.07594,25.6073174 161.890225,25.5466963 161.725843,25.4493003 C160.706808,24.8524831 159.624819,24.3957398 158.522112,23.9781572 C157.909107,23.7455322 157.315465,23.4595946 156.716846,23.1889281 C155.627299,22.6949519 154.464696,22.4184379 153.33948,22.0320814 C152.375358,21.70072 151.371906,21.5516931 150.382408,21.3372613 C149.860315,21.2242291 149.33522,21.1094251 148.805161,21.0544069 C147.566505,20.9264223 146.321493,20.8557833 145.082603,20.7199729 C144.295258,20.6329108 143.514089,20.4799001 142.732611,20.3424867 C139.911742,19.8461774 137.241607,18.8488866 134.563074,17.8822465 C133.559735,17.5192484 132.572827,17.1113232 131.578336,16.7223916 C131.47866,16.6834044 131.383796,16.6314776 131.243019,16.5654078 C131.364472,16.4942421 131.452399,16.444161 131.576239,16.3723813 C131.485001,16.2574514 131.40004,16.1421794 131.305201,16.0340262 C131.155318,15.863454 130.949004,15.7396982 130.950463,15.4617836 C130.951503,15.379857 130.826359,15.2914517 130.748739,15.2165212 C130.186313,14.674273 129.62045,14.1364701 129.058024,13.5942219 C128.891767,13.4342193 128.733942,13.2654347 128.559546,13.0876822 C128.793025,12.7783504 128.660134,12.5660141 128.436373,12.334049 C127.685122,11.5521258 126.900326,10.8139332 125.997219,10.2025732 C125.590437,9.92735621 125.222177,9.59313764 124.854984,9.26602214 C124.559949,9.00252214 124.340884,8.68107661 124.131229,8.33686055 C123.736536,7.68763484 123.359684,7.00685668 122.681428,6.5783383 C122.500241,6.46414859 122.356962,6.28857144 122.180647,6.12708463 C122.262446,6.03049936 122.329771,5.95086393 122.402198,5.86533763 C122.379697,5.82940296 122.364414,5.79084915 122.337371,5.76396831 C121.856748,5.27039092 121.319292,4.85171594 120.721225,4.50611714 C120.140396,4.1710949 119.566715,3.82329626 118.989597,3.47994296 C118.809477,3.37285634 118.647068,3.25841755 118.655236,3.00752407 C118.660356,2.83373116 118.522494,2.7483415 118.380053,2.68371724 C117.260423,2.17279995 116.167755,1.600511 114.98745,1.23060787 C114.862772,1.1914347 114.747486,1.11855658 114.627278,1.0601723 C114.65993,0.906265926 114.685307,0.789336234 114.722484,0.615441605 C113.836624,0.450426267 112.963397,0.406559697 112.053172,0.54519074 C112.031643,0.383591797 112.013368,0.24252494 111.988965,0.054953893 C111.825605,0.0435333825 111.654775,0.0159717435 111.484665,0.0228220429 C111.142835,0.0371910204 110.801926,0.0719289327 110.46033,0.0941237493 C110.365279,0.100754834 110.248481,0.127732028 110.177135,0.0860397646 C109.878291,-0.0894796436 109.623973,0.0372159034 109.363938,0.167416494 C108.395966,0.65109312 107.425878,1.13149801 106.460691,1.62005504 C106.118663,1.79372308 105.78652,1.89311145 105.398105,1.74647265 C105.264021,1.69648961 105.074476,1.74649515 104.924153,1.794557 C104.72985,1.85672495 104.551733,1.96688123 104.363234,2.04663584 C104.218211,2.10834422 104.067997,2.15485177 103.920405,2.20857117 C103.897757,2.18590235 103.873554,2.16312477 103.850129,2.14040157 C103.972021,1.85060181 104.092411,1.55991613 104.214357,1.26933922 C104.194658,1.24921937 104.174181,1.22904514 104.153705,1.20887091 C103.966562,1.3027773 103.770176,1.38354236 103.592728,1.49530731 C103.081805,1.81491893 102.58074,2.15005768 102.071879,2.47371818 C101.925459,2.56656676 101.76645,2.63823067 101.564272,2.74592391 C101.561203,2.52157794 101.55961,2.35434427 101.556361,2.1213953 C101.397009,2.18678766 101.266715,2.21672606 101.166375,2.28780585 C100.943441,2.44637141 100.743226,2.63776307 100.51823,2.79227975 C100.328587,2.92193483 100.11561,3.01637799 99.9139382,3.12801135 C99.7838747,3.199356 99.6459065,3.26077669 99.5257552,3.34687133 C99.171236,3.59854162 98.8230656,3.86002711 98.3870935,4.1809738 C98.4265612,3.90727824 98.4520157,3.73334501 98.489564,3.47591512 C97.7265251,3.80132965 97.2113203,4.40568707 96.5097359,4.73539789 C96.2422705,4.48007285 95.9987006,4.58721521 95.7400714,4.76437084 C95.3107235,5.05766659 94.8671221,5.33122319 94.4278076,5.6105461 C94.2011848,5.75479674 93.9686009,5.81663135 93.6863337,5.76175548 C93.5305558,5.7313414 93.3379712,5.79128669 93.1846248,5.86022269 C92.3733691,6.22678029 91.5715908,6.61430503 90.7602807,6.98163977 C90.5560783,7.07357257 90.3294663,7.11708199 90.113001,7.18316723 C90.0916207,7.15355849 90.0702947,7.1231726 90.0481365,7.09350948 C90.1617625,6.95541625 90.2600853,6.8014152 90.3910764,6.68327866 C90.8167799,6.2967956 91.2577867,5.92622036 91.6856609,5.54223189 C91.8349074,5.40897173 91.9637316,5.2547602 92.1020706,5.10980425 C92.0845798,5.08046743 92.0663111,5.05107622 92.0488746,5.02096225 C91.8680842,5.09110342 91.6817772,5.15070662 91.5063403,5.23371719 C90.5281672,5.69559513 89.5600864,6.18082605 88.5724359,6.62173684 C88.0374427,6.86079019 87.4736911,7.04160495 86.9132686,7.21952867 C86.6662645,7.29753596 86.4536138,7.38731625 86.3177028,7.6652027 C85.2083436,7.36507784 84.0929547,7.62056472 82.9485332,7.6764427 C82.9312912,7.52061007 82.9174628,7.41655851 82.9091341,7.31211048 C82.8828809,7.00570632 82.8000871,6.92650932 82.4928992,6.95969999 C82.2889213,6.98136339 82.0893356,7.04081922 81.8853034,7.06325977 C81.7277112,7.08113748 81.5668479,7.06754868 81.3893938,7.06763798 C81.4374148,6.82812105 81.4768378,6.63329787 81.515826,6.44469186 C81.0928401,6.28938865 79.525457,6.636666 78.3909214,7.1211933 C77.7203839,6.58232025 76.9026209,6.7289772 76.1212576,6.70168515 C75.8506723,6.69213986 75.571832,6.73355988 75.3071365,6.79627335 C74.8572212,6.90304712 74.4149906,6.87759738 73.9605141,6.8372345 C73.3063333,6.77978651 72.6482764,6.76658143 71.9911435,6.74016488 C71.7175009,6.72962491 71.4428425,6.74478513 71.1694173,6.73113658 C70.8243705,6.71326191 70.4846941,6.71919105 70.1558602,6.83833436 C70.1173793,6.85204401 70.0762929,6.86947624 70.0371802,6.86986565 C69.2023552,6.86929297 68.528401,7.31807727 67.8271934,7.67592848 C67.4380356,7.87519667 67.0756287,8.12787742 66.7037443,8.35959101 C66.3433484,8.58351738 66.0979836,8.89514201 65.9349776,9.29218081 C65.6532459,9.97845977 65.4070803,10.6703489 65.3237821,11.4142334 C65.2993905,11.6288501 65.2267688,11.840095 65.1682581,12.0507646 C64.9424329,12.8541891 64.7121034,13.6549559 64.487834,14.4584891 C64.4597099,14.5588268 64.4614892,14.6675027 64.4466776,14.7898566 C64.5960354,14.8002982 64.714277,14.8085645 64.886194,14.8205832 C64.7289936,15.7381377 64.3273377,16.5854979 64.1524219,17.543985 C64.3160441,17.4734245 64.4418545,17.4181824 64.6054766,17.3476219 C64.6322371,17.4791297 64.6566469,17.5995399 64.6969507,17.7944702 C64.9608453,17.6090923 65.1836159,17.4528581 65.4828629,17.2426186 C65.4467786,17.512646 65.4376226,17.6994328 65.3954515,17.877664 C65.2338976,18.566878 64.9109441,19.1831138 64.5213831,19.768141 C63.8332191,20.8000792 63.2651545,21.891956 62.9816836,23.1060326 C62.804347,23.8644283 62.6326357,24.6318077 62.5574933,25.4043763 C62.430751,26.7246852 62.374635,28.0522744 62.3022373,29.3779444 C62.2800491,29.795761 62.2022697,30.1925104 62.0052738,30.5614018 C61.4629791,31.5754237 60.9500442,32.6055552 60.3649309,33.5947171 C59.8870983,34.4023903 59.7555759,35.2545785 59.8259792,36.1591498 C59.9015488,37.1351483 60.1510128,38.0725422 60.4943895,38.9860448 C60.7046004,39.5458407 61.0758353,39.9716379 61.5638211,40.3040742 C62.1712166,40.7174864 62.8439536,40.9902108 63.5457351,41.1829664 C64.152361,41.3503269 64.6343241,41.6682852 65.0167855,42.1682761 C65.4078751,42.6790226 65.8261575,43.1698036 66.2387228,43.6640896 C66.6116017,44.1110873 66.8120127,44.6209985 66.84569,45.2012527 C66.9014182,46.1368167 67.1409904,47.0368147 67.3965013,47.9324604 C67.4421996,48.0949681 67.546044,48.2420171 67.6324278,48.4151786 C67.8221592,48.3066152 67.9710761,48.2115983 68.1290729,48.1320542 C68.4224699,47.9831004 68.5557598,48.0220946 68.6728479,48.3262586 C68.8051101,48.6705308 68.9076657,49.0260022 69.0198279,49.3782405 C69.0826366,49.575525 69.1591251,49.7448709 69.3442895,49.8804242 C69.4559201,49.9608562 69.4866716,50.1582425 69.5451257,50.306023 C69.613672,50.4771565 69.5761611,50.7228748 69.8067605,50.7788243 C70.0242442,50.8322949 70.1598556,50.648101 70.2828709,50.5098832 C70.6732123,50.0701665 71.0488653,49.6169278 71.4303611,49.1695642 C71.5428287,49.0368566 71.6568521,48.9042578 71.7590608,48.7841091 C71.82415,48.8034974 71.8593731,48.8028361 71.8738441,48.8194667 C72.200905,49.2062522 72.4460913,49.2101171 72.858051,48.7742546 C73.1180837,48.4987979 73.2830357,48.1745231 73.3865367,47.8123716 C73.5609442,47.2076174 73.756029,46.6089944 73.9158737,46.0000983 C74.144872,45.1289534 74.6505148,44.4489567 75.3315728,43.887432 C76.106459,43.2473436 76.1838557,43.2137072 77.10968,43.5338008 C77.2516525,43.5827734 77.3972259,43.6249692 77.5411891,43.6678334 C77.9477882,43.7891913 78.2692757,44.0209599 78.534091,44.3588799 C79.2689713,45.2966287 80.0187236,46.2229221 80.7659792,47.1513837 C80.875252,47.287879 81.0036124,47.4085279 81.1279915,47.5413937 C81.2383525,47.4835096 81.3219012,47.4401509 81.3495458,47.4249027 C81.6384844,47.5185113 81.8862315,47.597526 82.1347022,47.6773723 C82.1576081,47.6516405 82.1805683,47.6251316 82.2043065,47.5986771 C82.6702927,48.6144648 83.1371654,49.6287525 83.6100066,50.6582955 C84.0151029,50.4546749 83.9296926,49.9770128 84.2512716,49.6933637 C84.3531253,49.8465211 84.4602818,49.9797447 84.5366821,50.1279989 C84.8575489,50.748635 85.1687003,51.3740586 85.4856233,51.9952 C85.5584601,52.1385194 85.644287,52.2749375 85.7453967,52.4499094 C85.9819231,52.063477 85.824147,51.6034031 86.1597525,51.2645066 C86.2889826,51.3727211 86.4297014,51.4731485 86.5493961,51.5947535 C86.8384762,51.8875131 87.1151267,52.190337 87.399991,52.4874876 C87.6972101,52.797997 87.6980967,52.7964971 88.1251774,52.7256123 C88.6814669,53.4673536 89.0913701,54.3238123 89.6713228,55.0625222 C89.7037605,55.0569805 89.7361982,55.0514388 89.7686902,55.0451199 C89.8011326,54.8271613 89.8336837,54.6076484 89.8715207,54.3572672 C90.1321383,54.5316761 90.2108035,54.8151922 90.349952,55.0498324 C90.5029735,55.3096518 90.6332353,55.5819371 90.7814263,55.8437616 C90.9218757,56.0933308 91.0729271,56.3366126 91.2288972,56.5989809 C91.316118,56.5590027 91.3823523,56.5284906 91.4889494,56.4797148 C91.7847929,57.3016474 92.0787918,58.1164226 92.3832261,58.9608223 C92.6374391,58.8021006 92.6786016,58.5824088 92.7533564,58.38537 C92.8283831,58.1844455 92.894238,57.9805369 92.9884852,57.7059853 C93.0919659,57.8694088 93.1596534,57.9522354 93.2007459,58.0464788 C93.3958445,58.4982286 93.5924988,58.9500872 93.7698856,59.4091892 C93.8307446,59.5672902 93.8842257,59.6967613 94.0518111,59.7818861 C94.3870907,59.9505814 94.4940081,60.288396 94.6016865,60.6153305 C95.0661822,62.03242 95.5314559,63.4495639 95.9902889,64.8693813 C96.2512185,65.676378 96.4921568,66.4897866 96.7538643,67.2968376 C96.8914184,67.7219171 96.8323836,68.0965486 96.5640379,68.4573281 C96.3189787,68.7869359 96.1044546,69.138202 95.8735233,69.4781687 C95.5596678,69.9419753 95.5053065,70.4286087 95.6931418,70.9618501 C95.9117226,71.580802 95.8795544,71.940131 95.5361289,72.3237757 C94.2350742,72.2273523 92.7689187,71.8202845 91.5502928,71.49534 C91.4096134,72.7131516 86.2860316,73.4545331 85.9638702,73.4335727 C83.1470017,74.7688606 84.8233873,72.6955043 83.1825052,72.3277638 C83.5497257,72.0621435 82.3179179,72.015075 81.0019446,72.8695813 C78.278985,73.7116292 77.9765333,73.6100474 75.5509592,74.2237639 C75.6415517,74.9626242 74.6719595,74.8659449 73.2798622,74.8529655 C71.886209,74.8398772 67.4429471,77.3437766 68.4651233,75.9845446 C65.3634459,79.0336207 60.8771353,82.9800409 65.0884303,77.4892076 C59.8184767,83.0950188 58.1823403,84.8611535 61.3792874,77.7453253 C57.7366223,84.6285094 57.3962565,85.1584048 59.0824527,77.6472291 C57.0358571,85.4159116 56.8079772,86.1481264 56.5062093,78.8392453 C56.5785758,83.0239254 52.9004411,84.7925597 48.8581837,85.7766591 L47.9219116,84.7006606 L47.1440065,84.6462773 L44.1410989,82.8744526 L41.1925477,80.3254824 L38.9675452,78.6080411 L34.3001147,78.2817408 L30.3018767,79.564115 L27.2989691,77.7922904 L24.1329925,78.3519024 C24.1329925,78.3519024 23.3007311,79.0746646 22.4684697,79.7974267 C21.6362083,80.5201889 16.3165018,89.5196354 12.1926347,81.4218795 C12.6444018,86.1391362 9.5918599,80.7629014 9.18972714,79.6500548 C9.53278149,85.9216027 6.91931836,84.8181605 5.91503784,81.7639579 C6.41849029,85.3063811 7.24936852,86.8498264 3.71197296,86.0027607 C4.58216935,87.8222857 2.92120582,88.3004673 1.11019841,88.7556641 C0.745764432,88.8473284 0.374438026,88.9369489 1.17239551e-13,89.0263518 C5.37640034,89.4873393 10.7950349,89.9144835 16.2621454,90.2967811 C88.4011721,95.340024 154.121354,92.4179237 201.710526,83.6402281 C201.12884,83.0380625 200.461792,82.3487109 199.786731,81.6509896 L199.786731,81.6509896 Z" id="Fill-60"></path>
                <g id="Group-14-Copy" transform="translate(300.592105, 61.973684) scale(-1, 1) translate(-300.592105, -61.973684) translate(163.421053, 3.947368)">
                    <path d="M255.929484,99.2813138 C255.892296,99.3229822 255.855108,99.3609052 255.814247,99.3988281 C252.69918,96.3944872 249.583655,93.3864008 246.319837,90.2336454 C246.590253,91.7374545 246.823481,93.0450942 247.057169,94.3555431 C247.019981,94.3625658 246.97912,94.3728659 246.941932,94.383166 C246.326264,92.6859966 245.721156,90.9855499 245.095388,89.2921261 C244.963165,88.9400512 244.790539,88.5917218 244.574298,88.2845927 C242.635932,85.5251124 240.684252,82.7726548 238.735786,80.0201972 C238.587035,79.8095141 238.452056,79.5955537 238.367121,79.3338385 C245.426407,86.6323691 252.489367,93.9313678 259.548654,101.230366 C257.370632,99.4227056 255.188479,97.6187901 253.010458,95.8115973 C252.976483,95.8424975 252.942509,95.8771432 252.908994,95.9080434 C253.916742,97.0326229 254.924949,98.1567343 255.929484,99.2813138 Z M251.598334,71.2489667 C251.635965,71.5049521 251.677312,71.6715973 251.687533,71.8424086 C251.776266,73.7111488 251.851527,75.5766488 251.957915,77.4421487 C251.978356,77.7865487 252.070807,78.1448358 252.21436,78.4554438 C253.713543,81.7466856 255.233167,85.0272807 256.746286,88.311579 C256.86243,88.5638612 256.961849,88.8198467 256.961849,89.1369354 C256.568354,88.5194225 256.174859,87.8991322 255.777648,87.2816193 C255.74327,87.2987467 255.709356,87.3158742 255.674977,87.3325387 C256.417832,88.9050209 257.160222,90.4770402 257.903077,92.0495224 C257.868699,92.0666498 257.834785,92.0837772 257.800406,92.1004417 C257.403195,91.4695047 257.006448,90.8422708 256.605985,90.2113337 C256.558134,90.2349418 256.509818,90.2553095 256.461967,90.2793805 C257.153718,91.8754708 257.845005,93.471561 258.540009,95.0713545 C258.492158,95.1019061 258.444307,95.1356981 258.395991,95.1667126 C253.90216,90.511295 249.404613,85.8526371 244.852245,81.1393566 C245.611825,80.1126373 246.324018,79.1474841 247.039463,78.1823309 C247.012053,78.148539 246.987895,78.1142842 246.960485,78.0800293 C246.248757,78.5133067 245.533312,78.9465841 244.821119,79.3793986 C244.787205,79.348847 244.756543,79.3145922 244.725416,79.2803373 C245.741906,78.1041003 246.762112,76.9274003 247.778601,75.74746 C247.754443,75.7132052 247.73075,75.6794133 247.706592,75.6451584 C246.416468,76.5144907 245.12588,77.387989 243.839008,78.2573213 C243.808346,78.2198261 243.777219,78.1823309 243.746558,78.1415954 C246.337491,75.8668891 248.928424,73.5917198 251.598334,71.2489667 Z M223.690758,76.167353 C221.477261,77.581479 219.26793,79.0053639 217.041476,80.3990424 C216.571287,80.6936713 216.295005,81.0528956 216.110817,81.5766287 C213.182319,89.9721591 210.232996,98.3570011 207.290152,106.745096 C207.198058,107.009054 207.092543,107.272547 206.850507,107.491892 C208.718766,100.825564 210.587489,94.1592359 212.455748,87.4933725 C212.404379,87.4761781 212.353473,87.4589836 212.302104,87.4455069 C209.779468,94.2861029 207.255906,101.127164 204.73327,107.96776 C204.692082,107.943595 204.651357,107.919894 204.610169,107.895729 C205.799987,103.766741 206.986566,99.6340363 208.176846,95.5050488 C208.132419,95.4878544 208.087992,95.473913 208.043564,95.4571832 C206.322008,99.4802158 204.599988,103.506501 202.877968,107.529534 C202.840483,107.516057 202.802997,107.505369 202.765512,107.491892 C203.191736,105.509421 203.618423,103.526949 204.040945,101.548195 C204.003459,101.531001 203.965974,101.513806 203.928025,101.496612 C203.147309,103.013439 202.366592,104.53352 201.555331,106.112155 C201.411868,105.872362 201.296172,105.69763 201.193897,105.512674 C199.34924,102.171377 197.514763,98.822645 195.646504,95.4948251 C195.397526,95.0496287 195.448432,94.7517468 195.701113,94.351163 C198.135357,90.4754448 200.556181,86.589503 202.977004,82.7068141 C203.109823,82.4944396 203.225982,82.2755592 203.222742,81.9707065 C201.067557,84.6753443 198.909595,87.3767292 196.754872,90.081367 C196.706742,90.0539489 196.662315,90.0232777 196.618351,89.9958596 C197.531886,88.4962262 198.449125,86.9965928 199.205777,85.7539465 C198.196907,86.657816 196.972843,87.7466418 195.7622,88.828497 C196.192126,88.0719419 196.635474,87.280998 197.078358,86.4933071 C197.044112,86.4658889 197.013568,86.4352178 196.979785,86.4077996 C196.47859,86.8153542 195.977395,87.2261617 195.414649,87.6815818 C195.097179,86.7981597 194.794056,85.9626032 194.463165,85.0382863 C192.407478,86.6062327 190.392053,88.1402549 188.377091,89.6775302 C188.343308,89.6398883 188.305823,89.6022465 188.271114,89.5646046 C188.987504,88.6370346 189.703431,87.705747 190.42306,86.7809653 C195.199917,80.638835 199.969833,74.49624 204.756872,68.3643335 C205.070639,67.9637497 205.455676,67.5803603 205.885602,67.3168672 C206.99397,66.6388489 207.886681,65.7619328 208.698404,64.7521084 C210.928561,61.9786928 213.205921,59.2466369 215.462919,56.4973864 C215.595738,56.3365953 215.742441,56.1855631 215.984477,56.0898319 C215.12555,57.9184831 214.26292,59.7499226 213.40353,61.578109 C213.441015,61.6055272 213.478501,61.6329453 213.515986,61.6640812 C214.767355,60.2188194 216.019186,58.7740223 217.310816,57.2781066 C219.309118,59.4966532 221.276413,61.6808109 223.243708,63.8654333 C223.209925,63.8961045 223.178918,63.9272403 223.148375,63.9579115 C221.559637,62.5949041 219.970899,61.2360792 218.381698,59.8730719 C218.347452,59.9074607 218.309967,59.9418496 218.275721,59.9757738 C220.120378,62.1432017 221.961796,64.3106297 223.806454,66.477593 C223.765266,66.5254586 223.72778,66.5737889 223.687055,66.6216545 C222.196891,65.4096793 220.703949,64.1977041 219.213784,62.988982 C219.176299,63.0266238 219.142053,63.0642657 219.104567,63.1019076 C220.655819,65.0295429 222.207535,66.9571783 223.765266,68.8880666 C222.421804,71.0039113 221.102406,73.0788611 219.783009,75.1538109 C219.823734,75.1881998 219.868161,75.2221239 219.912588,75.2532598 C220.932102,73.931612 221.948375,72.6099643 222.967426,71.2883165 C223.011853,71.3157347 223.056281,71.3394351 223.097006,71.3668532 C222.196891,72.9487411 221.293536,74.5306289 220.393421,76.1125167 C220.427204,76.1329642 220.46145,76.1571293 220.495696,76.1808297 C221.266232,75.2699895 222.040007,74.3591493 222.814245,73.4455208 C222.85173,73.4692212 222.889216,73.4896686 222.926701,73.5101161 C222.469933,74.4177033 222.009463,75.3248258 221.484666,76.3620684 C222.480114,76.1194874 223.342744,75.907113 224.201671,75.6979915 C224.215555,75.7291273 224.229438,75.7597985 224.246099,75.7872166 C224.06191,75.9140837 223.881425,76.0474567 223.690758,76.167353 Z M185.320567,86.8347825 C185.285846,87.007662 185.168543,87.1800816 185.047018,87.3157184 C182.18484,90.513528 179.316093,93.7044408 176.446408,96.8958134 C176.391041,96.9601834 176.315029,97.0107598 176.152683,97.0107598 C177.020251,95.2323087 177.891573,93.4543174 178.759142,91.672188 C178.717851,91.6487389 178.679845,91.6280485 178.638085,91.6045995 C176.512097,94.5449291 174.382824,97.4815804 172.256836,100.42237 C172.215077,100.398461 172.173786,100.37823 172.132496,100.354321 C173.013671,98.7317377 173.8986,97.1091539 174.783529,95.4865702 C174.728163,95.4562243 174.67655,95.4258785 174.624937,95.3918543 C173.031032,97.4107734 171.437596,99.4329109 169.750319,101.567236 C169.332253,100.130866 168.976123,98.8094415 168.554304,97.5087077 C168.357236,96.8856981 168.40228,96.3606228 168.696005,95.767959 C170.199822,92.7324538 171.662348,89.6771778 173.013671,86.5538535 C171.652025,88.5557604 170.293194,90.5576674 168.931079,92.5563559 C168.882751,92.5329068 168.834422,92.5089979 168.786093,92.4818706 C170.956657,88.2270137 173.124405,83.9721567 175.295437,79.7177596 C175.253677,79.697529 175.215671,79.6772984 175.177665,79.6566081 C173.100006,82.9118909 171.022346,86.164415 168.945156,89.4196978 C168.900111,89.3925704 168.855067,89.3686616 168.806739,89.3447527 C171.614019,84.3551582 174.42083,79.365104 177.283008,74.2807936 C177.583772,74.6500015 177.836206,74.9548395 178.085357,75.2596774 C179.087588,76.4896041 180.141902,77.685047 181.078913,78.9591132 C181.849825,80.0124822 182.779329,80.7541166 184.044787,81.1440149 C184.788014,81.3743675 185.496521,81.7228851 186.253825,82.0314013 C185.939455,83.6608818 185.638691,85.2494414 185.320567,86.8347825 Z M262.794998,114.171435 C262.808837,113.824229 262.919548,113.481185 263.125746,113.185298 C263.359161,112.851037 263.688986,112.610166 264.060327,112.486726 C264.026191,112.341094 263.992056,112.188527 263.95792,112.029025 C263.757718,111.092356 264.304813,110.157075 265.218636,109.875057 C265.399002,109.819116 265.582135,109.792301 265.76204,109.792301 C265.781414,109.792301 265.800789,109.792763 265.820163,109.793226 C265.981155,109.169088 266.462284,108.654059 267.114554,108.473291 C267.278774,108.42752 267.444379,108.405329 267.607677,108.405329 C268.264098,108.405329 268.884077,108.759007 269.213902,109.345696 C269.293244,109.335525 269.373048,109.330439 269.451929,109.330439 C270.085286,109.330439 270.693271,109.658227 271.034629,110.228273 C271.5236,111.045199 271.834512,111.161243 271.83728,111.162167 C271.962752,111.136277 272.464639,110.901417 273.597577,109.207923 C273.811617,108.887995 273.953235,108.677175 274.14421,108.485311 L274.342105,108.286974 C273.306962,105.475581 268.795508,93.2138218 268.169994,91.3793198 C268.023764,90.9535193 267.76221,90.5244826 267.442995,90.2077906 C265.607507,88.368203 263.734654,86.5729986 261.892707,84.7408083 C261.638073,84.4888416 261.386668,84.1481088 261.308248,83.8073759 C260.472384,80.2650488 258.728693,77.2266549 256.400543,74.4573336 C254.9018,72.6723003 253.579731,70.737474 252.138649,68.8132812 C251.9283,68.9903513 251.751163,69.1267369 251.585097,69.2797662 C249.362122,71.3269373 247.214338,73.4661108 244.886188,75.3870674 C243.63562,76.4157385 242.078754,77.0763996 240.648282,77.8803812 C240.529268,77.9451065 240.284782,77.8734463 240.1487,77.7883787 C239.747375,77.5433469 239.366807,77.2604046 238.98624,76.9880957 C235.35309,74.3856734 232.691886,70.8262403 229.741912,67.5594583 C225.150193,62.4775919 220.575542,57.3818559 215.994433,52.2930547 C215.838054,52.1192208 215.671527,51.9523218 215.440419,51.7105263 C215.253595,51.9490855 215.083839,52.1534328 214.92746,52.3679512 C212.262566,56.0670062 209.618891,59.7799309 206.92678,63.4549451 C206.335402,64.2626252 205.652225,65.0495008 204.863874,65.6556077 C203.134022,66.9875634 201.856238,68.7111076 200.493577,70.3662278 C198.005358,73.3912143 195.520829,76.4226733 193.05383,79.4680021 C192.710627,79.890104 192.353586,80.1013861 191.806491,80.0981498 C190.392626,80.0944512 188.975531,80.1559403 187.561665,80.135598 C187.245218,80.1318995 186.881718,79.9650005 186.630313,79.7643518 C183.59869,77.3528694 180.587364,74.9238186 177.572809,72.4984665 C177.372607,72.3385023 177.168715,72.1817745 176.910391,71.9774272 C171.378094,81.5128615 164.462377,93.4963018 158.684211,103.471406 C183.268404,110.379915 217.570213,115.032282 256.150983,116.052632 C258.117479,115.557482 260.558646,114.905143 262.641387,114.222291 C262.680136,114.209808 262.734107,114.192239 262.794998,114.171435 L262.794998,114.171435 Z" id="Fill-57-Copy" transform="translate(216.513158, 83.881579) scale(-1, 1) translate(-216.513158, -83.881579) "></path>
                    <path d="M162.108221,78.919398 C162.046228,78.9879313 161.984236,79.0503042 161.916121,79.1126772 C156.723294,74.17135 151.529702,69.2238625 146.088905,64.0384335 C146.53969,66.5117922 146.928482,68.6625055 147.31804,70.817839 C147.256047,70.8293895 147.187932,70.8463304 147.125939,70.8632712 C146.099619,68.0718871 145.090902,65.2751129 144.047745,62.4898891 C143.827327,61.9108213 143.53956,61.3379138 143.179085,60.8327696 C139.947823,56.2941717 136.694365,51.7671243 133.446266,47.240077 C133.198296,46.8935603 132.973286,46.5416534 132.831698,46.1112028 C144.599555,58.1153091 156.373534,70.1201855 168.14139,82.1250619 C164.510621,79.1519491 160.872963,76.1849967 157.242194,73.212654 C157.185559,73.2634764 157.128924,73.3204591 157.073054,73.3712816 C158.752973,75.2209104 160.433658,77.0697692 162.108221,78.919398 Z M154.940778,32.6480779 C155.003223,33.0731503 155.071836,33.3498702 155.088796,33.6335081 C155.236043,36.7366139 155.360934,39.834339 155.537476,42.9320641 C155.571397,43.5039519 155.724811,44.0988996 155.963028,44.6146746 C158.450811,50.079892 160.972515,55.5274299 163.483425,60.9811173 C163.676157,61.4000404 163.841136,61.8251128 163.841136,62.3516493 C163.18816,61.3262484 162.535184,60.2962356 161.876042,59.2708348 C161.818993,59.2992754 161.762715,59.3277161 161.705667,59.3553881 C162.93838,61.9665474 164.170322,64.5769382 165.403035,67.1880975 C165.345986,67.2165382 165.289708,67.2449788 165.23266,67.2726508 C164.573517,66.2249587 163.915145,65.1834159 163.250605,64.1357237 C163.1712,64.1749257 163.091023,64.208747 163.011618,64.2487176 C164.159529,66.899079 165.306669,69.5494404 166.459976,72.2059511 C166.380571,72.256683 166.301165,72.3127957 166.220989,72.3642963 C158.763807,64.6338195 151.300459,56.8979619 143.746141,49.0714018 C145.006607,47.3665 146.188439,45.7638308 147.375667,44.1611615 C147.330182,44.1050489 147.290094,44.0481676 147.244609,43.9912863 C146.063548,44.7107579 144.87632,45.4302296 143.694488,46.1489326 C143.638211,46.0982006 143.587329,46.0413193 143.535677,45.984438 C145.222467,44.0312569 146.915423,42.0773072 148.602213,40.1179769 C148.562124,40.0610956 148.522807,40.0049829 148.482719,39.9481016 C146.341853,41.3916569 144.200217,42.8421302 142.064748,44.2856855 C142.013867,44.2234235 141.962214,44.1611615 141.911333,44.0935189 C146.210796,40.3162928 150.510258,36.538298 154.940778,32.6480779 Z M108.704161,40.7514538 C105.021152,43.1001742 101.345073,45.4651033 97.6405029,47.7798625 C96.8581618,48.2692114 96.3984594,48.8658466 96.0919911,49.7357144 C91.2192997,63.6798427 86.3119573,77.6062185 81.4153952,91.5379973 C81.2621611,91.9764045 81.0865963,92.4140399 80.6838755,92.7783501 C83.7924493,81.7062522 86.9017932,70.6341544 90.0103671,59.5628284 C89.9248948,59.5342702 89.8401925,59.505712 89.7547202,59.4833285 C85.5573369,70.8448677 81.3584137,82.2071788 77.1610304,93.568718 C77.0924986,93.5285822 77.0247367,93.4892181 76.9562049,93.4490823 C78.9359283,86.591251 80.9102616,79.727245 82.890755,72.8694138 C82.816833,72.8408555 82.742911,72.8177002 82.668989,72.7899138 C79.8045117,79.4717647 76.9392644,86.1590185 74.0740171,92.8408694 C74.0116455,92.818486 73.9492738,92.8007336 73.8869021,92.7783501 C74.5960912,89.4856649 75.3060504,86.1929797 76.0090793,82.9064692 C75.9467077,82.877911 75.884336,82.8493528 75.8211943,82.8207945 C74.5221692,85.3400924 73.2231442,87.8647931 71.8732978,90.4867461 C71.6345913,90.0884748 71.4420861,89.7982616 71.2719115,89.4910678 C68.2026087,83.9415116 65.1502464,78.3796059 62.0416725,72.8524332 C61.6274014,72.1130069 61.7121036,71.6182551 62.132535,70.9529258 C66.1828442,64.5157494 70.2108229,58.0615924 74.2388016,51.6128383 C74.4597975,51.2601057 74.6530728,50.8965674 74.6476826,50.3902379 C71.0616959,54.8823682 67.471089,59.3690956 63.8858723,63.861226 C63.8057901,63.8156872 63.7318681,63.7647455 63.6587162,63.7192067 C65.1787372,61.2284671 66.7049183,58.7377275 67.9639023,56.6738174 C66.285257,58.1750534 64.2485521,59.9834832 62.2341777,61.7803353 C62.949527,60.5237738 63.6872069,59.2100958 64.4241168,57.9018208 C64.3671353,57.856282 64.3163139,57.8053403 64.2601024,57.7598015 C63.4261699,58.4367084 62.5922374,59.1190183 61.6558921,59.8754251 C61.1276579,58.4081502 60.6232943,57.0203753 60.0727294,55.4851781 C56.6522971,58.0893788 53.2988567,60.6372348 49.9461862,63.1904938 C49.8899747,63.1279744 49.827603,63.0654551 49.7698515,63.0029358 C50.9618436,61.4623357 52.1530658,59.915561 53.3504481,58.379592 C61.2986025,48.1781339 69.2352066,37.9759039 77.2003015,27.7914263 C77.7223756,27.126097 78.3630328,26.489326 79.0783821,26.0516906 C80.9225819,24.9255706 82.407952,23.4691016 83.7585684,21.7918852 C87.4692985,17.185522 91.2585707,12.6478529 95.0139621,8.08162562 C95.234958,7.8145677 95.4790546,7.56371849 95.8817755,7.40471869 C94.4526169,10.4419236 93.0172982,13.4837597 91.5873696,16.5201928 C91.6497413,16.5657315 91.712113,16.6112703 91.7744847,16.6629838 C93.8566208,14.2625499 95.939527,11.8628879 98.088655,9.37832303 C101.413605,13.0631048 104.686963,16.6907702 107.960321,20.3192074 C107.90411,20.3701491 107.852518,20.4218627 107.801697,20.4728043 C105.158216,18.2089868 102.514734,15.9521158 99.8704831,13.6882982 C99.8135015,13.7454147 99.7511299,13.8025311 99.6941483,13.8588757 C102.763451,17.4587547 105.827364,21.0586337 108.896667,24.6577409 C108.828135,24.7372408 108.765763,24.8175125 108.698001,24.8970124 C106.218534,22.884044 103.734447,20.8710757 101.25498,18.8635102 C101.192609,18.9260296 101.135627,18.9885489 101.073256,19.0510682 C103.654365,22.2526759 106.236245,25.4542836 108.828135,28.6612941 C106.592764,32.1754985 104.397435,35.6217806 102.202106,39.0680627 C102.269868,39.1251791 102.34379,39.1815237 102.417712,39.2332373 C104.114068,37.0381138 105.805033,34.8429903 107.500619,32.6478668 C107.574541,32.6934056 107.648463,32.7327696 107.716225,32.7783084 C106.218534,35.4056644 104.715454,38.0330203 103.217763,40.6603762 C103.273975,40.6943374 103.330956,40.7344732 103.387938,40.7738373 C104.670023,39.2610236 105.957497,37.74821 107.245742,36.2307653 C107.308114,36.2701293 107.370485,36.3040904 107.432857,36.3380515 C106.672847,37.8454623 105.906676,39.3521012 105.033472,41.0748563 C106.689787,40.6719539 108.125106,40.3192213 109.554264,39.9718917 C109.577365,40.0236052 109.600466,40.0745469 109.628186,40.1200857 C109.321718,40.330799 109.02141,40.5523181 108.704161,40.7514538 Z M44.5384798,58.083654 C44.4814726,58.3736695 44.2888808,58.6629136 44.0893556,58.8904524 C39.3901136,64.2549675 34.6800865,69.6079129 29.9685186,74.9616295 C29.8776152,75.069614 29.7528157,75.154459 29.4862685,75.154459 C30.9106781,72.1710018 32.3412506,69.188316 33.7656602,66.1986883 C33.6978679,66.1593511 33.6354681,66.1246418 33.5669054,66.0853046 C30.0763701,71.0178817 26.5804422,75.9442884 23.0899069,80.8776369 C23.0213441,80.8375283 22.9535518,80.8035904 22.8857595,80.7634818 C24.3325097,78.0415014 25.7854229,75.319521 27.238336,72.5975405 C27.1474327,72.5466336 27.0626922,72.4957266 26.9779518,72.4386491 C24.3610133,75.8255054 21.7448451,79.217761 18.9746035,82.7982181 C18.288206,80.3886214 17.703497,78.1718541 17.0109366,75.9897961 C16.6873822,74.9446605 16.7613375,74.0638156 17.2435876,73.069587 C19.7126156,67.9773471 22.1138512,62.8519405 24.3325097,57.6123788 C22.0969031,60.9706964 19.8659187,64.329014 17.6295417,67.6819324 C17.5501939,67.6425952 17.470846,67.6024866 17.3914982,67.5569789 C20.9552184,60.4192042 24.5143164,53.2814295 28.078807,46.1444262 C28.0102443,46.1104882 27.9478445,46.0765502 27.8854448,46.0418409 C24.4742573,51.5027707 21.0630699,56.9590727 17.6526528,62.4200025 C17.5786975,62.3744948 17.5047422,62.3343862 17.4253943,62.2942777 C22.0345033,53.9239372 26.6428419,45.5528254 31.3420839,37.0235935 C31.8358895,37.6429616 32.2503472,38.1543453 32.6594124,38.665729 C34.3049175,40.7290041 36.0359333,42.7344303 37.5743573,44.8717518 C38.8400712,46.6388408 40.3661693,47.8829764 42.4438505,48.5370539 C43.6641127,48.9234841 44.8273677,49.508143 46.0707409,50.0256972 C45.5545946,52.7592474 45.060789,55.4241503 44.5384798,58.083654 Z M173.754864,104.229246 C173.77796,103.649861 173.96273,103.077418 174.306863,102.583667 C174.696418,102.025883 175.246877,101.623939 175.866625,101.417953 C175.809654,101.174935 175.752684,100.920344 175.695713,100.654182 C175.361588,99.0911522 176.274657,97.5304368 177.799775,97.0598306 C178.100795,96.9664808 178.406434,96.9217347 178.706685,96.9217347 C178.739019,96.9217347 178.771354,96.9225062 178.803689,96.9232776 C179.072374,95.8817721 179.875351,95.0223372 180.963951,94.7206863 C181.238026,94.6443092 181.51441,94.6072779 181.786945,94.6072779 C182.882474,94.6072779 183.917183,95.1974644 184.467642,96.1764796 C184.60006,96.1595069 184.733248,96.1510206 184.864896,96.1510206 C185.921931,96.1510206 186.936623,96.6980039 187.506329,97.6492456 C188.322394,99.0124606 188.841288,99.2061035 188.845907,99.2076465 C189.055313,99.1644433 189.892934,98.7725286 191.783741,95.9465769 C192.140962,95.4127089 192.377313,95.0609114 192.69604,94.7407449 L193.026316,94.4097776 C191.298722,89.7183737 183.769367,69.2570329 182.72542,66.1957781 C182.48137,65.4852399 182.044853,64.7693012 181.512101,64.2408336 C178.448777,61.1710924 175.323095,58.1754139 172.248993,55.1180165 C171.824023,54.6975568 171.404443,54.128972 171.273565,53.5603871 C169.878555,47.6492645 166.968437,42.5790612 163.08289,37.9578625 C160.581573,34.9791567 158.375118,31.7504895 155.970036,28.5395664 C155.618974,28.8350454 155.323343,29.0626337 155.046189,29.3179954 C151.336173,32.7341336 147.751646,36.3037974 143.866099,39.50932 C141.778974,41.2258755 139.180654,42.3283284 136.793279,43.6699418 C136.594652,43.7779498 136.186619,43.6583695 135.959507,43.5164162 C135.289718,43.1075288 134.654573,42.6353796 134.019428,42.1809746 C127.955911,37.8382822 123.514516,31.8986147 118.59118,26.4472975 C110.927868,17.9671279 103.293041,9.46381373 95.6474361,0.972071843 C95.3864493,0.681993262 95.1085253,0.403486964 94.7228191,0 C94.4110207,0.398086564 94.1277075,0.739083195 93.8667207,1.09705251 C89.4191665,7.26970872 85.0070265,13.4655095 80.5140498,19.5980484 C79.5270731,20.9458338 78.3868917,22.2589022 77.0711794,23.2703199 C74.184157,25.4929698 72.0516098,28.3690681 69.777406,31.1309865 C65.6247131,36.1788167 61.4781791,41.2374478 57.3609002,46.3192233 C56.788115,47.0235897 56.1922336,47.3761586 55.2791646,47.3707582 C52.919505,47.3645863 50.5544563,47.4671939 48.1947967,47.4332485 C47.666664,47.4270766 47.0600044,47.1485704 46.6404238,46.8137456 C41.5808209,42.7896768 36.5550923,38.7362915 31.5239747,34.6890781 C31.18985,34.4221441 30.8495663,34.1606104 30.4184376,33.8196138 C21.1853551,49.7315041 9.64342459,69.7284106 0,86.3739837 C41.0295921,97.9022929 98.277321,105.665752 162.666389,107.368421 C165.948356,106.54216 170.022522,105.453594 173.498496,104.31411 C173.563166,104.293279 173.653241,104.263963 173.754864,104.229246 L173.754864,104.229246 Z" id="Fill-57"></path>
                </g>
            </g>
        </g>
    </g>
</svg>