<?xml version="1.0" encoding="UTF-8"?>
<svg width="334px" height="145px" viewBox="0 0 334 145" version="1.1" xmlns="http://www.w3.org/2000/svg" xmlns:xlink="http://www.w3.org/1999/xlink">
    <!-- Generator: Sketch 60.1 (88133) - https://sketch.com -->
    <title>Group 12</title>
    <desc>Created with Sketch.</desc>
    <g id="Page-1" stroke="none" stroke-width="1" fill="none" fill-rule="evenodd">
        <g id="BH_HACKINFEST_SINGLEPAGE_2" transform="translate(0.000000, -266.000000)">
            <g id="Group-12" transform="translate(-80.000000, 266.000000)">
                <g id="Group-10">
                    <path d="M346.717687,138.588435 C385.273752,138.588435 413.29932,113.385261 413.29932,77.0648948 C413.29932,66.8023847 412.037658,62.8588225 386.594153,72.9123495 C387.959037,73.5236153 383.336155,72.9833245 371.530362,84.6392593 C371.530362,120.959625 382.044207,114.921831 346.717687,138.588435 Z" id="Oval" fill="#C95435"></path>
                    <g id="Group-9">
                        <path d="M382.47449,125.765306 C384.517908,125.765306 386.173469,127.42137 386.173469,129.463973 C386.173469,131.507202 384.517908,133.163265 382.47449,133.163265 C380.431695,133.163265 378.77551,131.507202 378.77551,129.463973 C378.77551,127.42137 380.431695,125.765306 382.47449,125.765306 Z M370.144246,133.163265 C368.101624,133.163265 366.445578,131.507202 366.445578,129.463973 C366.445578,127.42137 368.101624,125.765306 370.144246,125.765306 C372.187492,125.765306 373.843537,127.42137 373.843537,129.463973 C373.843537,131.507202 372.187492,133.163265 370.144246,133.163265 Z M357.814938,133.163265 C355.771692,133.163265 354.115646,131.507202 354.115646,129.463973 C354.115646,127.42137 355.771692,125.765306 357.814938,125.765306 C359.85756,125.765306 361.513605,127.42137 361.513605,129.463973 C361.513605,131.507202 359.85756,133.163265 357.814938,133.163265 Z M325.756491,54.2517007 C323.713869,54.2517007 322.057823,52.5956369 322.057823,50.5530333 C322.057823,48.5098053 323.713869,46.8537415 325.756491,46.8537415 C327.799737,46.8537415 329.455782,48.5098053 329.455782,50.5530333 C329.455782,52.5956369 327.799737,54.2517007 325.756491,54.2517007 Z M313.427183,54.2517007 C311.38456,54.2517007 309.727891,52.5956369 309.727891,50.5530333 C309.727891,48.5098053 311.38456,46.8537415 313.427183,46.8537415 C315.469805,46.8537415 317.12585,48.5098053 317.12585,50.5530333 C317.12585,52.5956369 315.469805,54.2517007 313.427183,54.2517007 Z M301.096939,54.2517007 C299.054144,54.2517007 297.397959,52.5956369 297.397959,50.5530333 C297.397959,48.5098053 299.054144,46.8537415 301.096939,46.8537415 C303.139733,46.8537415 304.795918,48.5098053 304.795918,50.5530333 C304.795918,52.5956369 303.139733,54.2517007 301.096939,54.2517007 Z M340.848959,10.9045017 L356.803241,26.8377837 L368.336183,26.8377837 C368.741385,25.6958234 369.819968,24.8723069 371.100826,24.8723069 C372.726204,24.8723069 374.044907,26.1911079 374.044907,27.8166067 C374.044907,29.4421056 372.726204,30.7609065 371.100826,30.7609065 C369.819968,30.7609065 368.741385,29.9373901 368.336183,28.7954298 L355.993488,28.7954298 L338.220688,11.0467573 C324.634328,12.05364 312.125247,16.9216534 301.785728,24.5538632 L344.324175,24.5538632 L362.294031,42.4989528 L372.351016,42.4989528 C372.993077,40.9374038 374.527757,39.8365541 376.320828,39.8365541 C378.691361,39.8365541 380.614279,41.7596151 380.614279,44.1303246 C380.614279,46.5010341 378.691361,48.4240952 376.320828,48.4240952 C374.527757,48.4240952 372.993077,47.3232455 372.351016,45.7616964 L360.943355,45.7616964 L342.974152,27.8166067 L297.689984,27.8166067 C295.333154,29.8427705 293.114653,32.0242409 291.045575,34.3420939 L341.053191,34.3420939 L359.023047,52.2871836 L388.356194,52.2871836 C388.998254,50.7256345 390.533587,49.6247848 392.326005,49.6247848 C394.697191,49.6247848 396.619457,51.5478459 396.619457,53.9185554 C396.619457,56.2892649 394.697191,58.2123259 392.326005,58.2123259 C390.533587,58.2123259 388.998254,57.1114762 388.356194,55.5499272 L357.672372,55.5499272 L339.703168,37.6048375 L288.301159,37.6048375 C285.487578,41.168406 283.011992,45.0112654 280.924644,49.0844745 L294.912943,63.0542374 L325.722699,63.0542374 C326.127249,61.9122771 327.205832,61.0887607 328.486689,61.0887607 C330.112067,61.0887607 331.43077,62.4075616 331.43077,64.0330605 C331.43077,65.6585593 330.112067,66.9773603 328.486689,66.9773603 C327.205832,66.9773603 326.127249,66.1538438 325.722699,65.0118835 L294.103191,65.0118835 L280.011796,50.9396705 C279.032393,52.9991142 278.150213,55.1140246 277.372433,57.2778762 L291.650442,71.5373707 L335.258989,71.5373707 L343.904617,62.8911002 L376.291465,62.8911002 C376.696015,61.74914 377.774598,60.9256235 379.055456,60.9256235 C380.680834,60.9256235 381.999537,62.2444244 381.999537,63.8699233 C381.999537,65.4954221 380.680834,66.8142231 379.055456,66.8142231 C377.774598,66.8142231 376.696015,65.9907066 376.291465,64.8487464 L344.715022,64.8487464 L336.069394,73.4950168 L290.84069,73.4950168 L276.667732,59.3412352 C275.883427,61.756318 275.232885,64.2307827 274.710884,66.752231 L276.92808,69.2110345 C281.061016,73.7958418 285.195258,78.379344 289.337329,82.9569732 L336.945702,82.9569732 L348.038206,71.863645 L362.03564,71.863645 C362.677701,70.302096 364.212381,69.2012463 366.005452,69.2012463 C368.375985,69.2012463 370.298903,71.1243074 370.298903,73.4950168 C370.298903,75.8657263 368.375985,77.7887874 366.005452,77.7887874 C364.212381,77.7887874 362.677701,76.6879377 362.03564,75.1263886 L349.390186,75.1263886 L338.297683,86.2197168 L322.33296,86.2197168 C322.945005,87.0373603 323.544653,87.8550039 324.138428,88.6687321 C325.500196,90.5337164 326.786274,92.2949453 328.180667,93.9530716 C330.09967,96.2304666 331.677416,98.5359213 332.930216,100.902063 L346.570733,100.902063 C347.213446,99.3405138 348.748126,98.2396641 350.541197,98.2396641 C352.91173,98.2396641 354.833996,100.162725 354.833996,102.533435 C354.833996,104.904144 352.91173,106.827205 350.541197,106.827205 C348.748126,106.827205 347.213446,105.726356 346.570733,104.164806 L334.427704,104.164806 C334.956882,105.499269 335.399277,106.854612 335.739229,108.239973 C335.741187,108.241278 335.742492,108.243236 335.744449,108.244541 C336.930042,109.422391 338.118245,110.581318 339.305143,111.740245 C339.835626,112.257716 340.360888,112.781712 340.890719,113.300488 L358.869057,113.300488 C359.27426,112.158528 360.352842,111.335012 361.6337,111.335012 C363.259078,111.335012 364.577781,112.653813 364.577781,114.279312 C364.577781,115.90481 363.259078,117.223611 361.6337,117.223611 C360.352842,117.223611 359.27426,116.400095 358.869057,115.258135 L342.880192,115.258135 C343.122922,115.498925 343.368914,115.735148 343.610992,115.977243 C344.397255,116.755081 345.04323,117.788719 345.417765,118.87456 C346.24122,121.288337 352.00867,136.939718 353.857203,141.951292 L355.911273,141.437737 C356.120074,141.386185 356.332136,141.360083 356.544199,141.360083 C356.946791,141.360083 357.346121,141.453398 357.711522,141.635459 L359.272955,142.41656 L361.447738,141.546712 C361.755718,141.42338 362.084578,141.360083 362.416701,141.360083 L366.331702,141.360083 C366.847177,141.360083 367.350907,141.512127 367.7796,141.798596 L369.7371,143.103693 C369.776903,143.130448 369.816705,143.158508 369.855203,143.18722 L372.271411,145 C374.545375,143.978761 376.756045,142.841369 378.893636,141.593043 C379.290356,141.056648 379.886741,140.677517 380.588832,140.569194 C380.781972,140.449125 380.974459,140.329056 381.166294,140.20703 C381.453394,139.902289 381.810312,139.669982 382.207032,139.530989 C389.293837,134.847647 395.483454,128.918589 400.455506,122.049862 L398.958018,119.311115 L397.423337,117.879423 C397.271957,117.743693 397.126449,117.606657 396.990729,117.460487 C396.990729,117.460487 396.545072,116.978906 396.459594,116.886896 C396.457637,116.894074 396.455679,116.901905 396.454374,116.909735 C396.275589,117.748913 395.920629,118.497386 395.400586,119.131664 C394.806159,119.857298 394.162141,120.247522 393.572281,120.447202 C393.520733,120.51572 393.469186,120.583585 393.416986,120.65145 C392.412788,121.983954 391.15542,122.181677 390.494437,122.182329 L390.217125,122.182329 L389.898052,122.13143 C389.578327,122.075964 388.798589,121.882809 388.117379,121.2531 L387.442694,121.706621 L385.684206,118.723168 C385.571323,118.552201 385.365133,118.235714 385.203313,117.790024 C384.916213,116.997177 384.627808,116.150169 384.467945,115.194837 C384.21347,114.931208 383.960953,114.666273 383.71496,114.395465 C382.821035,114.18926 382.032162,113.881909 381.311802,113.461668 C380.271064,112.854145 379.499809,112.012357 379.018916,110.960449 C378.513228,109.852421 378.192198,108.806385 378.036903,107.761655 C377.817011,106.279064 378.021896,104.895008 378.646338,103.647335 C378.917126,103.107025 379.168991,102.53213 379.435211,101.922649 C379.513511,101.743851 379.591811,101.565052 379.670764,101.386907 L379.662934,100.907283 C379.645969,99.9819692 379.629656,99.0246802 379.655756,98.0478148 C379.676636,97.2073321 379.796044,96.4125277 379.914799,95.6705798 C379.976786,95.2875337 380.060306,94.9090555 380.167969,94.5292721 L380.480516,91.7069989 L380.614932,88.9943539 C380.614932,88.8840732 380.617542,88.5825957 380.695189,88.2099904 C380.775447,87.817156 381.156507,85.9991553 381.156507,85.9991553 C381.217842,85.0118491 381.462529,84.1609256 381.697429,83.4516051 C382.026942,82.4532056 382.63964,81.608155 383.470272,81.0078102 L383.674505,80.8564189 C383.921803,80.6717476 384.22913,80.4413979 384.592573,80.221489 L384.822905,80.0792334 C385.350778,79.7470861 386.188588,79.2198267 387.312846,79.022757 C387.969261,78.8113312 388.545419,78.7747885 388.953232,78.7676105 C389.011304,78.7663054 389.071987,78.7597799 389.131364,78.755212 C389.288617,78.7434662 389.444564,78.7330254 389.601817,78.7284575 L389.958082,78.7160591 C390.339795,78.7030081 390.721507,78.6906097 391.10322,78.6906097 C391.10322,78.6906097 391.599773,78.6951776 391.610213,78.694525 C392.10024,78.5503117 392.566778,78.4713533 393.031358,78.4550396 C393.117488,78.4524294 393.201661,78.4439463 393.285833,78.4374208 C393.549443,78.4165393 393.813706,78.3989204 394.074053,78.3989204 C394.356586,78.3989204 394.631289,78.4184969 394.897509,78.4583024 C395.652451,78.1796641 396.614237,77.9055936 397.477495,77.9055936 C397.848767,77.9055936 398.20699,77.9545348 398.54107,78.0517645 L400.500528,78.6194819 C400.565778,78.6149141 400.631028,78.6109988 400.698236,78.607736 C400.789586,78.5653204 400.883546,78.5242098 400.980768,78.4857094 C401.342906,78.3421487 401.716136,78.1933676 401.999974,78.0426288 C402.491959,77.7796517 402.976766,77.5023185 403.462227,77.2243327 C403.743454,77.0638058 404.024682,76.9032788 404.306562,76.7447094 C404.484694,76.6448695 404.675877,76.5541652 404.869017,76.4673762 L407.45096,75.2503729 L407.969045,75.9981937 C408.284203,75.8207005 408.610453,75.6908433 408.945186,75.6105798 C409.250556,75.358696 409.648581,75.0617863 410.143829,74.80925 L411.881437,73.9204786 C412.216169,73.6738152 412.518277,73.5406952 412.674225,73.4721776 L413.29932,73.1609119 C409.396716,38.1086051 379.635529,10.8503401 343.494194,10.8503401 C342.608099,10.8503401 341.727224,10.8725268 340.848959,10.9045017 Z" id="Fill-59" fill="#C95435"></path>
                        <g id="Group-14" fill="#17A3AC">
                            <path d="M319.76677,124.04536 C319.720306,124.097422 319.673842,124.144804 319.622789,124.192187 C315.730722,120.438464 311.838081,116.680061 307.760159,112.740904 C308.098026,114.619813 308.389429,116.253621 308.681406,117.890939 C308.634942,117.899714 308.583889,117.912583 308.537425,117.925452 C307.76819,115.804953 307.012148,113.680358 306.230293,111.564538 C306.065088,111.124644 305.849403,110.68943 305.579225,110.305693 C303.157367,106.857907 300.718873,103.418895 298.284395,99.9798836 C298.09854,99.7166492 297.929893,99.44932 297.823772,99.1223243 C306.643878,108.24135 315.468574,117.360961 324.288681,126.480571 C321.567389,124.22202 318.840934,121.968148 316.119642,119.710182 C316.077194,119.748789 316.034745,119.792077 315.99287,119.830685 C317.251984,121.235771 318.511671,122.640273 319.76677,124.04536 Z M314.355288,89.0208178 C314.402305,89.3406545 314.453966,89.5488665 314.466736,89.7622837 C314.577603,92.0971497 314.671636,94.427967 314.804561,96.7587844 C314.830101,97.1890892 314.945611,97.6367449 315.124972,98.0248289 C316.9981,102.137015 318.896768,106.235899 320.78731,110.33941 C320.932424,110.65462 321.056641,110.974457 321.056641,111.370638 C320.564996,110.599097 320.07335,109.824086 319.577061,109.052545 C319.534108,109.073944 319.491735,109.095344 319.448781,109.116165 C320.376928,111.080876 321.304496,113.045009 322.232643,115.009721 C322.189689,115.03112 322.147316,115.05252 322.104362,115.073341 C321.608073,114.285027 321.112365,113.501341 320.612013,112.713027 C320.552226,112.742524 320.491859,112.767972 320.432072,112.798047 C321.296369,114.792255 322.160086,116.786463 323.028447,118.785298 C322.96866,118.82347 322.908873,118.865691 322.848506,118.904441 C317.233765,113.087809 311.61438,107.267127 305.926501,101.378198 C306.875545,100.095381 307.765383,98.889487 308.659284,97.6835926 C308.625037,97.6413719 308.594853,97.5985727 308.560606,97.5557736 C307.671349,98.0971247 306.777448,98.6384759 305.887611,99.1792486 C305.845238,99.1410764 305.806928,99.0982773 305.768037,99.0554782 C307.038073,97.5858487 308.312752,96.1156408 309.582787,94.6413843 C309.552604,94.5985852 309.523001,94.5563644 309.492817,94.5135653 C307.880893,95.5997378 306.268389,96.6911155 304.660529,97.777288 C304.622219,97.7304403 304.583329,97.6835926 304.545019,97.6326964 C307.782216,94.7906029 311.019414,91.9479311 314.355288,89.0208178 Z M279.486638,95.1660125 C276.721023,96.9328683 273.960611,98.7119173 271.178805,100.453225 C270.591336,100.821344 270.24614,101.270171 270.016009,101.924541 C266.357047,112.414194 262.672065,122.890493 258.995178,133.370857 C258.880113,133.700655 258.74828,134.029872 258.445872,134.303929 C260.780137,125.974798 263.11498,117.645667 265.449245,109.317116 C265.385063,109.295633 265.321459,109.27415 265.257277,109.257311 C262.105412,117.804179 258.95239,126.351626 255.800525,134.898493 C255.749064,134.868301 255.698181,134.838689 255.646719,134.808496 C257.133317,129.649602 258.615868,124.486063 260.103044,119.32717 C260.047535,119.305687 259.992026,119.288268 259.936517,119.267365 C257.785547,124.293875 255.633999,129.32445 253.48245,134.35096 C253.435615,134.334121 253.388779,134.320767 253.341943,134.303929 C253.874482,131.826963 254.407599,129.349997 254.935512,126.877677 C254.888676,126.856193 254.84184,126.83471 254.794426,126.813227 C253.818973,128.708402 252.84352,130.607641 251.829904,132.58004 C251.650656,132.280435 251.506102,132.062118 251.378316,131.831027 C249.07354,127.656301 246.781484,123.472284 244.447219,119.314396 C244.136138,118.758153 244.199742,118.385969 244.515449,117.885467 C247.556874,113.043016 250.581532,108.187792 253.606189,103.336632 C253.772137,103.071284 253.91727,102.797807 253.913222,102.416914 C251.220462,105.796179 248.524233,109.171378 245.832051,112.550642 C245.771916,112.516385 245.716407,112.478064 245.661477,112.443806 C246.802879,110.570115 247.948906,108.696423 248.894292,107.14382 C247.633777,108.273144 246.104391,109.633559 244.591774,110.985265 C245.128938,110.04 245.682871,109.051768 246.236225,108.067601 C246.193437,108.033344 246.155275,107.995023 246.113065,107.960766 C245.486855,108.469978 244.860645,108.983254 244.157532,109.552271 C243.760875,108.448494 243.382142,107.404522 242.968716,106.24965 C240.400273,108.208694 237.882135,110.125353 235.364575,112.046075 C235.322365,111.999044 235.275529,111.952013 235.232163,111.904982 C236.127244,110.746046 237.021747,109.582464 237.920875,108.427011 C243.889239,100.75283 249.84893,93.0780686 255.830014,85.4166615 C256.222046,84.9161589 256.703123,84.4371395 257.240288,84.1079225 C258.625119,83.260784 259.740501,82.165136 260.754695,80.903428 C263.541127,77.4382307 266.386536,74.0247095 269.206504,70.5897051 C269.372453,70.3888072 269.555748,70.2001026 269.858156,70.0804929 C268.784984,72.3652703 267.707186,74.6535314 266.633435,76.9377281 C266.680271,76.9719852 266.727107,77.0062423 266.773942,77.0451445 C268.337443,75.2393866 269.901522,73.4342093 271.515328,71.5651627 C274.012072,74.3370882 276.470076,77.0660472 278.92808,79.7955868 C278.88587,79.8339083 278.847129,79.8728105 278.808967,79.911132 C276.823945,78.2081455 274.838924,76.5103847 272.853324,74.8073982 C272.810536,74.8503648 272.7637,74.8933314 272.720912,74.9357173 C275.025688,77.6437736 277.326417,80.3518299 279.631193,83.0593055 C279.579731,83.1191104 279.532896,83.1794958 279.482012,83.2393007 C277.620151,81.7250188 275.754821,80.2107369 273.892959,78.7005194 C273.846124,78.7475504 273.803336,78.7945814 273.7565,78.8416124 C275.694686,81.2500638 277.63345,83.6585152 279.579731,86.0710311 C277.901165,88.7146375 276.252666,91.3071484 274.604167,93.8996594 C274.65505,93.942626 274.710559,93.985012 274.766068,94.0239142 C276.039882,92.3726037 277.309648,90.7212932 278.582884,89.0699827 C278.638393,89.1042399 278.693902,89.133852 278.744785,89.1681091 C277.620151,91.1445722 276.49147,93.1210352 275.366837,95.0974982 C275.409046,95.1230459 275.451835,95.1532387 275.494623,95.1828508 C276.457355,94.0448168 277.424135,92.9067829 278.391494,91.7652652 C278.438329,91.7948773 278.485165,91.820425 278.532001,91.8459727 C277.9613,92.9799422 277.385973,94.1133311 276.730274,95.4092963 C277.97402,95.1062077 279.051818,94.84086 280.124991,94.5795767 C280.142337,94.6184788 280.159684,94.6568004 280.1805,94.6910575 C279.950369,94.8495694 279.724864,95.0162101 279.486638,95.1660125 Z M231.545652,108.494252 C231.50227,108.710253 231.355708,108.92568 231.203871,109.095149 C227.627771,113.090598 224.043463,117.077431 220.457984,121.064837 C220.388807,121.145263 220.293835,121.208455 220.090994,121.208455 C221.174962,118.986399 222.263621,116.764918 223.34759,114.538267 C223.296,114.508969 223.248514,114.483117 223.196338,114.453819 C220.540058,118.127564 217.879674,121.796714 215.223394,125.471033 C215.171218,125.441161 215.119628,125.415884 215.068039,125.386012 C216.169009,123.358702 217.274668,121.331392 218.380328,119.304082 C218.311151,119.266167 218.246664,119.228252 218.182177,119.185741 C216.1907,121.708245 214.199809,124.234771 212.091668,126.901467 C211.569323,125.106818 211.124363,123.455787 210.597328,121.830608 C210.351104,121.052199 210.407384,120.396152 210.774374,119.655659 C212.653292,115.862998 214.48062,112.045635 216.169009,108.14325 C214.467723,110.644499 212.769955,113.145748 211.068083,115.642975 C211.0077,115.613677 210.947316,115.583805 210.886933,115.549911 C213.598907,110.233752 216.307363,104.917593 219.019922,99.602008 C218.967746,99.5767313 218.920261,99.5514545 218.872775,99.5256033 C216.276878,103.592861 213.680981,107.656673 211.08567,111.723931 C211.029391,111.690037 210.973111,111.660164 210.912728,111.630292 C214.420237,105.396127 217.92716,99.1613884 221.50326,92.8088827 C221.879044,93.2701833 222.194444,93.6510579 222.50574,94.0319325 C223.757962,95.5686437 225.075256,97.0622696 226.245989,98.6541301 C227.209191,99.9702442 228.370544,100.896867 229.951649,101.384019 C230.880263,101.671829 231.765494,102.107278 232.711695,102.492749 C232.31891,104.528675 231.943127,106.513474 231.545652,108.494252 Z M328.344771,142.649571 C328.362062,142.215761 328.500387,141.78715 328.758018,141.417458 C329.049654,140.999822 329.461748,140.69887 329.925715,140.544639 C329.883065,140.362682 329.840414,140.17206 329.797764,139.972773 C329.547625,138.802468 330.231183,137.633896 331.372944,137.281534 C331.598299,137.211639 331.827113,137.178136 332.051891,137.178136 C332.076098,137.178136 332.100305,137.178714 332.124512,137.179291 C332.32566,136.399473 332.926799,135.755979 333.741766,135.53012 C333.946949,135.472934 334.153861,135.445207 334.357891,135.445207 C335.178045,135.445207 335.952667,135.887104 336.364762,136.620133 C336.463895,136.607425 336.563604,136.601071 336.662161,136.601071 C337.453498,136.601071 338.213135,137.010619 338.639638,137.722853 C339.250575,138.743548 339.639039,138.888537 339.642497,138.889692 C339.799266,138.857344 340.426341,138.563901 341.841871,136.447995 C342.1093,136.048266 342.286241,135.784861 342.524852,135.545139 L342.772109,135.29733 C341.478766,131.784683 335.842007,116.464435 335.060469,114.172347 C334.877764,113.640338 334.55097,113.104285 334.152132,112.7086 C331.858812,110.410158 329.518808,108.167171 327.217419,105.877971 C326.899271,105.563156 326.585157,105.137433 326.487176,104.71171 C325.44282,100.285809 323.264195,96.4895393 320.355327,93.0294577 C318.482747,90.799178 316.830912,88.3817419 315.030376,85.9775917 C314.767558,86.198829 314.546237,86.3692337 314.338749,86.5604335 C311.561291,89.1182368 308.877778,91.790991 305.968911,94.1910978 C304.40641,95.4763535 302.461209,96.3018054 300.67393,97.3063266 C300.52523,97.3871966 300.219762,97.2976619 300.049737,97.1913756 C299.548307,96.8852248 299.072814,96.5317073 298.59732,96.1914755 C294.057942,92.939923 290.732946,88.4926494 287.04715,84.4110238 C281.310105,78.0615718 275.594385,71.6947904 269.870595,65.3366737 C269.675211,65.11948 269.467146,64.9109508 269.178392,64.6088435 C268.944968,64.9069073 268.732869,65.1622255 268.537484,65.4302519 C265.207877,70.0519737 261.904782,74.6910248 258.54117,79.2827091 C257.802282,80.2918515 256.948699,81.2749999 255.963707,82.0322899 C253.802373,83.6964794 252.205867,85.8499326 250.503312,87.9178946 C247.394449,91.6974129 244.290197,95.4850181 241.207846,99.2899527 C240.779037,99.8173408 240.332938,100.081324 239.64938,100.07728 C237.88285,100.072659 236.112285,100.149486 234.345754,100.124069 C233.950374,100.119448 233.496206,99.9109189 233.182092,99.6602219 C229.394282,96.6472359 225.631831,93.6122995 221.865346,90.5819842 C221.615208,90.3821197 221.360459,90.1862987 221.037699,89.9309805 C214.125464,101.844868 205.484739,116.817375 198.265306,129.280601 C228.981611,137.91232 271.839427,143.725142 320.043519,145 C322.500523,144.381344 325.550598,143.56629 328.152845,142.713111 C328.201258,142.697515 328.268692,142.675564 328.344771,142.649571 L328.344771,142.649571 Z" id="Fill-57-Copy" transform="translate(270.518707, 104.804422) scale(-1, 1) translate(-270.518707, -104.804422) "></path>
                            <path d="M202.543378,98.6045086 C202.465922,98.6901363 202.388467,98.7680672 202.303362,98.8459981 C195.815272,92.6721402 189.326226,86.4905855 182.528314,80.0117389 C183.09154,83.1020352 183.57731,85.7892076 184.064036,88.4821526 C183.98658,88.4965842 183.901475,88.5177506 183.82402,88.538917 C182.541701,85.0512694 181.281377,81.5568871 179.978021,78.0769363 C179.702624,77.3534298 179.343078,76.6376202 178.892689,76.0064763 C174.855443,70.3358018 170.790466,64.679559 166.732182,59.0233161 C166.42236,58.5903668 166.141226,58.1506826 165.964321,57.6128633 C180.667471,72.6111912 195.37827,87.6104812 210.081419,102.609771 C205.545016,98.8950657 201.000006,95.1880571 196.463603,91.4743137 C196.392841,91.5378129 196.322079,91.609009 196.252273,91.6725083 C198.351221,93.9834957 200.451124,96.2935211 202.543378,98.6045086 Z M193.588138,40.7915894 C193.666159,41.322689 193.751886,41.6684319 193.773076,42.0228185 C193.957052,45.8999416 194.113094,49.7703419 194.333672,53.6407423 C194.376054,54.3552777 194.567735,55.0986251 194.865371,55.7430515 C197.973689,62.571475 201.124389,69.3778093 204.261604,76.1918268 C204.502409,76.7152432 204.708539,77.2463428 204.708539,77.9042148 C203.89269,76.6230451 203.07684,75.336113 202.253285,74.0549432 C202.182007,74.0904779 202.111692,74.1260126 202.040413,74.1605869 C203.580606,77.4230559 205.119835,80.6845645 206.660027,83.9470334 C206.588749,83.9825681 206.518434,84.0181028 206.447155,84.0526771 C205.6236,82.7436559 204.801008,81.4423178 203.970711,80.1332965 C203.871499,80.1822768 203.771324,80.2245342 203.672112,80.2744749 C205.10635,83.5859241 206.539625,86.8973733 207.980605,90.2165058 C207.881393,90.279892 207.782181,90.350001 207.682006,90.4143476 C198.364757,80.7556338 189.039802,71.0901973 179.601187,61.311434 C181.176055,59.1812732 182.652675,57.1788452 184.136037,55.1764173 C184.079207,55.1063083 184.02912,55.0352389 183.97229,54.9641695 C182.496633,55.8631012 181.013271,56.7620329 179.536651,57.6600042 C179.466336,57.596618 179.402763,57.5255486 179.338227,57.4544792 C181.445758,55.0141101 183.560994,52.5727807 185.668524,50.1247285 C185.618437,50.0536591 185.569312,49.9835501 185.519225,49.9124807 C182.844356,51.7161065 180.168525,53.5283758 177.500399,55.3320016 C177.436826,55.2542094 177.372291,55.1764173 177.308718,55.0919023 C182.680609,50.3725109 188.052499,45.6521591 193.588138,40.7915894 Z M135.818578,50.9162155 C131.216904,53.8507845 126.623889,56.8056052 121.995277,59.6977421 C121.017794,60.3091508 120.443427,61.0546065 120.060515,62.1414482 C113.972413,79.5637037 107.841017,96.9637787 101.72309,114.370604 C101.531634,114.918365 101.312278,115.465161 100.809105,115.920342 C104.69306,102.086497 108.577977,88.252651 112.461933,74.4197697 C112.355141,74.3840881 112.249311,74.3484066 112.142519,74.3204399 C106.898169,88.5159232 101.651896,102.712371 96.4075459,116.907854 C96.32192,116.857707 96.2372561,116.808524 96.1516301,116.758377 C98.6251621,108.189976 101.091959,99.6138594 103.566454,91.045458 C103.474093,91.0097764 103.381732,90.9808454 103.289372,90.9461282 C99.710399,99.2946539 96.1304642,107.64993 92.5505293,115.998456 C92.4726001,115.970489 92.3946709,115.948309 92.3167416,115.920342 C93.202826,111.806352 94.0898725,107.692362 94.9682601,103.586087 C94.8903309,103.550406 94.8124016,103.514724 94.7335103,103.479043 C93.1104654,106.626737 91.4874205,109.781181 89.8008777,113.057136 C89.50263,112.559523 89.2621076,112.196921 89.0494858,111.813103 C85.2145973,104.879304 81.4008747,97.9300745 77.5169196,91.0242419 C76.9993155,90.1003783 77.1051454,89.482219 77.6304462,88.6509346 C82.6910367,80.6081132 87.7237266,72.5440758 92.7564165,64.4867889 C93.0325362,64.0460732 93.2740206,63.5918563 93.267286,62.9592315 C88.7868354,68.5718478 84.3006123,74.1777136 79.8211239,79.7903299 C79.7210666,79.7334323 79.628706,79.6697841 79.5373075,79.6128864 C81.4364721,76.5008739 83.3433333,73.3888613 84.9163496,70.8101438 C82.8189946,72.6858377 80.274268,74.9453498 77.757442,77.1903963 C78.6512231,75.6204067 79.5729048,73.979054 80.4936244,72.3444518 C80.4224298,72.2875541 80.3589319,72.2239059 80.2886993,72.1670083 C79.2467565,73.0127582 78.2048136,73.8652587 77.0349128,74.8103384 C76.3749195,72.9770766 75.7447509,71.2431446 75.0568569,69.3250185 C70.7832556,72.578793 66.5933561,75.7621687 62.4044186,78.952295 C62.3341861,78.8741812 62.2562568,78.7960675 62.1841001,78.7179538 C63.6734146,76.7930771 65.161767,74.8604855 66.6578161,72.941395 C76.5885033,60.1953555 86.5047593,47.4483515 96.4566125,34.7235281 C97.1089091,33.8922437 97.9093676,33.0966408 98.8031487,32.5498447 C101.107353,31.1428331 102.963223,29.3230725 104.650728,27.2275028 C109.287037,21.4721602 114.02148,15.8026462 118.71359,10.0974506 C118.989709,9.76377959 119.294692,9.4503603 119.797865,9.25170068 C118.012227,13.0464851 116.218892,16.8470557 114.432292,20.6408758 C114.510221,20.6977734 114.58815,20.7546711 114.666079,20.8192837 C117.267569,17.8201021 119.870021,14.8218849 122.555213,11.7175873 C126.709515,16.3214757 130.799357,20.8540009 134.8892,25.3874905 C134.818967,25.4511387 134.754507,25.5157513 134.691009,25.5793995 C131.388156,22.7509109 128.085303,19.9311016 124.781488,17.102613 C124.710293,17.1739762 124.632364,17.2453393 124.561169,17.3157381 C128.396058,21.8135461 132.224212,26.3113541 136.0591,30.8081978 C135.973474,30.9075276 135.895545,31.0078218 135.810881,31.1071516 C132.712953,28.5920822 129.609253,26.0770129 126.511325,23.5686942 C126.433396,23.6468079 126.362201,23.7249217 126.284272,23.8030354 C129.509195,27.80323 132.735081,31.8034246 135.973474,35.8103698 C133.180529,40.201133 130.437612,44.507032 127.694695,48.8129309 C127.779359,48.8842941 127.871719,48.9546929 127.96408,49.0193055 C130.083563,46.2766456 132.196311,43.5339856 134.314832,40.7913257 C134.407193,40.8482233 134.499553,40.897406 134.584217,40.9543037 C132.712953,44.2370092 130.834955,47.5197147 128.963691,50.8024202 C129.033923,50.8448524 129.105118,50.8949994 129.176313,50.9441822 C130.778191,49.0540227 132.386805,47.1638633 133.996381,45.2679176 C134.07431,45.3171003 134.152239,45.3595325 134.230168,45.4019646 C133.280586,47.2853735 132.323307,49.167818 131.232298,51.3202853 C133.301752,50.8168857 135.095087,50.37617 136.880725,49.9422048 C136.909587,50.0068174 136.93845,50.0704656 136.973085,50.1273633 C136.590174,50.3906355 136.214959,50.6674088 135.818578,50.9162155 Z M55.6478512,72.5716402 C55.5766246,72.9339952 55.3359939,73.2953864 55.0867005,73.5796809 C49.215312,80.2822837 43.3304482,86.9704308 37.4436593,93.6595417 C37.3300816,93.794461 37.1741529,93.9004691 36.8411201,93.9004691 C38.6208246,90.172839 40.4082292,86.4461726 42.1879337,82.7108328 C42.1032317,82.6616836 42.0252674,82.6183166 41.9396029,82.5691674 C37.5784125,88.7320926 33.2104844,94.8873081 28.8492941,101.051197 C28.7636295,101.001084 28.6789275,100.958681 28.5942255,100.908568 C30.4018432,97.5076355 32.217161,94.1067031 34.0324788,90.7057706 C33.9189011,90.6421658 33.8130236,90.5785609 33.7071461,90.5072464 C30.4374565,94.7388968 27.1687294,98.9772932 23.7074978,103.450835 C22.84989,100.440205 22.1193353,97.6705025 21.2540274,94.944167 C20.8497678,93.63834 20.94217,92.5377833 21.5447092,91.2955611 C24.6295945,84.9331479 27.6297778,78.5292952 30.4018432,71.9828134 C27.6086023,76.1788066 24.8211365,80.3747998 22.0269331,84.564047 C21.9277933,84.5148978 21.8286534,84.4647849 21.7295136,84.407926 C26.1821436,75.489754 30.6289985,66.571582 35.0825911,57.6543737 C34.9969266,57.6119705 34.9189622,57.5695672 34.8409979,57.5262003 C30.5789474,64.3492668 26.3168968,71.1665511 22.0558088,77.9896177 C21.9634066,77.9327588 21.8710044,77.8826458 21.7718646,77.8325329 C27.5306379,67.3743524 33.2884488,56.9152082 39.1598373,46.2585034 C39.7768143,47.0323625 40.2946515,47.6713022 40.8057511,48.3102419 C42.8616996,50.8881661 45.0244881,53.393812 46.946646,56.0642523 C48.5280708,58.2721118 50.4348283,59.826576 53.030752,60.643802 C54.555388,61.1266207 56.0087972,61.8571129 57.5623089,62.5037623 C56.9174187,65.9191504 56.3004416,69.2487683 55.6478512,72.5716402 Z M217.09508,130.227471 C217.123937,129.503567 217.354794,128.788339 217.784765,128.17143 C218.271489,127.474516 218.95925,126.972314 219.733583,126.714948 C219.662402,126.411313 219.591221,126.09322 219.52004,125.760667 C219.102574,123.807766 220.243393,121.857757 222.148925,121.269766 C222.52503,121.153131 222.906906,121.097224 223.282048,121.097224 C223.322448,121.097224 223.362848,121.098188 223.403248,121.099152 C223.738953,119.79786 224.742219,118.724054 226.102352,118.347161 C226.44479,118.251733 226.790114,118.205465 227.130628,118.205465 C228.499418,118.205465 229.792217,118.942864 230.479979,120.166078 C230.645426,120.144871 230.811836,120.134268 230.976321,120.134268 C232.297016,120.134268 233.564806,120.817687 234.276615,122.0062 C235.296234,123.709446 235.944557,123.95139 235.950329,123.953318 C236.211967,123.899338 237.258519,123.409667 239.620956,119.87883 C240.067279,119.211797 240.362584,118.77225 240.760812,118.372223 L241.173469,117.958702 C239.014956,112.097106 229.607531,86.5320298 228.303189,82.7071967 C227.998265,81.8194267 227.452866,80.9249092 226.787228,80.2646243 C222.95981,76.4291881 219.054479,72.6862881 215.213595,68.8662746 C214.682623,68.3409384 214.158386,67.6305296 213.994862,66.9201208 C212.251891,59.5345686 208.615893,53.1996887 203.761161,47.4258101 C200.635934,43.7041164 197.879116,39.6701127 194.874127,35.6582791 C194.435499,36.0274604 194.066127,36.3118167 193.719842,36.6308741 C189.084425,40.8991102 184.605798,45.3591664 179.751067,49.3642525 C177.143344,51.5089737 173.896917,52.8864148 170.914051,54.5626711 C170.66588,54.6976198 170.156071,54.5482123 169.872309,54.3708511 C169.035452,53.8599737 168.241881,53.2700548 167.44831,52.7023062 C159.872351,47.2764025 154.323125,39.8551852 148.171747,33.0441291 C138.596951,22.4487244 129.057745,11.8244022 119.505073,1.21453874 C119.178988,0.85210496 118.83174,0.50412997 118.349826,0 C117.960255,0.497382533 117.606274,0.923435013 117.280188,1.37069372 C111.723267,9.08301474 106.210593,16.8242534 100.596919,24.4864506 C99.363758,26.1704182 97.9391776,27.8110094 96.2952831,29.074708 C92.6881417,31.8517605 90.0236667,35.4452529 87.1822012,38.8960852 C81.9936891,45.2030114 76.8128723,51.5234325 71.6686078,57.8727711 C70.9529509,58.7528297 70.208437,59.193341 69.0676184,59.1865936 C66.1193815,59.1788822 63.1644114,59.3070835 60.2161745,59.2646711 C59.5563081,59.2569597 58.7983275,58.9089847 58.2740896,58.4906436 C51.9524542,53.4628388 45.6731426,48.398405 39.3870976,43.3416826 C38.9696311,43.0081664 38.5444694,42.6813976 38.005803,42.2553451 C26.469684,62.1361877 12.0488139,87.1209847 0,107.918515 C51.2637307,122.322366 122.790939,132.022289 203.240771,134.14966 C207.341369,133.117302 212.431767,131.757211 216.774765,130.333502 C216.855565,130.307476 216.968108,130.270847 217.09508,130.227471 L217.09508,130.227471 Z" id="Fill-57"></path>
                        </g>
                    </g>
                </g>
                <path d="M294.426586,87.9947412 C297.470609,91.5135792 300.346447,94.836962 303.921345,97.3958832 C303.921345,97.3958832 304.250012,97.631844 304.279541,97.6530612 C304.38931,97.5951962 304.500364,97.5379741 304.610776,97.480109 C305.963318,96.7767272 307.241397,96.111922 308.229324,95.2998825 C310.426644,93.4880634 312.582239,91.458286 314.665937,89.4947319 C315.578759,88.6344714 316.492864,87.7735681 317.415957,86.9242377 C317.46025,86.8830892 317.512888,86.8432266 317.557823,86.8027211 L293.391156,86.8027211 C293.739081,87.2019899 294.087007,87.6019017 294.426586,87.9947412" id="Fill-58" fill="#C95435"></path>
            </g>
        </g>
    </g>
</svg>