<?xml version="1.0" encoding="UTF-8"?>
<svg width="528px" height="272px" viewBox="0 0 528 272" version="1.1" xmlns="http://www.w3.org/2000/svg" xmlns:xlink="http://www.w3.org/1999/xlink">
    <!-- Generator: Sketch 61 (89581) - https://sketch.com -->
    <title>BH_HACKINFEST_HOMEPAGE@2x</title>
    <desc>Created with Sketch.</desc>
    <g id="Page-1" stroke="none" stroke-width="1" fill="none" fill-rule="evenodd">
        <g id="BH_HACKINFEST_HOMEPAGE" transform="translate(-912.000000, -964.000000)" fill="#17A3AC">
            <g id="Group-13" transform="translate(567.000000, 969.500000)">
                <path d="M763.209194,232.266601 C762.361808,234.723454 761.544769,237.194467 760.720726,239.66076 C757.683674,242.563669 754.987445,243.805076 753.934631,243.708312 C752.181498,243.547826 752.979863,238.702564 756.304045,227.794233 C751.124016,236.892376 748.04728,241.562991 746.259131,241.685716 C746.270803,241.456787 746.284809,241.227859 746.28014,240.99893 C746.198436,238.013418 746.093388,235.027905 745.927646,232.049473 C745.771242,229.240967 746.016353,226.503264 746.915097,223.831644 C747.536046,221.988414 748.126649,220.131024 748.698577,218.271274 C749.240157,216.513008 750.045524,214.891627 751.084331,213.38589 C752.793111,210.898357 754.452868,208.373062 756.252688,205.956331 C757.781719,203.905413 758.372322,201.70581 757.954465,199.185236 C757.816735,198.368645 757.795726,197.533173 757.749038,196.707142 C757.735031,196.438092 757.809732,196.164322 757.865757,195.713545 C759.672582,196.617459 761.372023,197.403368 762.536888,198.994068 C763.160172,199.84606 763.568692,200.808977 763.582698,201.871017 C763.617714,204.273587 763.568692,206.678518 763.599039,209.083448 C763.676074,215.137076 763.760112,221.193064 763.879167,227.246692 C763.911848,228.964837 763.774119,230.63106 763.209194,232.266601 Z M726.494247,232.890847 C725.146659,231.059043 723.542501,228.779994 721.688968,226.082247 C727.868211,242.283004 723.175631,237.889054 713.298912,227.209877 C718.885888,238.269688 710.716434,231.489636 704.611524,227.276488 C702.995377,229.681622 691.620005,233.694937 694.00586,227.887882 C690.728008,231.924987 687.538875,236.042977 685.433568,237.134922 C683.328261,238.224488 682.30678,236.28801 683.364229,228.218558 C675.42257,242.180708 671.557246,248.173323 672.250223,228.953659 C667.47132,249.17011 665.615389,252.324618 661.896333,230.711714 C661.862763,252.950286 659.963671,251.989184 651.151594,232.457875 C657.879944,251.646613 654.587705,245.066394 647.137604,229.569811 C648.835277,242.972904 647.93129,241.857169 638.893816,232.56255 C646.984142,243.317854 640.977543,239.409213 631.611564,233.797233 C636.558316,241.100658 627.966842,234.782125 623.449304,233.416598 C623.432519,233.333335 623.408541,233.25245 623.396551,233.169186 C623.243089,232.179536 623.396551,231.261255 624.216614,230.461923 C624.614656,230.673651 625.003107,230.883 625.559406,231.180371 C625.782406,230.535671 625.974233,229.978993 626.204426,229.308125 C626.501759,229.529368 626.770318,229.729201 627.175553,230.033709 C627.218714,229.622148 627.29065,229.353325 627.266671,229.094018 C627.074844,227.012423 626.712769,224.935585 626.693587,222.85399 C626.660017,219.433038 626.674404,215.993053 627.007704,212.593511 C627.170758,210.947267 628.021992,209.336707 628.729356,207.788 C629.019495,207.150438 629.712472,206.657992 630.297546,206.194093 C631.410146,205.30436 631.985628,204.298058 631.635543,202.811204 C631.503661,202.254526 631.777016,201.605068 631.896908,200.798599 C632.508358,201.022222 632.97354,201.150686 633.400356,201.355277 C634.00701,201.640753 634.570504,202.023766 635.18675,202.290211 C635.879727,202.594718 636.201038,202.432949 636.407252,201.712122 C636.522349,201.314835 636.601478,200.884242 636.570306,200.477439 C636.424037,198.640877 637.186551,197.061244 637.968249,195.493505 C638.104926,195.217545 638.409452,194.984407 638.69,194.820258 C640.685006,193.661702 642.864646,193.052687 645.1402,192.762453 C645.54064,192.710116 645.984241,192.810032 646.384681,192.919464 C647.758645,193.300099 649.118223,193.357194 650.484994,192.888538 C650.758348,192.795758 651.058078,192.793379 651.436938,192.733905 C651.631163,193.80444 652.417656,193.775892 653.254503,193.761618 C657.189365,193.697386 661.057087,193.150224 664.888842,192.284281 C667.022923,191.80373 669.157004,191.178062 671.37501,191.468295 C675.47772,192.001184 679.527679,191.358863 683.599218,191.056734 C686.157717,190.868796 688.728206,190.711784 691.291501,190.742711 C692.521595,190.756985 693.778065,191.151893 694.969793,191.537285 C696.801746,192.132027 698.595333,192.224806 700.410501,191.546801 C706.913454,189.120256 713.409213,186.6723 719.919359,184.267166 C721.849623,183.553476 723.823049,182.949219 725.779689,182.299761 C725.969119,182.235529 726.170538,182.206982 726.463075,182.380646 C724.259456,183.410738 722.055838,184.438452 719.703553,185.539913 C719.854617,186.16796 719.936144,186.776975 720.147154,187.34079 C721.736925,191.613412 723.345878,195.878898 724.964422,200.139626 C726.585365,204.412248 727.398234,208.810956 727.30232,213.390465 C727.230385,216.775733 727.263955,220.165759 727.333492,223.551027 C727.400632,226.707915 727.136869,229.819602 726.494247,232.890847 Z M604.08509,235.536754 C604.063063,235.675741 604.065266,235.807661 604.054252,235.941936 C602.937499,236.618026 601.906649,237.11037 600.981527,236.848886 C600.252443,237.157484 599.648911,237.329451 599.118068,237.426035 C599.131284,236.733456 599.133487,236.038521 599.166527,235.345941 C599.27666,233.037343 599.488117,230.719322 599.860368,228.443703 C600.11808,226.872443 600.708396,225.360075 601.18197,223.833574 C601.485939,222.853597 601.833961,221.887755 602.192996,220.92898 C602.384628,220.413079 602.644543,219.925447 602.871418,219.426035 C602.948512,219.444881 603.025605,219.463727 603.102699,219.480217 C603.166576,219.875977 603.265696,220.267025 603.289926,220.662785 C603.563057,225.249357 603.827377,229.833574 604.089495,234.420146 C604.109319,234.792349 604.144562,235.173974 604.08509,235.536754 Z M521.654242,92.3996569 C520.275976,93.5502451 519.076156,93.6231863 517.575794,92.6443627 C517.202465,92.3996569 516.836179,92.1478921 516.216311,91.7314216 C516.359538,92.2843627 516.444066,92.4678921 516.446414,92.6537745 C516.448762,93.1243627 516.573205,93.8796569 516.35719,94.0020098 C515.962729,94.2231863 515.291206,94.2231863 514.856829,94.034951 C514.265137,93.7784804 513.7838,93.2631863 513.192108,92.8090686 C513.192108,93.514951 513.192108,94.1667157 513.192108,94.8090686 C511.896021,94.8443627 511.630699,93.5173039 510.675069,93.0631863 C510.761945,93.9290686 510.834732,94.6655392 510.914564,95.474951 C509.529253,95.3055392 509.630217,93.832598 508.599452,93.4231863 C508.698067,94.4208333 508.789638,95.3220098 508.907037,96.4984804 C508.061763,95.9855392 507.481811,95.632598 506.822028,95.2302451 C506.906555,95.9714216 506.972299,96.5408333 507.056826,97.2843627 C506.051889,96.9878921 505.509505,96.5267157 505.169047,95.7314216 C504.877897,95.0490686 504.459956,94.4208333 504.098366,93.7690686 C503.936356,94.9714216 504.725278,95.9243627 504.584399,97.1690686 C503.23196,96.4514216 502.384338,95.5102451 501.88187,94.1784804 C500.851105,91.4443627 500.393248,88.6278921 500.358028,85.714951 C500.334548,83.9314216 501.130515,82.794951 502.776452,82.2067157 C502.961942,82.1384804 503.147433,82.0678921 503.332924,81.994951 C505.983798,80.9408333 505.976754,80.9455392 506.939427,83.5596569 C507.148398,84.1220098 507.458331,84.6467157 507.721306,85.1878921 C507.815225,85.152598 507.909144,85.114951 508.003064,85.0773039 C507.92558,84.5431863 507.852793,84.0114216 507.768265,83.4796569 C507.305712,80.5173039 507.13431,77.5431863 507.512335,74.5620098 C507.808181,72.2467157 508.132203,69.9314216 508.552492,67.634951 C509.073744,64.8043627 509.688916,61.9878921 510.311132,59.1761274 C510.466099,58.474951 510.625762,57.7031863 511.539127,57.2843627 C511.637743,57.7173039 511.76923,58.0820098 511.797406,58.4537745 C511.853757,59.1478921 511.823234,59.8467157 511.877237,60.5408333 C512.02516,62.5220098 512.097948,64.514951 512.384402,66.4773039 C513.055925,71.0655392 515.270074,74.7878921 518.958757,77.6020098 C521.313785,79.3996569 523.053641,81.6443627 523.964658,84.4820098 C524.936724,87.5102451 524.082058,90.3737745 521.654242,92.3996569 Z M899.698516,251.924546 C894.514537,246.554512 887.952779,243.201818 887.759365,241.194017 C889.165797,237.955782 871.982971,240.421419 871.044553,241.194017 C870.273284,242.460219 867.126124,243.991108 862.95936,244.129413 C858.226681,244.522865 843.426909,248.455008 848.758934,238.721226 C839.081058,242.441143 828.3597,251.280714 831.977263,247.451107 C821.148453,257.583111 819.252516,255.463236 828.063609,236.424893 C816.293994,255.122243 814.388506,257.28981 820.718644,236.54889 C812.406607,256.944049 811.157772,256.147605 807.368285,234.12856 C807.907935,255.720768 806.274659,253.813119 797.475504,233.921103 C804.350068,253.972884 802.838571,252.613684 791.651586,234.746161 C800.629828,252.320383 795.240495,248.140246 786.03541,233.217657 C791.615769,242.56514 787.64242,241.334706 780.853818,236.970958 C780.85143,236.009979 780.82994,235.051385 780.806062,234.090407 C780.710548,230.511179 781.474654,227.106025 782.838105,223.812945 C784.581221,219.611346 786.751759,215.660127 789.583725,212.0809 C790.548409,210.864773 791.508317,209.646262 792.408529,208.382444 C793.590505,206.725173 794.555188,204.922445 794.617272,202.852645 C794.719948,199.418876 793.946291,196.278407 791.078507,193.991612 C790.655861,193.655389 790.242767,193.26909 789.949064,192.823177 C786.856823,188.132744 784.905966,183.063165 785.218772,177.354524 C785.455167,173.050389 786.799515,169.061017 789.841611,165.934856 C795.097225,160.533823 797.824128,153.930971 799.533814,146.77967 C799.806027,145.639849 800.04481,144.49049 800.312247,143.348285 C800.364779,143.119367 800.477007,142.902372 800.644155,142.461228 C801.181417,143.882427 801.210071,145.170091 801.27693,146.414832 C801.663759,153.666285 801.009493,160.800894 798.8891,167.785276 C798.38288,169.452085 798.177526,171.228584 797.9865,172.969314 C797.716675,175.425413 797.580569,177.895819 797.406257,180.359072 C797.379991,180.719141 797.44685,181.081594 797.492219,181.770732 C798.160812,181.086363 798.626439,180.609451 799.259214,179.96085 C799.400096,180.509299 799.552917,180.91229 799.605449,181.327204 C799.944521,184.071835 800.257327,186.81885 800.586847,189.563481 C800.620277,189.835321 800.679973,190.107161 800.739668,190.436231 C801.432139,190.27408 801.405873,189.742323 801.503774,189.341717 C801.790314,188.161358 802.021933,186.969077 802.296534,185.786335 C802.468457,185.05189 802.68575,184.329367 802.867225,183.597307 C803.091681,182.693558 803.574023,182.040188 804.440805,181.610967 C805.801868,180.936136 806.733122,179.832083 807.420817,178.477652 C808.987234,175.389645 809.581804,172.075103 809.88267,168.672333 C810.24562,164.606655 809.825362,160.545746 809.894609,156.484837 C809.980571,151.358029 809.4648,146.271758 809.104238,141.175949 C808.772329,136.4879 807.783767,131.900003 806.792818,127.309721 C805.990507,123.606497 804.693915,120.072576 803.380608,116.545809 C801.654207,111.912605 799.173252,107.69193 795.85178,104.012551 C794.817849,102.867961 793.523645,101.964212 792.408529,100.888775 C789.760425,98.3301397 786.653858,96.4296438 783.518637,94.5601473 C782.222045,93.7875492 780.968434,92.9314914 779.628861,92.2447376 C777.470263,91.1359163 775.259132,90.1320157 773.05994,89.0995003 C772.53223,88.8491213 771.951987,88.703663 771.429052,88.4413612 C768.188767,86.836551 764.786109,85.6728848 761.32853,84.6332157 C759.406327,84.0537672 757.53188,83.3073993 755.645495,82.6087226 C752.211795,81.332982 748.601395,80.7368415 745.081734,79.7973241 C742.065904,78.9913421 738.968888,78.7505014 735.900526,78.3069728 C734.281578,78.0732858 732.653077,77.8348296 731.022189,77.7799846 C727.211212,77.6536028 723.393072,77.7036787 719.579707,77.5534512 C717.156059,77.4556842 714.737187,77.1552294 712.320703,76.9024658 C703.597959,75.9891786 695.228614,73.5140033 686.840167,71.1342104 C683.697782,70.2399997 680.595991,69.2050998 677.475097,68.2298139 C677.162291,68.1320469 676.861424,67.9937423 676.417288,67.8220538 C676.773075,67.5788285 677.03096,67.40714 677.39391,67.1615302 C677.090656,66.830076 676.806504,66.4962374 676.493698,66.1862443 C675.999418,65.6974091 675.342764,65.3635704 675.287844,64.5146664 C675.273517,64.2642874 674.872362,64.021062 674.619252,63.808836 C672.785398,62.2731781 670.941993,60.7518276 669.10814,59.2161697 C668.566102,58.7631029 668.047943,58.2814214 667.477252,57.7758942 C668.124354,56.7815319 667.673054,56.1615458 666.93999,55.5010221 C664.478137,53.2738412 661.923158,51.1873495 659.033884,49.513387 C657.732516,48.7598654 656.536213,47.8179634 655.344686,46.8975225 C654.387166,46.1559237 653.649327,45.2211754 652.935366,44.2148903 C651.591017,42.3167789 650.294425,40.318516 648.131051,39.1548498 C647.553196,38.8448567 647.078018,38.3393296 646.504939,37.8838782 C646.73417,37.5715006 646.922809,37.3139679 647.125775,37.0373587 C647.049364,36.932438 646.994444,36.817979 646.906094,36.741673 C645.332514,35.337166 643.601337,34.1734998 641.700624,33.2459052 C639.854832,32.3469253 638.028141,31.4074079 636.1919,30.4821979 C635.618821,30.1936659 635.098274,29.8789037 635.06962,29.1110747 C635.048129,28.5793174 634.608769,28.3480149 634.159856,28.1810955 C630.630643,26.8600482 627.170677,25.3458514 623.486255,24.4683326 C623.097039,24.3753346 622.729313,24.177416 622.349648,24.024804 C622.416507,23.5478916 622.46904,23.1854382 622.54545,22.6465272 C619.804221,22.331765 617.127464,22.3842254 614.376683,23.0018269 C614.276394,22.5129917 614.190432,22.0861551 614.075817,21.5186294 C613.574372,21.5186294 613.046662,21.4709382 612.528503,21.5281676 C611.487409,21.6450112 610.453478,21.8238533 609.414772,21.9645425 C609.125844,22.00508 608.774833,22.1123853 608.54799,22.0003109 C607.597633,21.5281676 606.847854,21.9693116 606.081361,22.4223784 C603.227904,24.1058791 600.367283,25.7798416 597.523377,27.4776498 C596.515713,28.0809439 595.522376,28.4553202 594.304582,28.0904822 C593.884324,27.966485 593.316021,28.1596345 592.867109,28.3384766 C592.286866,28.5697792 591.766319,28.9441554 591.207567,29.2279183 C590.777757,29.447298 590.328845,29.621371 589.889484,29.8169051 C589.815461,29.7525219 589.736663,29.6881387 589.660253,29.6237555 C589.97067,28.7128529 590.276313,27.7995656 590.586731,26.8862784 C590.522259,26.8290489 590.4554,26.7718194 590.388541,26.7145899 C589.836952,27.0412749 589.254321,27.3298069 588.736162,27.7089523 C587.243768,28.793928 585.784804,29.9242104 584.299574,31.0211089 C583.872152,31.335871 583.40175,31.5886346 582.80718,31.9606263 C582.749872,31.276257 582.709279,30.7659607 582.649583,30.0553613 C582.176793,30.2890483 581.785188,30.4082764 581.493873,30.6467326 C580.846771,31.17849 580.27608,31.8056298 579.621814,32.3254643 C579.070226,32.7618391 578.439838,33.0956778 577.847656,33.4795923 C577.465604,33.7252021 577.057285,33.9421973 576.708661,34.2307293 C575.679507,35.0748642 574.671842,35.9476139 573.40868,37.0206668 C573.470764,36.1765319 573.511357,35.6400054 573.571053,34.8459463 C571.309777,36.0024588 569.86514,37.9577996 567.792503,39.1143122 C566.920945,38.3917899 566.199821,38.7709353 565.447654,39.3670758 C564.198819,40.3542844 562.902227,41.2842636 561.619962,42.2309347 C560.958533,42.7197699 560.261287,42.9582261 559.387341,42.8509208 C558.904999,42.7913068 558.329532,43.0154556 557.875844,43.2586809 C555.476075,44.5511135 553.109735,45.9055447 550.709966,47.2003619 C550.105845,47.5246623 549.422925,47.705889 548.775824,47.9538834 C548.704189,47.8680392 548.632554,47.7798104 548.558531,47.6939662 C548.876112,47.2480531 549.143549,46.7568333 549.518439,46.3681497 C550.736232,45.0971782 552.00417,43.8715133 553.229127,42.6076955 C553.656548,42.1689361 554.017111,41.6705626 554.408715,41.1984194 C554.349019,41.1125751 554.286936,41.0267309 554.22724,40.9385021 C553.689978,41.1912657 553.133614,41.4130299 552.615455,41.7039465 C549.72618,43.3230641 546.872723,45.011334 543.950019,46.5684529 C542.366887,47.4125879 540.683467,48.0850344 539.009598,48.7479426 C538.271758,49.0388591 537.641371,49.3583905 537.285584,50.2359093 C533.832782,49.5563091 530.480268,50.5745171 526.996424,50.9894308 C526.910462,50.5172876 526.845991,50.2025254 526.798234,49.8853786 C526.652577,48.9553995 526.382752,48.7312507 525.451498,48.89817 C524.83305,49.0078598 524.236092,49.2320087 523.617644,49.3440831 C523.140078,49.4323119 522.645797,49.4251582 522.10376,49.4633112 C522.199273,48.7217124 522.278072,48.1184182 522.35687,47.5342005 C521.031624,47.1502861 516.318047,48.5452548 512.955982,50.2669086 C510.792608,48.7646345 508.32598,49.3870052 505.933374,49.4704649 C505.104797,49.4990796 504.261893,49.6850754 503.466745,49.9330699 C502.115233,50.3551374 500.758946,50.3718293 499.362065,50.3455991 C497.351512,50.3098307 495.338571,50.4099823 493.32563,50.4695963 C492.487502,50.4958265 491.651761,50.6007472 490.813633,50.6174392 C489.755824,50.6365157 488.719506,50.727129 487.740495,51.1611193 C487.625879,51.2111951 487.5041,51.2731937 487.384709,51.282732 C484.834506,51.4591896 482.871709,52.9733864 480.806236,54.2157432 C479.660078,54.9072662 478.607045,55.7561702 477.520582,56.5430757 C476.467549,57.303751 475.784629,58.3076515 475.371535,59.5547775 C474.657573,61.7104215 474.053452,63.8756038 473.957939,66.1647833 C473.929285,66.8253069 473.752586,67.4858306 473.618867,68.1415851 C473.100708,70.6429906 472.568222,73.1372425 472.054839,75.638648 C471.990367,75.9510256 472.019021,76.2824797 471.999918,76.6592405 C472.458382,76.6592405 472.821332,76.6592405 473.349043,76.6592405 C473.064891,79.4944847 472.019021,82.1675787 471.689501,85.1315892 C472.17423,84.8812102 472.546732,84.6856761 473.031461,84.4352971 C473.141301,84.8311344 473.24159,85.1935878 473.40635,85.7801901 C474.172844,85.1578194 474.819946,84.6332157 475.689116,83.9273854 C475.636584,84.7595975 475.648523,85.3318924 475.557785,85.8851108 C475.21155,88.0240629 474.356707,89.9746346 473.291735,91.8441312 C471.410124,95.1419804 469.908179,98.5972107 469.30167,102.364819 C468.922005,104.718381 468.561443,107.098174 468.496972,109.473198 C468.391907,113.531722 468.504135,117.5974 468.566219,121.660694 C468.587709,122.941204 468.434888,124.169253 467.911953,125.337689 C466.472092,128.549694 465.125355,131.804621 463.549387,134.949858 C462.262347,137.518031 462.042666,140.148203 462.450985,142.895218 C462.890346,145.859229 463.852642,148.668243 465.096701,151.384259 C465.858419,153.048683 467.083376,154.269579 468.645017,155.180482 C470.588711,156.313149 472.701941,157.002287 474.886805,157.441047 C476.775579,157.822576 478.315729,158.690557 479.590831,160.135602 C480.894586,161.611645 482.27714,163.020922 483.642979,164.44212 C484.877487,165.727399 485.598612,167.241596 485.825455,169.006172 C486.195569,171.850955 487.119659,174.547894 488.091506,177.228142 C488.265818,177.714592 488.614441,178.141429 488.915308,178.651725 C489.471672,178.279734 489.906257,177.957818 490.371884,177.681209 C491.236279,177.163759 491.651761,177.254372 492.074407,178.158121 C492.551973,179.181098 492.941189,180.244613 493.35906,181.296205 C493.593067,181.885191 493.862892,182.385949 494.457462,182.760326 C494.815636,182.98209 494.951743,183.57823 495.161872,184.01699 C495.407818,184.524901 495.345735,185.283192 496.062084,185.404805 C496.73784,185.521648 497.112729,184.930277 497.458964,184.481979 C498.557366,183.056011 499.608011,181.59189 500.677759,180.144461 C500.992953,179.71524 501.312922,179.286019 501.599462,178.897335 C501.802427,178.942642 501.90988,178.933104 501.957636,178.980795 C503.039323,180.092001 503.789102,180.051463 504.954363,178.632649 C505.689815,177.736054 506.1244,176.710692 506.363183,175.582794 C506.766726,173.69899 507.234741,171.829493 507.592916,169.936151 C508.106299,167.227289 509.505568,165.04303 511.465976,163.183072 C513.69621,161.063196 513.925441,160.943968 516.82188,161.72372 C517.266016,161.842948 517.719704,161.940715 518.168616,162.040867 C519.436554,162.324629 520.468096,162.963692 521.349206,163.938978 C523.794344,166.645456 526.282463,169.313781 528.763418,171.989259 C529.126369,172.382712 529.544239,172.723704 529.952558,173.10285 C530.277303,172.902546 530.523249,172.752319 530.604436,172.699859 C531.507035,172.924007 532.280692,173.112388 533.056737,173.303153 C533.121209,173.219693 533.18568,173.133849 533.252539,173.048005 C534.892979,176.050168 536.535806,179.047563 538.200123,182.090264 C539.394039,181.382049 539.031088,179.941773 539.952791,179.007025 C540.296638,179.452938 540.652425,179.836853 540.917474,180.273227 C542.030203,182.099802 543.114278,183.943068 544.215068,185.772027 C544.468178,186.194095 544.759493,186.592317 545.105728,187.104998 C545.745667,185.874564 545.165424,184.50344 546.118168,183.397004 C546.536039,183.699843 546.987339,183.976452 547.378943,184.322214 C548.324524,185.154426 549.234287,186.020022 550.167929,186.866541 C551.142163,187.751214 551.144551,187.746445 552.433979,187.438836 C554.291711,189.584942 555.726797,192.112578 557.656164,194.244376 C557.754065,194.22053 557.851966,194.196685 557.949867,194.170455 C558.002399,193.498008 558.054932,192.820793 558.117015,192.048194 C558.950368,192.525107 559.251235,193.374011 559.726413,194.060765 C560.249348,194.82144 560.705423,195.625037 561.214031,196.392866 C561.696373,197.124927 562.209756,197.835526 562.742242,198.603355 C563.000128,198.462666 563.19593,198.355361 563.511124,198.183672 C564.590423,200.630233 565.662559,203.055333 566.7729,205.568661 C567.515515,205.02975 567.594313,204.35015 567.780564,203.732548 C567.966815,203.103024 568.124412,202.466346 568.353643,201.607903 C568.704655,202.084816 568.929111,202.323272 569.074768,202.602266 C569.767239,203.940005 570.464485,205.277744 571.104424,206.641714 C571.324104,207.111472 571.515131,207.495387 572.045229,207.719536 C573.105426,208.163064 573.504193,209.171734 573.902961,210.14702 C575.624586,214.374848 577.3486,218.602677 579.053511,222.840043 C580.02297,225.248451 580.932733,227.680704 581.90458,230.089112 C582.415576,231.357699 582.315287,232.514211 581.572672,233.673108 C580.894528,234.731854 580.314285,235.850213 579.68151,236.937574 C578.821891,238.420771 578.759808,239.918276 579.447503,241.506394 C580.247426,243.349661 580.225935,244.453713 579.258864,245.698454 C575.264024,245.681762 570.698493,244.751783 566.906618,244.019723 C566.737082,247.768254 551.24484,251.125717 550.256278,251.130487 C541.937078,255.808997 546.614837,249.120301 541.523983,248.347703 C542.588955,247.458261 538.816184,247.577489 534.978941,250.467578 C526.841215,253.619969 525.895634,253.374359 518.617528,255.766075 C519.052113,258.002794 516.069713,257.914565 511.8146,258.172098 C507.55471,258.429631 494.517157,267.023592 497.349124,262.655075 C488.526091,272.627313 475.665238,285.635098 487.356055,267.970263 C472.455994,286.212162 467.835543,291.954188 476.08072,269.544074 C466.424335,291.338971 465.497857,293.029625 469.043785,269.734839 C464.451987,293.892836 463.912338,296.177247 461.428994,273.924514 C462.544111,286.68669 451.686647,292.872244 439.549306,296.740003 L436.459453,293.65438 L434.071623,293.65438 L424.520302,288.885256 L414.968982,281.73157 L407.805491,276.962446 L393.47851,276.962446 L381.539358,281.73157 L371.988038,276.962446 L362.436717,279.347008 C362.436717,279.347008 360.048886,281.73157 357.661056,284.116132 C355.273226,286.500694 340.946245,315.115438 326.619263,291.269818 C329.007094,305.57719 318.53407,289.812851 317.067943,286.500694 C319.455773,305.57719 311.236861,302.765792 307.516622,293.65438 C309.811326,304.363448 312.679111,308.898885 301.692704,307.067541 C304.739575,312.437575 299.768113,314.252227 294.333411,316.028725 C293.239785,316.38641 292.124668,316.739325 291,317.09224 C307.521397,317.352157 324.164574,317.5 340.946245,317.5 C562.38168,317.5 762.508119,294.548591 906,257.58788 C904.094511,255.87338 901.909647,253.910886 899.698516,251.924546 L899.698516,251.924546 Z" id="Fill-60" transform="translate(598.500000, 169.500000) rotate(4.000000) translate(-598.500000, -169.500000) "></path>
            </g>
            <rect id="Rectangle" x="0" y="1235.5" width="1440" height="258.5"></rect>
        </g>
    </g>
</svg>