<?xml version="1.0" encoding="UTF-8"?>
<svg width="386px" height="8px" viewBox="0 0 386 8" version="1.1" xmlns="http://www.w3.org/2000/svg" xmlns:xlink="http://www.w3.org/1999/xlink">
    <!-- Generator: Sketch 60.1 (88133) - https://sketch.com -->
    <title>Group 5 Copy</title>
    <desc>Created with Sketch.</desc>
    <g id="Page-1" stroke="none" stroke-width="1" fill="none" fill-rule="evenodd" opacity="0.25">
        <g id="BH_HACKINFEST_EVENTPAGE_BUNBUN" transform="translate(-528.000000, -2634.000000)" fill="#41343A">
            <g id="Group-13" transform="translate(0.000000, 2419.000000)">
                <g id="Group-5-Copy" transform="translate(721.000000, 219.000000) rotate(90.000000) translate(-721.000000, -219.000000) translate(717.000000, 26.000000)">
                    <path d="M4,196.5 C2.06706949,196.5 0.5,194.932678 0.5,193.000353 C0.5,191.067322 2.06706949,189.5 4,189.5 C5.93293051,189.5 7.5,191.067322 7.5,193.000353 C7.5,194.932678 5.93293051,196.5 4,196.5" id="Fill-175"></path>
                    <path d="M4,223.5 C2.06706949,223.5 0.5,221.932678 0.5,219.999647 C0.5,218.067322 2.06706949,216.5 4,216.5 C5.93293051,216.5 7.5,218.067322 7.5,219.999647 C7.5,221.932678 5.93293051,223.5 4,223.5" id="Fill-181"></path>
                    <path d="M4,250.5 C2.06706949,250.5 0.5,248.932678 0.5,246.999647 C0.5,245.067322 2.06706949,243.5 4,243.5 C5.93293051,243.5 7.5,245.067322 7.5,246.999647 C7.5,248.932678 5.93293051,250.5 4,250.5" id="Fill-187"></path>
                    <path d="M4,277.5 C2.06706949,277.5 0.5,275.932678 0.5,273.999647 C0.5,272.067322 2.06706949,270.5 4,270.5 C5.93293051,270.5 7.5,272.067322 7.5,273.999647 C7.5,275.932678 5.93293051,277.5 4,277.5" id="Fill-193"></path>
                    <path d="M4,304.5 C2.06706949,304.5 0.5,302.932678 0.5,300.999647 C0.5,299.066616 2.06706949,297.5 4,297.5 C5.93293051,297.5 7.5,299.066616 7.5,300.999647 C7.5,302.932678 5.93293051,304.5 4,304.5" id="Fill-199"></path>
                    <path d="M4,88.5 C2.06706949,88.5 0.5,86.9326778 0.5,84.999647 C0.5,83.0666162 2.06706949,81.5 4,81.5 C5.93293051,81.5 7.5,83.0666162 7.5,84.999647 C7.5,86.9326778 5.93293051,88.5 4,88.5" id="Fill-199-Copy"></path>
                    <path d="M4,331.5 C2.06706949,331.5 0.5,329.932678 0.5,327.999647 C0.5,326.066616 2.06706949,324.5 4,324.5 C5.93293051,324.5 7.5,326.066616 7.5,327.999647 C7.5,329.932678 5.93293051,331.5 4,331.5" id="Fill-205"></path>
                    <path d="M4,115.5 C2.06706949,115.5 0.5,113.932678 0.5,111.999647 C0.5,110.066616 2.06706949,108.5 4,108.5 C5.93293051,108.5 7.5,110.066616 7.5,111.999647 C7.5,113.932678 5.93293051,115.5 4,115.5" id="Fill-205-Copy"></path>
                    <path d="M4,7.5 C2.06706949,7.5 0.5,5.93267776 0.5,3.999647 C0.5,2.06661624 2.06706949,0.5 4,0.5 C5.93293051,0.5 7.5,2.06661624 7.5,3.999647 C7.5,5.93267776 5.93293051,7.5 4,7.5" id="Fill-205-Copy-2"></path>
                    <path d="M4,358.5 C2.06706949,358.5 0.5,356.932836 0.5,355 C0.5,353.067164 2.06706949,351.5 4,351.5 C5.93293051,351.5 7.5,353.067164 7.5,355 C7.5,356.932836 5.93293051,358.5 4,358.5" id="Fill-211"></path>
                    <path d="M4,142.5 C2.06706949,142.5 0.5,140.932836 0.5,139 C0.5,137.067164 2.06706949,135.5 4,135.5 C5.93293051,135.5 7.5,137.067164 7.5,139 C7.5,140.932836 5.93293051,142.5 4,142.5" id="Fill-211-Copy"></path>
                    <path d="M4,34.5 C2.06706949,34.5 0.5,32.9328358 0.5,31 C0.5,29.0671642 2.06706949,27.5 4,27.5 C5.93293051,27.5 7.5,29.0671642 7.5,31 C7.5,32.9328358 5.93293051,34.5 4,34.5" id="Fill-211-Copy-2"></path>
                    <path d="M4,385.5 C2.06706949,385.5 0.5,383.932836 0.5,382 C0.5,380.067164 2.06706949,378.5 4,378.5 C5.93293051,378.5 7.5,380.067164 7.5,382 C7.5,383.932836 5.93293051,385.5 4,385.5" id="Fill-217"></path>
                    <path d="M4,169.5 C2.06706949,169.5 0.5,167.932836 0.5,166 C0.5,164.067164 2.06706949,162.5 4,162.5 C5.93293051,162.5 7.5,164.067164 7.5,166 C7.5,167.932836 5.93293051,169.5 4,169.5" id="Fill-217-Copy"></path>
                    <path d="M4,61.5 C2.06706949,61.5 0.5,59.9328358 0.5,58 C0.5,56.0671642 2.06706949,54.5 4,54.5 C5.93293051,54.5 7.5,56.0671642 7.5,58 C7.5,59.9328358 5.93293051,61.5 4,61.5" id="Fill-217-Copy-2"></path>
                </g>
            </g>
        </g>
    </g>
</svg>