<?xml version="1.0" encoding="UTF-8"?>
<svg width="1242px" height="9px" viewBox="0 0 1242 9" version="1.1" xmlns="http://www.w3.org/2000/svg" xmlns:xlink="http://www.w3.org/1999/xlink">
    <!-- Generator: Sketch 60.1 (88133) - https://sketch.com -->
    <title>Group 5</title>
    <desc>Created with Sketch.</desc>
    <g id="Page-1" stroke="none" stroke-width="1" fill="none" fill-rule="evenodd">
        <g id="BH_HACKINFEST_EVENTPAGE_BUNBUN" transform="translate(-98.000000, -2360.000000)" fill="#1C3636">
            <g id="Group-5" transform="translate(719.000000, 2364.500000) rotate(90.000000) translate(-719.000000, -2364.500000) translate(715.000000, 1744.000000)">
                <path d="M4,8 C1.79093656,8 0,6.209762 0,4 C0,1.79104478 1.79093656,0 4,0 C6.20906344,0 8,1.79104478 8,4 C8,6.209762 6.20906344,8 4,8" id="Fill-1"></path>
                <path d="M0,30 C0,27.7910448 1.79093656,26 4,26 C6.20906344,26 8,27.7910448 8,30 C8,32.2089552 6.20906344,34 4,34 C1.79093656,34 0,32.2089552 0,30 Z" id="Fill-7"></path>
                <path d="M4,60 C1.79093656,60 0,58.2089552 0,56 C0,53.7910448 1.79093656,52 4,52 C6.20906344,52 8,53.7910448 8,56 C8,58.2089552 6.20906344,60 4,60" id="Fill-13"></path>
                <path d="M4,86 C1.79093656,86 0,84.2089552 0,82 C0,79.7910448 1.79093656,78 4,78 C6.20906344,78 8,79.7910448 8,82 C8,84.2089552 6.20906344,86 4,86" id="Fill-19"></path>
                <path d="M4,113 C1.79093656,113 0,111.208955 0,109 C0,106.791045 1.79093656,105 4,105 C6.20906344,105 8,106.791045 8,109 C8,111.208955 6.20906344,113 4,113" id="Fill-25"></path>
                <path d="M4,139 C1.79093656,139 0,137.209581 0,134.999597 C0,132.791225 1.79093656,131 4,131 C6.20906344,131 8,132.791225 8,134.999597 C8,137.209581 6.20906344,139 4,139" id="Fill-31"></path>
                <path d="M4,165 C1.79093656,165 0,163.208775 0,160.999597 C0,158.791225 1.79093656,157 4,157 C6.20906344,157 8,158.791225 8,160.999597 C8,163.208775 6.20906344,165 4,165" id="Fill-37"></path>
                <path d="M4,191 C1.79093656,191 0,189.208775 0,186.999597 C0,184.790419 1.79093656,183 4,183 C6.20906344,183 8,184.790419 8,186.999597 C8,189.208775 6.20906344,191 4,191" id="Fill-43"></path>
                <path d="M4,218 C1.79093656,218 0,216.208955 0,214 C0,211.791045 1.79093656,210 4,210 C6.20906344,210 8,211.791045 8,214 C8,216.208955 6.20906344,218 4,218" id="Fill-49"></path>
                <path d="M4,244 C1.79093656,244 0,242.208955 0,240 C0,237.791045 1.79093656,236 4,236 C6.20906344,236 8,237.791045 8,240 C8,242.208955 6.20906344,244 4,244" id="Fill-55"></path>
                <path d="M4,270 C1.79093656,270 -2.27373675e-13,268.208955 -2.27373675e-13,266 C-2.27373675e-13,263.791045 1.79093656,262 4,262 C6.20906344,262 8,263.791045 8,266 C8,268.208955 6.20906344,270 4,270" id="Fill-61"></path>
                <path d="M4,296 C1.79093656,296 -2.27373675e-13,294.208955 -2.27373675e-13,292 C-2.27373675e-13,289.791045 1.79093656,288 4,288 C6.20906344,288 8,289.791045 8,292 C8,294.208955 6.20906344,296 4,296" id="Fill-67"></path>
                <path d="M4,323 C1.79093656,323 -2.27373675e-13,321.209762 -2.27373675e-13,319 C-2.27373675e-13,316.791045 1.79093656,315 4,315 C6.20906344,315 8,316.791045 8,319 C8,321.209762 6.20906344,323 4,323" id="Fill-73"></path>
                <path d="M4,349 C1.79093656,349 -2.27373675e-13,347.208955 -2.27373675e-13,345 C-2.27373675e-13,342.791045 1.79093656,341 4,341 C6.20906344,341 8,342.791045 8,345 C8,347.208955 6.20906344,349 4,349" id="Fill-79"></path>
                <path d="M4,375 C1.79093656,375 -2.27373675e-13,373.208955 -2.27373675e-13,371 C-2.27373675e-13,368.791045 1.79093656,367 4,367 C6.20906344,367 8,368.791045 8,371 C8,373.208955 6.20906344,375 4,375" id="Fill-85"></path>
                <path d="M4,401 C1.79093656,401 -2.27373675e-13,399.208955 -2.27373675e-13,397 C-2.27373675e-13,394.791045 1.79093656,393 4,393 C6.20906344,393 8,394.791045 8,397 C8,399.208955 6.20906344,401 4,401" id="Fill-91"></path>
                <path d="M4,428 C1.79093656,428 -2.27373675e-13,426.208955 -2.27373675e-13,424 C-2.27373675e-13,421.791045 1.79093656,420 4,420 C6.20906344,420 8,421.791045 8,424 C8,426.208955 6.20906344,428 4,428" id="Fill-97"></path>
                <path d="M4,454 C1.79093656,454 -2.27373675e-13,452.209581 -2.27373675e-13,449.999597 C-2.27373675e-13,447.791225 1.79093656,446 4,446 C6.20906344,446 8,447.791225 8,449.999597 C8,452.209581 6.20906344,454 4,454" id="Fill-103"></path>
                <path d="M4,480 C1.79093656,480 -2.27373675e-13,478.208775 -2.27373675e-13,475.999597 C-2.27373675e-13,473.791225 1.79093656,472 4,472 C6.20906344,472 8,473.791225 8,475.999597 C8,478.208775 6.20906344,480 4,480" id="Fill-109"></path>
                <path d="M4,506 C1.79093656,506 -2.27373675e-13,504.208775 -2.27373675e-13,501.999597 C-2.27373675e-13,499.790419 1.79093656,498 4,498 C6.20906344,498 8,499.790419 8,501.999597 C8,504.208775 6.20906344,506 4,506" id="Fill-115"></path>
                <path d="M4,533 C1.79093656,533 -2.27373675e-13,531.208955 -2.27373675e-13,529 C-2.27373675e-13,526.791045 1.79093656,525 4,525 C6.20906344,525 8,526.791045 8,529 C8,531.208955 6.20906344,533 4,533" id="Fill-121"></path>
                <path d="M4,559 C1.79093656,559 -2.27373675e-13,557.208955 -2.27373675e-13,555 C-2.27373675e-13,552.791045 1.79093656,551 4,551 C6.20906344,551 8,552.791045 8,555 C8,557.208955 6.20906344,559 4,559" id="Fill-127"></path>
                <path d="M4,585 C1.79093656,585 -2.27373675e-13,583.208955 -2.27373675e-13,581 C-2.27373675e-13,578.791045 1.79093656,577 4,577 C6.20906344,577 8,578.791045 8,581 C8,583.208955 6.20906344,585 4,585" id="Fill-133"></path>
                <path d="M4,611 C1.79093656,611 -2.27373675e-13,609.208955 -2.27373675e-13,607 C-2.27373675e-13,604.791045 1.79093656,603 4,603 C6.20906344,603 8,604.791045 8,607 C8,609.208955 6.20906344,611 4,611" id="Fill-139"></path>
                <path d="M4,638 C1.79093656,638 -2.27373675e-13,636.208955 -2.27373675e-13,634 C-2.27373675e-13,631.791045 1.79093656,630 4,630 C6.20906344,630 8,631.791045 8,634 C8,636.208955 6.20906344,638 4,638" id="Fill-145"></path>
                <path d="M4,664 C1.79093656,664 -2.27373675e-13,662.208955 -2.27373675e-13,660 C-2.27373675e-13,657.791045 1.79093656,656 4,656 C6.20906344,656 8,657.791045 8,660 C8,662.208955 6.20906344,664 4,664" id="Fill-151"></path>
                <path d="M4,690 C1.79093656,690 -2.27373675e-13,688.208955 -2.27373675e-13,686 C-2.27373675e-13,683.791045 1.79093656,682 4,682 C6.20906344,682 8,683.791045 8,686 C8,688.208955 6.20906344,690 4,690" id="Fill-157"></path>
                <path d="M4,716 C1.79093656,716 -2.27373675e-13,714.208775 -2.27373675e-13,712.000403 C-2.27373675e-13,709.791225 1.79093656,708 4,708 C6.20906344,708 8,709.791225 8,712.000403 C8,714.208775 6.20906344,716 4,716" id="Fill-163"></path>
                <path d="M4,743 C1.79093656,743 -2.27373675e-13,741.208775 -2.27373675e-13,739.000403 C-2.27373675e-13,736.791225 1.79093656,735 4,735 C6.20906344,735 8,736.791225 8,739.000403 C8,741.208775 6.20906344,743 4,743" id="Fill-169"></path>
                <path d="M4,769 C1.79093656,769 -2.27373675e-13,767.208775 -2.27373675e-13,765.000403 C-2.27373675e-13,762.791225 1.79093656,761 4,761 C6.20906344,761 8,762.791225 8,765.000403 C8,767.208775 6.20906344,769 4,769" id="Fill-175"></path>
                <path d="M4,795 C1.79093656,795 -2.27373675e-13,793.208775 -2.27373675e-13,790.999597 C-2.27373675e-13,788.791225 1.79093656,787 4,787 C6.20906344,787 8,788.791225 8,790.999597 C8,793.208775 6.20906344,795 4,795" id="Fill-181"></path>
                <path d="M4,821 C1.79093656,821 -2.27373675e-13,819.208775 -2.27373675e-13,816.999597 C-2.27373675e-13,814.791225 1.79093656,813 4,813 C6.20906344,813 8,814.791225 8,816.999597 C8,819.208775 6.20906344,821 4,821" id="Fill-187"></path>
                <path d="M4,848 C1.79093656,848 -2.27373675e-13,846.208775 -2.27373675e-13,843.999597 C-2.27373675e-13,841.791225 1.79093656,840 4,840 C6.20906344,840 8,841.791225 8,843.999597 C8,846.208775 6.20906344,848 4,848" id="Fill-193"></path>
                <path d="M4,874 C1.79093656,874 -2.27373675e-13,872.208775 -2.27373675e-13,869.999597 C-2.27373675e-13,867.790419 1.79093656,866 4,866 C6.20906344,866 8,867.790419 8,869.999597 C8,872.208775 6.20906344,874 4,874" id="Fill-199"></path>
                <path d="M4,900 C1.79093656,900 -2.27373675e-13,898.208775 -2.27373675e-13,895.999597 C-2.27373675e-13,893.790419 1.79093656,892 4,892 C6.20906344,892 8,893.790419 8,895.999597 C8,898.208775 6.20906344,900 4,900" id="Fill-205"></path>
                <path d="M4,926 C1.79093656,926 -2.27373675e-13,924.208955 -2.27373675e-13,922 C-2.27373675e-13,919.791045 1.79093656,918 4,918 C6.20906344,918 8,919.791045 8,922 C8,924.208955 6.20906344,926 4,926" id="Fill-211"></path>
                <path d="M4,953 C1.79093656,953 -2.27373675e-13,951.208955 -2.27373675e-13,949 C-2.27373675e-13,946.791045 1.79093656,945 4,945 C6.20906344,945 8,946.791045 8,949 C8,951.208955 6.20906344,953 4,953" id="Fill-217"></path>
                <path d="M4,979 C1.79093656,979 -2.27373675e-13,977.208955 -2.27373675e-13,975 C-2.27373675e-13,972.791045 1.79093656,971 4,971 C6.20906344,971 8,972.791045 8,975 C8,977.208955 6.20906344,979 4,979" id="Fill-223"></path>
                <path d="M4,1005 C1.79093656,1005 -2.27373675e-13,1003.20896 -2.27373675e-13,1001 C-2.27373675e-13,998.791045 1.79093656,997 4,997 C6.20906344,997 8,998.791045 8,1001 C8,1003.20896 6.20906344,1005 4,1005" id="Fill-229"></path>
                <path d="M4,1031 C1.79093656,1031 -2.27373675e-13,1029.20958 -2.27373675e-13,1027.0004 C-2.27373675e-13,1024.79123 1.79093656,1023 4,1023 C6.20906344,1023 8,1024.79123 8,1027.0004 C8,1029.20958 6.20906344,1031 4,1031" id="Fill-235"></path>
                <path d="M4,1057 C1.79093656,1057 -2.27373675e-13,1055.20877 -2.27373675e-13,1053.0004 C-2.27373675e-13,1050.79123 1.79093656,1049 4,1049 C6.20906344,1049 8,1050.79123 8,1053.0004 C8,1055.20877 6.20906344,1057 4,1057" id="Fill-241"></path>
                <path d="M4,1084 C1.79093656,1084 -2.27373675e-13,1082.20877 -2.27373675e-13,1080.0004 C-2.27373675e-13,1077.79123 1.79093656,1076 4,1076 C6.20906344,1076 8,1077.79123 8,1080.0004 C8,1082.20877 6.20906344,1084 4,1084" id="Fill-247"></path>
                <path d="M4,1110 C1.79093656,1110 -2.27373675e-13,1108.20877 -2.27373675e-13,1106.0004 C-2.27373675e-13,1103.79123 1.79093656,1102 4,1102 C6.20906344,1102 8,1103.79123 8,1106.0004 C8,1108.20877 6.20906344,1110 4,1110" id="Fill-253"></path>
                <path d="M4,1136 C1.79093656,1136 -2.27373675e-13,1134.20877 -2.27373675e-13,1131.9996 C-2.27373675e-13,1129.79123 1.79093656,1128 4,1128 C6.20906344,1128 8,1129.79123 8,1131.9996 C8,1134.20877 6.20906344,1136 4,1136" id="Fill-259"></path>
                <path d="M4,1162 C1.79093656,1162 -2.27373675e-13,1160.20877 -2.27373675e-13,1157.9996 C-2.27373675e-13,1155.79123 1.79093656,1154 4,1154 C6.20906344,1154 8,1155.79123 8,1157.9996 C8,1160.20877 6.20906344,1162 4,1162" id="Fill-265"></path>
                <path d="M4,1189 C1.79093656,1189 -2.27373675e-13,1187.20877 -2.27373675e-13,1184.9996 C-2.27373675e-13,1182.79123 1.79093656,1181 4,1181 C6.20906344,1181 8,1182.79123 8,1184.9996 C8,1187.20877 6.20906344,1189 4,1189" id="Fill-271"></path>
                <path d="M4,1215 C1.79093656,1215 -2.27373675e-13,1213.20877 -2.27373675e-13,1210.9996 C-2.27373675e-13,1208.79042 1.79093656,1207 4,1207 C6.20906344,1207 8,1208.79042 8,1210.9996 C8,1213.20877 6.20906344,1215 4,1215" id="Fill-277"></path>
                <path d="M4,1241 C1.79093656,1241 -2.27373675e-13,1239.20896 -2.27373675e-13,1237 C-2.27373675e-13,1234.79104 1.79093656,1233 4,1233 C6.20906344,1233 8,1234.79104 8,1237 C8,1239.20896 6.20906344,1241 4,1241" id="Fill-283"></path>
            </g>
        </g>
    </g>
</svg>